{
.appVersion = "3108";
.formatVersion = 3;
axes = (
{
name = Weight;
tag = wght;
}
);
date = "2022-02-28 16:51:29 +0000";
familyName = "TAS Beginner";
fontMaster = (
{
axesValues = (
300
);
guides = (
{
pos = (460,350);
},
{
pos = (289,650);
},
{
pos = (125,568);
},
{
locked = 1;
pos = (124,175);
}
);
iconName = Light;
id = m01;
metricValues = (
{
over = 4;
pos = 700;
},
{
over = 4;
pos = 650;
},
{
over = 4;
pos = 350;
},
{
over = -4;
},
{
over = -4;
pos = -300;
},
{
over = -16;
pos = 14;
}
);
name = Regular;
stemValues = (
46,
50
);
visible = 1;
},
{
axesValues = (
800
);
guides = (
{
pos = (460,350);
},
{
pos = (340,650);
},
{
locked = 1;
pos = (183,175);
}
);
iconName = Bold_Extended;
id = m002;
metricValues = (
{
over = 4;
pos = 700;
},
{
over = 4;
pos = 650;
},
{
over = 4;
pos = 350;
},
{
over = -4;
},
{
over = -4;
pos = -300;
},
{
over = -16;
pos = 14;
}
);
name = "Extra Bold";
stemValues = (
90,
100
);
userData = {
GSOffsetHorizontal = 27;
GSOffsetKeepCompatible = 1;
GSOffsetVertical = 24;
};
visible = 1;
}
);
glyphs = (
{
glyphname = A;
lastChange = "2022-03-15 10:25:13 +0000";
layers = (
{
layerId = m01;
name = "QBeginners Light";
shapes = (
{
closed = 1;
nodes = (
(411,622,ls),
(417,632,o),
(409,650,o),
(390,650,cs),
(370,650,o),
(366,640,o),
(358,627,cs),
(-8,33,ls),
(-20,14,o),
(-9,1,o),
(6,0,cs),
(26,-1,o),
(31,5,o),
(42,23,cs)
);
},
{
closed = 1;
nodes = (
(377,327,l),
(373,373,l),
(241,373,l),
(219,327,l)
);
},
{
closed = 1;
nodes = (
(364,565,l),
(372,21,ls),
(372,11,o),
(375,0,o),
(396,0,cs),
(414,0,o),
(421,9,o),
(421,24,cs),
(413,634,l)
);
}
);
width = 480;
},
{
layerId = m002;
name = "QBeginners Light";
shapes = (
{
closed = 1;
nodes = (
(444,603,ls),
(456,623,o),
(438,648,o),
(402,650,cs),
(370,652,o),
(356,638,o),
(344,618,cs),
(6,67,ls),
(-16,31,o),
(12,2,o),
(43,0,cs),
(72,-2,o),
(87,7,o),
(102,32,cs)
);
},
{
closed = 1;
nodes = (
(366,283,l),
(363,373,l),
(299,373,l),
(242,283,l)
);
},
{
closed = 1;
nodes = (
(356,470,l),
(357,43,ls),
(357,18,o),
(373,0,o),
(405,0,cs),
(436,0,o),
(457,16,o),
(457,46,cs),
(448,615,l)
);
}
);
width = 521;
}
);
unicode = 65;
},
{
glyphname = B;
lastChange = "2022-03-15 10:26:09 +0000";
layers = (
{
layerId = m01;
shapes = (
{
closed = 1;
nodes = (
(382,312,o),
(420,373,o),
(441,458,cs),
(467,564,o),
(399,651,o),
(207,650,c),
(219,605,l),
(369,605,o),
(412,543,o),
(392,463,cs),
(380,414,o),
(355,364,o),
(155,378,c),
(144,328,l)
);
},
{
closed = 1;
nodes = (
(319,0,o),
(384,44,o),
(409,144,cs),
(440,269,o),
(310,367,o),
(155,378,c),
(145,328,l),
(288,318,o),
(383,241,o),
(361,155,cs),
(343,82,o),
(263,44,o),
(79,44,c),
(53,0,l)
);
},
{
closed = 1;
nodes = (
(233,639,o),
(227,648,o),
(208,650,cs),
(191,651,o),
(182,644,o),
(177,625,cs),
(30,33,ls),
(26,16,o),
(35,1,o),
(52,0,cs),
(66,-1,o),
(75,7,o),
(80,27,cs),
(227,617,ls)
);
}
);
width = 452;
},
{
layerId = m002;
shapes = (
{
closed = 1;
nodes = (
(410,282,o),
(462,372,o),
(485,464,cs),
(512,573,o),
(430,650,o),
(237,650,c),
(267,564,l),
(371,564,o),
(400,534,o),
(386,481,cs),
(374,434,o),
(353,375,o),
(215,375,c),
(194,282,l)
);
},
{
closed = 1;
nodes = (
(347,-2,o),
(424,30,o),
(456,158,cs),
(487,284,o),
(328,374,o),
(215,374,c),
(196,281,l),
(282,282,o),
(373,240,o),
(358,180,cs),
(338,101,o),
(279,91,o),
(152,91,c),
(93,0,l)
);
},
{
closed = 1;
nodes = (
(292,631,o),
(268,650,o),
(240,650,cs),
(212,650,o),
(191,640,o),
(183,609,cs),
(48,59,ls),
(40,28,o),
(62,0,o),
(94,0,cs),
(117,0,o),
(140,9,o),
(148,42,cs),
(282,591,ls)
);
}
);
width = 505;
}
);
metricLeft = N;
unicode = 66;
},
{
glyphname = C;
lastChange = "2022-03-15 10:26:34 +0000";
layers = (
{
layerId = m01;
shapes = (
{
closed = 1;
nodes = (
(459,601,o),
(483,579,o),
(487,542,cs),
(489,528,o),
(508,524,o),
(520,526,cs),
(536,529,o),
(537,543,o),
(535,553,cs),
(529,612,o),
(484,650,o),
(407,650,cs),
(212,650,o),
(138,511,o),
(98,349,cs),
(53,169,o),
(11,0,o),
(196,0,cs),
(294,0,o),
(376,45,o),
(417,107,cs),
(438,140,o),
(442,152,o),
(442,158,cs),
(443,170,o),
(429,176,o),
(418,177,cs),
(402,178,o),
(394,165,o),
(378,139,cs),
(343,86,o),
(279,50,o),
(198,50,cs),
(50,50,o),
(120,231,o),
(151,357,cs),
(183,486,o),
(245,601,o),
(403,601,cs)
);
}
);
width = 472;
},
{
layerId = m002;
shapes = (
{
closed = 1;
nodes = (
(459,556,o),
(466,548,o),
(469,523,cs),
(472,493,o),
(510,483,o),
(532,488,cs),
(559,494,o),
(570,514,o),
(567,539,cs),
(561,606,o),
(506,650,o),
(423,650,cs),
(223,650,o),
(148,507,o),
(109,353,cs),
(61,162,o),
(33,-1,o),
(225,-1,cs),
(327,-1,o),
(412,47,o),
(454,109,cs),
(476,145,o),
(480,159,o),
(481,168,cs),
(483,195,o),
(456,210,o),
(433,211,cs),
(405,213,o),
(392,199,o),
(372,165,cs),
(341,119,o),
(295,94,o),
(230,94,cs),
(163,94,o),
(168,173,o),
(212,348,cs),
(241,464,o),
(287,556,o),
(416,556,cs)
);
}
);
width = 518;
}
);
metricLeft = O;
unicode = 67;
},
{
glyphname = D;
lastChange = "2022-03-15 10:27:21 +0000";
layers = (
{
layerId = m01;
shapes = (
{
closed = 1;
nodes = (
(118,0,ls),
(310,0,o),
(444,115,o),
(499,335,cs),
(541,502,o),
(435,650,o),
(246,650,cs),
(210,650,l),
(202,604,l),
(247,604,ls),
(405,604,o),
(482,474,o),
(449,337,cs),
(401,145,o),
(283,49,o),
(122,46,cs),
(69,45,l),
(55,0,l)
);
},
{
closed = 1;
nodes = (
(233,636,o),
(231,650,o),
(210,650,cs),
(188,650,o),
(183,641,o),
(179,626,cs),
(28,28,ls),
(24,14,o),
(31,0,o),
(49,0,cs),
(71,0,o),
(76,13,o),
(79,23,cs),
(228,618,ls)
);
}
);
width = 514;
},
{
layerId = m002;
shapes = (
{
closed = 1;
nodes = (
(185,0,ls),
(378,0,o),
(492,140,o),
(543,345,cs),
(586,517,o),
(482,650,o),
(262,650,cs),
(240,650,l),
(260,560,l),
(281,560,ls),
(414,560,o),
(472,470,o),
(443,352,cs),
(400,178,o),
(323,90,o),
(185,90,cs),
(147,90,l),
(87,0,l)
);
},
{
closed = 1;
nodes = (
(293,632,o),
(268,650,o),
(242,650,cs),
(209,650,o),
(191,637,o),
(184,609,cs),
(46,57,ls),
(39,28,o),
(57,0,o),
(89,0,cs),
(124,0,o),
(140,18,o),
(145,39,cs),
(283,591,ls)
);
}
);
width = 556;
}
);
metricLeft = N;
unicode = 68;
},
{
glyphname = E;
lastChange = "2022-03-15 10:28:14 +0000";
layers = (
{
layerId = m01;
shapes = (
{
closed = 1;
nodes = (
(232,633,o),
(232,650,o),
(211,650,cs),
(189,650,o),
(182,641,o),
(178,625,cs),
(29,29,ls),
(25,14,o),
(32,1,o),
(50,0,cs),
(72,-1,o),
(77,16,o),
(80,26,cs),
(227,615,ls)
);
},
{
closed = 1;
nodes = (
(387,0,ls),
(407,0,o),
(413,12,o),
(413,24,cs),
(413,36,o),
(407,46,o),
(387,46,cs),
(80,46,l),
(50,0,l)
);
},
{
closed = 1;
nodes = (
(452,327,ls),
(472,327,o),
(478,338,o),
(478,350,cs),
(478,362,o),
(472,373,o),
(452,373,cs),
(159,373,l),
(148,327,l)
);
},
{
closed = 1;
nodes = (
(536,604,ls),
(556,604,o),
(562,615,o),
(562,627,cs),
(562,639,o),
(556,650,o),
(536,650,cs),
(210,650,l),
(216,604,l)
);
}
);
width = 487;
},
{
layerId = m002;
shapes = (
{
closed = 1;
nodes = (
(291,622,o),
(278,650,o),
(241,650,cs),
(210,650,o),
(192,638,o),
(184,608,cs),
(45,56,ls),
(38,27,o),
(57,0,o),
(90,0,cs),
(123,0,o),
(141,18,o),
(146,39,cs),
(283,591,ls)
);
},
{
closed = 1;
nodes = (
(428,0,ls),
(461,0,o),
(480,23,o),
(480,48,cs),
(480,73,o),
(461,94,o),
(428,94,cs),
(146,94,l),
(87,0,l)
);
},
{
closed = 1;
nodes = (
(486,283,ls),
(518,283,o),
(537,303,o),
(537,328,cs),
(537,353,o),
(518,373,o),
(486,373,cs),
(215,373,l),
(193,283,l)
);
},
{
closed = 1;
nodes = (
(567,555,ls),
(599,555,o),
(618,577,o),
(618,602,cs),
(618,627,o),
(599,649,o),
(567,649,cs),
(237,649,l),
(262,555,l)
);
}
);
width = 568;
}
);
metricLeft = N;
unicode = 69;
},
{
glyphname = F;
lastChange = "2022-03-15 10:28:28 +0000";
layers = (
{
layerId = m01;
shapes = (
{
closed = 1;
nodes = (
(231,636,o),
(230,649,o),
(209,650,cs),
(187,652,o),
(181,641,o),
(177,625,cs),
(29,29,ls),
(25,14,o),
(32,0,o),
(50,0,cs),
(72,0,o),
(77,14,o),
(80,24,cs),
(227,618,ls)
);
},
{
closed = 1;
nodes = (
(452,327,ls),
(472,327,o),
(478,338,o),
(478,350,cs),
(478,362,o),
(472,373,o),
(452,373,cs),
(156,373,l),
(149,327,l)
);
},
{
closed = 1;
nodes = (
(536,604,ls),
(556,604,o),
(562,615,o),
(562,627,cs),
(562,639,o),
(556,650,o),
(536,650,cs),
(206,650,l),
(199,604,l)
);
}
);
width = 485;
},
{
layerId = m002;
shapes = (
{
closed = 1;
nodes = (
(290,621,o),
(278,650,o),
(241,650,cs),
(210,650,o),
(191,637,o),
(184,608,cs),
(45,56,ls),
(37,26,o),
(57,0,o),
(90,0,cs),
(123,0,o),
(141,17,o),
(146,39,cs),
(283,591,ls)
);
},
{
closed = 1;
nodes = (
(448,283,ls),
(480,283,o),
(499,303,o),
(499,328,cs),
(499,353,o),
(480,373,o),
(448,373,cs),
(217,373,l),
(195,283,l)
);
},
{
closed = 1;
nodes = (
(515,556,ls),
(547,556,o),
(566,578,o),
(566,603,cs),
(566,628,o),
(547,650,o),
(515,650,cs),
(237,650,l),
(258,556,l)
);
}
);
width = 507;
}
);
metricLeft = N;
unicode = 70;
},
{
glyphname = G;
lastChange = "2022-03-15 10:39:14 +0000";
layers = (
{
layerId = m01;
shapes = (
{
closed = 1;
nodes = (
(464,336,l),
(440,337,o),
(435,331,o),
(371,247,cs),
(330,194,o),
(217,46,o),
(162,46,cs),
(112,46,o),
(106,99,o),
(110,145,cs),
(114,210,o),
(142,318,o),
(155,371,cs),
(179,463,o),
(241,603,o),
(422,603,cs),
(464,603,o),
(489,578,o),
(493,540,cs),
(495,527,o),
(511,521,o),
(523,523,cs),
(538,526,o),
(539,540,o),
(538,550,cs),
(532,609,o),
(486,649,o),
(423,649,cs),
(202,649,o),
(133,492,o),
(98,349,cs),
(93,329,o),
(64,216,o),
(60,153,cs),
(55,83,o),
(75,0,o),
(156,0,cs),
(229,0,o),
(326,107,o),
(420,228,c)
);
},
{
closed = 1;
nodes = (
(484,324,o),
(480,334,o),
(463,336,cs),
(443,337,o),
(434,330,o),
(429,311,cs),
(357,28,ls),
(354,16,o),
(357,0,o),
(376,0,cs),
(399,0,o),
(405,14,o),
(408,25,cs),
(480,307,ls)
);
}
);
width = 502;
},
{
layerId = m002;
shapes = (
{
closed = 1;
nodes = (
(477,353,l),
(446,352,o),
(457,375,o),
(373,267,cs),
(335,216,o),
(233,94,o),
(197,94,cs),
(173,94,o),
(171,115,o),
(173,156,cs),
(177,214,o),
(203,312,o),
(216,361,cs),
(237,445,o),
(288,556,o),
(440,556,cs),
(469,556,o),
(476,547,o),
(478,521,cs),
(482,492,o),
(519,481,o),
(542,486,cs),
(570,492,o),
(581,513,o),
(576,537,cs),
(569,603,o),
(514,650,o),
(444,650,cs),
(217,650,o),
(142,486,o),
(109,352,cs),
(105,335,o),
(78,228,o),
(74,168,cs),
(69,98,o),
(91,0,o),
(188,0,cs),
(273,0,o),
(378,111,o),
(465,223,c)
);
},
{
closed = 1;
nodes = (
(532,340,o),
(506,359,o),
(481,359,cs),
(451,359,o),
(428,345,o),
(421,317,cs),
(354,47,ls),
(348,21,o),
(362,-4,o),
(396,-9,cs),
(427,-12,o),
(448,6,o),
(455,32,cs),
(523,303,ls)
);
}
);
width = 556;
}
);
metricLeft = O;
metricRight = O;
unicode = 71;
},
{
glyphname = H;
lastChange = "2022-03-15 04:58:45 +0000";
layers = (
{
layerId = m01;
shapes = (
{
closed = 1;
nodes = (
(230,635,o),
(225,649,o),
(208,650,cs),
(189,651,o),
(181,641,o),
(177,625,cs),
(29,29,ls),
(25,14,o),
(32,1,o),
(50,0,cs),
(72,-1,o),
(78,13,o),
(80,23,cs),
(226,617,ls)
);
},
{
closed = 1;
nodes = (
(456,328,l),
(467,373,l),
(153,373,l),
(142,328,l)
);
},
{
closed = 1;
nodes = (
(568,637,o),
(563,649,o),
(544,650,cs),
(526,652,o),
(517,640,o),
(515,630,cs),
(368,28,ls),
(365,16,o),
(367,1,o),
(389,0,cs),
(408,-2,o),
(416,11,o),
(418,20,cs),
(564,620,ls)
);
}
);
width = 522;
},
{
layerId = m002;
shapes = (
{
closed = 1;
nodes = (
(292,624,o),
(274,650,o),
(243,650,cs),
(216,650,o),
(193,638,o),
(185,608,cs),
(46,57,ls),
(38,27,o),
(58,0,o),
(91,0,cs),
(124,0,o),
(140,19,o),
(145,39,cs),
(284,591,ls)
);
},
{
closed = 1;
nodes = (
(447,283,l),
(469,373,l),
(217,373,l),
(196,283,l)
);
},
{
closed = 1;
nodes = (
(623,626,o),
(602,650,o),
(571,650,cs),
(545,650,o),
(522,636,o),
(516,612,cs),
(378,55,ls),
(371,25,o),
(387,0,o),
(422,0,cs),
(451,0,o),
(471,15,o),
(476,36,cs),
(614,591,ls)
);
}
);
width = 586;
}
);
metricLeft = N;
metricRight = N;
unicode = 72;
},
{
glyphname = I;
lastChange = "2022-03-15 10:28:47 +0000";
layers = (
{
layerId = m01;
shapes = (
{
closed = 1;
nodes = (
(162,40,l),
(304,609,l),
(253,610,l),
(110,40,l)
);
},
{
closed = 1;
nodes = (
(398,604,o),
(404,615,o),
(404,627,cs),
(404,639,o),
(398,650,o),
(378,650,cs),
(185,650,ls),
(165,650,o),
(159,639,o),
(159,627,cs),
(159,615,o),
(165,604,o),
(185,604,cs),
(378,604,ls)
);
},
{
closed = 1;
nodes = (
(249,0,o),
(255,11,o),
(255,23,cs),
(255,35,o),
(249,47,o),
(229,47,cs),
(36,47,ls),
(16,47,o),
(10,35,o),
(10,23,cs),
(10,11,o),
(16,0,o),
(36,0,cs),
(229,0,ls)
);
}
);
width = 339;
},
{
layerId = m002;
shapes = (
{
closed = 1;
nodes = (
(237,81,l),
(359,568,l),
(256,568,l),
(135,82,l)
);
},
{
closed = 1;
nodes = (
(442,560,o),
(461,578,o),
(461,603,cs),
(461,628,o),
(442,650,o),
(410,650,cs),
(219,650,ls),
(188,650,o),
(168,630,o),
(168,603,cs),
(168,576,o),
(188,560,o),
(219,560,cs),
(410,560,ls)
);
},
{
closed = 1;
nodes = (
(303,0,o),
(322,18,o),
(322,43,cs),
(322,68,o),
(303,90,o),
(271,90,cs),
(80,90,ls),
(49,90,o),
(29,70,o),
(29,43,cs),
(29,16,o),
(49,0,o),
(80,0,cs),
(271,0,ls)
);
}
);
width = 416;
}
);
unicode = 73;
},
{
glyphname = J;
lastChange = "2022-03-15 10:28:54 +0000";
layers = (
{
layerId = m01;
shapes = (
{
closed = 1;
nodes = (
(276,195,ls),
(264,148,o),
(251,93,o),
(217,66,cs),
(197,49,o),
(164,46,o),
(130,46,cs),
(104,46,o),
(80,64,o),
(64,89,cs),
(53,106,o),
(37,120,o),
(24,111,cs),
(8,99,o),
(11,86,o),
(27,62,cs),
(48,32,o),
(80,0,o),
(127,0,cs),
(178,0,o),
(216,7,o),
(244,29,cs),
(286,61,o),
(309,119,o),
(327,192,cs),
(433,618,ls),
(437,635,o),
(435,649,o),
(415,650,cs),
(395,651,o),
(387,641,o),
(383,625,cs)
);
}
);
width = 388;
},
{
layerId = m002;
shapes = (
{
closed = 1;
nodes = (
(268,211,ls),
(257,166,o),
(248,126,o),
(224,107,cs),
(208,94,o),
(188,90,o),
(160,90,cs),
(144,90,o),
(127,99,o),
(111,126,cs),
(96,150,o),
(66,162,o),
(44,145,cs),
(19,127,o),
(14,105,o),
(40,69,cs),
(61,38,o),
(101,0,o),
(159,0,cs),
(208,0,o),
(250,8,o),
(281,31,cs),
(327,68,o),
(349,126,o),
(367,196,cs),
(462,590,ls),
(473,632,o),
(446,648,o),
(420,650,cs),
(393,652,o),
(371,637,o),
(365,611,cs)
);
}
);
width = 437;
}
);
metricLeft = "=N/2";
metricRight = N;
unicode = 74;
},
{
glyphname = K;
lastChange = "2022-03-15 10:29:25 +0000";
layers = (
{
layerId = m01;
shapes = (
{
closed = 1;
nodes = (
(561,599,ls),
(573,608,o),
(578,619,o),
(580,628,cs),
(581,640,o),
(573,650,o),
(560,650,cs),
(552,651,o),
(541,646,o),
(529,637,cs),
(148,360,l),
(148,348,l),
(206,343,l)
);
},
{
closed = 1;
nodes = (
(148,356,l),
(148,345,l),
(375,19,ls),
(382,9,o),
(392,0,o),
(405,0,cs),
(415,0,o),
(425,6,o),
(428,17,cs),
(430,24,o),
(429,32,o),
(422,42,cs),
(206,354,l)
);
},
{
closed = 1;
nodes = (
(233,635,o),
(229,650,o),
(210,650,cs),
(190,650,o),
(183,639,o),
(179,625,cs),
(30,34,ls),
(26,19,o),
(32,0,o),
(50,0,cs),
(70,0,o),
(77,16,o),
(80,29,cs),
(228,617,ls)
);
}
);
width = 487;
},
{
layerId = m002;
shapes = (
{
closed = 1;
nodes = (
(587,559,ls),
(602,570,o),
(612,586,o),
(614,602,cs),
(616,628,o),
(597,648,o),
(571,649,cs),
(559,650,o),
(540,645,o),
(523,632,cs),
(160,367,l),
(160,324,l),
(249,316,l)
);
},
{
closed = 1;
nodes = (
(160,378,l),
(160,336,l),
(374,30,l),
(384,12,o),
(403,0,o),
(424,0,cs),
(446,0,o),
(468,14,o),
(473,36,cs),
(475,49,o),
(472,62,o),
(462,77,cs),
(255,374,l)
);
},
{
closed = 1;
nodes = (
(291,627,o),
(269,650,o),
(240,650,cs),
(212,650,o),
(190,638,o),
(183,608,cs),
(47,61,ls),
(40,32,o),
(59,2,o),
(92,0,cs),
(124,-2,o),
(143,19,o),
(149,45,cs),
(282,591,ls)
);
}
);
width = 543;
}
);
metricLeft = N;
unicode = 75;
},
{
glyphname = L;
lastChange = "2022-03-15 10:29:47 +0000";
layers = (
{
layerId = m01;
shapes = (
{
closed = 1;
nodes = (
(230,635,o),
(228,648,o),
(208,650,cs),
(188,651,o),
(181,641,o),
(177,625,cs),
(29,29,ls),
(25,14,o),
(32,0,o),
(50,0,cs),
(72,0,o),
(77,13,o),
(79,23,cs),
(226,617,ls)
);
},
{
closed = 1;
nodes = (
(387,0,ls),
(405,0,o),
(413,14,o),
(413,26,cs),
(413,38,o),
(405,50,o),
(387,50,cs),
(76,50,l),
(49,0,l)
);
}
);
width = 471;
},
{
layerId = m002;
shapes = (
{
closed = 1;
nodes = (
(292,630,o),
(268,648,o),
(241,650,cs),
(213,652,o),
(191,638,o),
(183,608,cs),
(46,58,ls),
(39,29,o),
(58,2,o),
(91,0,cs),
(125,-2,o),
(140,20,o),
(145,41,cs),
(282,591,ls)
);
},
{
closed = 1;
nodes = (
(471,0,ls),
(502,0,o),
(523,23,o),
(523,48,cs),
(523,73,o),
(502,94,o),
(471,94,cs),
(145,94,l),
(90,0,l)
);
}
);
width = 581;
}
);
metricLeft = N;
unicode = 76;
},
{
glyphname = M;
lastChange = "2022-03-15 10:12:20 +0000";
layers = (
{
layerId = m01;
shapes = (
{
closed = 1;
nodes = (
(255,599,ls),
(248,636,o),
(226,650,o),
(210,650,c),
(206,589,l),
(321,18,ls),
(323,8,o),
(336,0,o),
(350,0,c),
(362,67,l)
);
},
{
closed = 1;
nodes = (
(211,650,l),
(195,650,o),
(180,636,o),
(172,603,cs),
(30,30,ls),
(27,16,o),
(34,0,o),
(51,0,cs),
(69,0,o),
(77,12,o),
(80,24,cs),
(220,589,l)
);
},
{
closed = 1;
nodes = (
(673,-1,o),
(678,11,o),
(681,21,cs),
(829,616,ls),
(833,634,o),
(822,650,o),
(805,650,c),
(763,559,l),
(632,30,ls),
(629,19,o),
(632,1,o),
(651,0,cs)
);
},
{
closed = 1;
nodes = (
(349,0,l),
(363,0,o),
(366,8,o),
(374,18,cs),
(781,559,l),
(806,650,l),
(791,650,o),
(775,634,o),
(763,618,cs),
(342,58,l)
);
}
);
width = 784;
},
{
layerId = m002;
shapes = (
{
closed = 1;
nodes = (
(301,620,ls),
(297,641,o),
(267,650,o),
(241,650,c),
(226,494,l),
(314,50,ls),
(321,14,o),
(353,0,o),
(389,0,c),
(404,109,l)
);
},
{
closed = 1;
nodes = (
(242,650,l),
(210,650,o),
(191,639,o),
(185,616,cs),
(45,55,ls),
(38,27,o),
(55,0,o),
(84,0,cs),
(116,0,o),
(138,15,o),
(144,40,cs),
(258,494,l)
);
},
{
closed = 1;
nodes = (
(718,0,o),
(732,13,o),
(737,34,cs),
(875,591,ls),
(883,623,o),
(870,646,o),
(837,650,c),
(743,475,l),
(639,53,ls),
(633,27,o),
(658,0,o),
(687,0,c)
);
},
{
closed = 1;
nodes = (
(383,0,l),
(419,0,o),
(441,18,o),
(458,40,cs),
(786,479,l),
(838,650,l),
(802,650,o),
(782,641,o),
(766,620,cs),
(370,87,l)
);
}
);
width = 847;
}
);
metricLeft = N;
metricRight = N;
unicode = 77;
},
{
glyphname = N;
lastChange = "2022-03-15 05:18:24 +0000";
layers = (
{
layerId = m01;
shapes = (
{
closed = 1;
nodes = (
(238,630,ls),
(235,639,o),
(225,650,o),
(207,650,c),
(200,588,l),
(408,18,ls),
(412,8,o),
(421,0,o),
(435,0,c),
(441,74,l)
);
},
{
closed = 1;
nodes = (
(209,650,l),
(187,650,o),
(181,641,o),
(177,625,cs),
(29,29,ls),
(25,14,o),
(31,1,o),
(50,0,cs),
(71,-1,o),
(77,14,o),
(80,26,cs),
(219,586,l)
);
},
{
closed = 1;
nodes = (
(451,0,o),
(460,13,o),
(462,23,cs),
(611,619,ls),
(615,637,o),
(612,650,o),
(592,650,cs),
(574,650,o),
(565,640,o),
(561,626,cs),
(424,78,l),
(434,0,l)
);
}
);
width = 565;
},
{
layerId = m002;
shapes = (
{
closed = 1;
nodes = (
(274,615,ls),
(265,640,o),
(251,650,o),
(220,650,c),
(211,507,l),
(385,32,ls),
(394,8,o),
(421,0,o),
(445,0,c),
(444,151,l)
);
},
{
closed = 1;
nodes = (
(224,650,l),
(204,650,o),
(191,641,o),
(182,605,cs),
(46,58,ls),
(39,28,o),
(58,2,o),
(91,0,cs),
(124,-2,o),
(139,19,o),
(145,42,cs),
(261,508,l)
);
},
{
closed = 1;
nodes = (
(468,0,o),
(479,10,o),
(486,39,cs),
(624,592,ls),
(634,632,o),
(610,649,o),
(583,650,cs),
(555,652,o),
(532,638,o),
(525,609,cs),
(411,151,l),
(443,0,l)
);
}
);
width = 595;
}
);
unicode = 78;
},
{
glyphname = O;
lastChange = "2022-03-15 07:29:24 +0000";
layers = (
{
layerId = m01;
shapes = (
{
closed = 1;
nodes = (
(362,0,o),
(467,251,o),
(505,432,cs),
(529,545,o),
(476,650,o),
(345,650,cs),
(222,650,o),
(163,563,o),
(116,417,cs),
(104,377,o),
(93,331,o),
(88,287,cs),
(71,152,o),
(108,0,o),
(211,0,cs)
);
},
{
closed = 1;
nodes = (
(149,46,o),
(127,182,o),
(137,275,cs),
(142,317,o),
(151,362,o),
(161,394,cs),
(204,528,o),
(249,604,o),
(338,604,cs),
(473,604,o),
(466,491,o),
(453,428,cs),
(419,269,o),
(319,46,o),
(212,46,cs)
);
}
);
width = 497;
},
{
layerId = m002;
shapes = (
{
closed = 1;
nodes = (
(401,0,o),
(502,246,o),
(539,416,cs),
(563,536,o),
(501,650,o),
(373,650,cs),
(232,650,o),
(171,553,o),
(126,413,cs),
(115,376,o),
(103,331,o),
(98,289,cs),
(81,155,o),
(120,0,o),
(239,0,cs)
);
},
{
closed = 1;
nodes = (
(204,91,o),
(187,190,o),
(197,273,cs),
(202,311,o),
(210,349,o),
(219,379,cs),
(258,501,o),
(290,560,o),
(356,560,cs),
(453,560,o),
(449,478,o),
(436,423,cs),
(407,277,o),
(321,87,o),
(241,90,cs)
);
}
);
width = 544;
}
);
unicode = 79;
},
{
glyphname = P;
lastChange = "2022-03-15 10:31:24 +0000";
layers = (
{
layerId = m01;
shapes = (
{
closed = 1;
nodes = (
(339,332,o),
(496,344,o),
(528,471,cs),
(558,591,o),
(420,650,o),
(206,650,c),
(216,600,l),
(407,600,o),
(498,555,o),
(479,480,cs),
(457,393,o),
(314,381,o),
(160,381,c),
(150,332,l)
);
},
{
closed = 1;
nodes = (
(230,636,o),
(229,650,o),
(208,650,cs),
(186,650,o),
(181,641,o),
(177,625,cs),
(29,32,ls),
(25,17,o),
(32,0,o),
(50,0,cs),
(71,0,o),
(78,17,o),
(80,26,cs),
(226,618,ls)
);
}
);
width = 454;
},
{
layerId = m002;
shapes = (
{
closed = 1;
nodes = (
(337,291,o),
(524,290,o),
(566,461,cs),
(600,598,o),
(459,650,o),
(238,650,c),
(263,559,l),
(433,559,o),
(481,536,o),
(467,481,cs),
(445,392,o),
(326,381,o),
(210,381,c),
(191,291,l)
);
},
{
closed = 1;
nodes = (
(293,635,o),
(268,650,o),
(242,650,cs),
(209,650,o),
(191,640,o),
(184,612,cs),
(50,70,l),
(41,40,o),
(60,11,o),
(93,8,cs),
(129,6,o),
(144,30,o),
(149,52,cs),
(283,594,ls)
);
}
);
width = 510;
}
);
metricLeft = N;
unicode = 80;
},
{
glyphname = Q;
lastChange = "2022-03-15 05:22:16 +0000";
layers = (
{
layerId = m01;
shapes = (
{
closed = 1;
nodes = (
(304,181,o),
(286,187,o),
(271,175,cs),
(260,168,o),
(261,155,o),
(272,138,cs),
(371,-16,ls),
(381,-31,o),
(396,-41,o),
(409,-34,cs),
(422,-27,o),
(423,-8,o),
(415,5,cs),
(313,166,ls)
);
},
{
closed = 1;
nodes = (
(362,0,o),
(467,251,o),
(505,432,cs),
(529,545,o),
(476,650,o),
(345,650,cs),
(222,650,o),
(163,563,o),
(116,417,cs),
(104,377,o),
(93,331,o),
(88,287,cs),
(71,152,o),
(108,0,o),
(211,0,cs)
);
},
{
closed = 1;
nodes = (
(149,50,o),
(126,182,o),
(136,275,cs),
(141,317,o),
(151,362,o),
(161,394,cs),
(204,528,o),
(249,600,o),
(338,600,cs),
(473,600,o),
(466,491,o),
(453,428,cs),
(419,269,o),
(319,50,o),
(212,50,cs)
);
}
);
width = 493;
},
{
layerId = m002;
shapes = (
{
closed = 1;
nodes = (
(336,213,o),
(299,220,o),
(274,201,cs),
(255,186,o),
(249,166,o),
(269,135,cs),
(361,-6,ls),
(379,-34,o),
(412,-45,o),
(434,-30,cs),
(460,-16,o),
(463,14,o),
(447,39,cs),
(352,187,ls)
);
},
{
closed = 1;
nodes = (
(401,0,o),
(502,249,o),
(539,419,cs),
(563,539,o),
(501,650,o),
(363,650,cs),
(232,650,o),
(171,556,o),
(126,416,cs),
(115,379,o),
(103,334,o),
(98,292,cs),
(81,158,o),
(120,0,o),
(239,0,cs)
);
},
{
closed = 1;
nodes = (
(204,95,o),
(187,193,o),
(197,276,cs),
(202,314,o),
(210,352,o),
(219,382,cs),
(258,504,o),
(290,556,o),
(356,556,cs),
(453,556,o),
(449,481,o),
(436,426,cs),
(407,280,o),
(321,95,o),
(241,95,cs)
);
}
);
width = 550;
}
);
metricLeft = O;
unicode = 81;
},
{
glyphname = R;
lastChange = "2022-03-15 10:31:47 +0000";
layers = (
{
layerId = m01;
shapes = (
{
closed = 1;
nodes = (
(324,328,o),
(498,337,o),
(534,481,cs),
(564,600,o),
(426,650,o),
(207,650,c),
(209,604,l),
(394,604,o),
(505,572,o),
(485,491,cs),
(458,383,o),
(305,374,o),
(151,374,c),
(140,328,l)
);
},
{
closed = 1;
nodes = (
(125,341,l),
(371,19,ls),
(381,6,o),
(388,0,o),
(396,0,cs),
(406,0,o),
(416,7,o),
(419,15,cs),
(422,23,o),
(422,34,o),
(416,42,cs),
(193,334,l)
);
},
{
closed = 1;
nodes = (
(230,636,o),
(229,649,o),
(208,650,cs),
(186,652,o),
(181,641,o),
(177,625,cs),
(30,34,ls),
(26,17,o),
(31,0,o),
(49,0,cs),
(71,0,o),
(77,14,o),
(80,28,cs),
(226,618,ls)
);
}
);
width = 494;
},
{
layerId = m002;
shapes = (
{
closed = 1;
nodes = (
(323,284,o),
(537,318,o),
(571,455,cs),
(607,601,o),
(445,650,o),
(239,650,c),
(264,559,l),
(398,559,o),
(491,547,o),
(473,477,cs),
(458,417,o),
(320,374,o),
(208,374,c),
(187,284,l)
);
},
{
closed = 1;
nodes = (
(164,298,l),
(371,27,ls),
(385,9,o),
(400,0,o),
(416,0,cs),
(436,0,o),
(456,12,o),
(463,31,cs),
(468,46,o),
(468,62,o),
(456,77,cs),
(283,304,l)
);
},
{
closed = 1;
nodes = (
(293,632,o),
(268,650,o),
(242,650,cs),
(209,650,o),
(191,637,o),
(184,609,cs),
(47,63,ls),
(39,30,o),
(57,3,o),
(90,0,cs),
(123,-2,o),
(139,18,o),
(146,45,cs),
(283,591,ls)
);
}
);
width = 546;
}
);
metricLeft = N;
unicode = 82;
},
{
glyphname = S;
lastChange = "2022-03-14 01:19:13 +0000";
layers = (
{
layerId = m01;
shapes = (
{
closed = 1;
nodes = (
(131,49,o),
(99,71,o),
(86,108,cs),
(81,121,o),
(66,126,o),
(53,123,cs),
(38,120,o),
(36,106,o),
(38,96,cs),
(52,38,o),
(106,0,o),
(164,0,cs),
(308,0,o),
(413,38,o),
(443,159,cs),
(464,243,o),
(388,309,o),
(320,363,cs),
(250,420,o),
(178,458,o),
(189,502,cs),
(203,559,o),
(306,600,o),
(381,600,cs),
(465,600,o),
(478,576,o),
(490,539,cs),
(494,526,o),
(511,522,o),
(523,524,cs),
(539,527,o),
(540,541,o),
(538,551,cs),
(522,616,o),
(486,650,o),
(386,650,cs),
(258,650,o),
(157,583,o),
(140,513,cs),
(121,431,o),
(210,388,o),
(277,332,cs),
(352,271,o),
(408,225,o),
(394,167,cs),
(373,79,o),
(286,49,o),
(167,49,cs)
);
}
);
width = 503;
},
{
layerId = m002;
shapes = (
{
closed = 1;
nodes = (
(174,94,o),
(161,103,o),
(153,126,cs),
(143,156,o),
(110,166,o),
(89,162,cs),
(62,157,o),
(49,135,o),
(54,111,cs),
(68,44,o),
(129,0,o),
(200,0,cs),
(338,0,o),
(449,39,o),
(481,165,cs),
(503,258,o),
(423,326,o),
(358,379,cs),
(292,431,o),
(241,459,o),
(247,482,cs),
(257,523,o),
(335,556,o),
(398,556,cs),
(451,556,o),
(462,549,o),
(472,522,cs),
(483,492,o),
(513,482,o),
(535,487,cs),
(563,493,o),
(574,514,o),
(569,538,cs),
(553,610,o),
(511,650,o),
(411,650,cs),
(280,650,o),
(168,583,o),
(149,504,cs),
(127,412,o),
(224,363,o),
(284,313,cs),
(353,257,o),
(392,224,o),
(382,184,cs),
(365,115,o),
(304,94,o),
(223,94,cs)
);
}
);
width = 549;
}
);
metricLeft = O;
metricRight = O;
unicode = 83;
},
{
glyphname = T;
lastChange = "2022-03-15 10:34:05 +0000";
layers = (
{
layerId = m01;
shapes = (
{
closed = 1;
nodes = (
(305,605,l),
(162,31,ls),
(159,17,o),
(166,0,o),
(184,0,cs),
(202,0,o),
(210,13,o),
(212,23,cs),
(357,605,l)
);
},
{
closed = 1;
nodes = (
(553,604,o),
(559,615,o),
(559,627,cs),
(559,639,o),
(553,650,o),
(533,650,cs),
(139,650,ls),
(119,650,o),
(113,639,o),
(113,627,cs),
(113,615,o),
(119,604,o),
(139,604,cs),
(533,604,ls)
);
}
);
width = 448;
},
{
layerId = m002;
shapes = (
{
closed = 1;
nodes = (
(322,573,l),
(194,59,ls),
(187,31,o),
(202,0,o),
(236,0,cs),
(270,0,o),
(287,17,o),
(292,39,cs),
(425,573,l)
);
},
{
closed = 1;
nodes = (
(615,556,o),
(634,578,o),
(634,603,cs),
(634,628,o),
(615,650,o),
(583,650,cs),
(179,650,ls),
(148,650,o),
(128,630,o),
(128,603,cs),
(128,576,o),
(148,556,o),
(179,556,cs),
(583,556,ls)
);
}
);
width = 549;
}
);
unicode = 84;
},
{
glyphname = U;
lastChange = "2022-03-14 01:19:13 +0000";
layers = (
{
layerId = m01;
shapes = (
{
closed = 1;
nodes = (
(486,444,l),
(478,445,l),
(475,434,l),
(446,342,o),
(400,280,o),
(378,251,cs),
(305,157,o),
(208,46,o),
(158,46,cs),
(111,46,o),
(104,127,o),
(120,190,cs),
(228,620,ls),
(232,634,o),
(224,648,o),
(209,650,cs),
(193,651,o),
(181,638,o),
(177,622,cs),
(70,196,ls),
(38,67,o),
(88,-4,o),
(147,-4,cs),
(232,-4,o),
(325,104,o),
(400,198,c),
(447,274,l)
);
},
{
closed = 1;
nodes = (
(575,637,o),
(568,648,o),
(549,650,cs),
(531,651,o),
(523,639,o),
(520,627,cs),
(370,29,ls),
(366,11,o),
(377,1,o),
(391,0,cs),
(403,-1,o),
(416,6,o),
(420,21,cs),
(571,622,ls)
);
}
);
width = 525;
},
{
layerId = m002;
shapes = (
{
closed = 1;
nodes = (
(504,457,l),
(469,461,l),
(459,432,ls),
(431,351,o),
(394,296,o),
(375,271,cs),
(307,184,o),
(220,90,o),
(188,90,cs),
(167,90,o),
(170,139,o),
(184,194,cs),
(284,593,ls),
(291,621,o),
(272,650,o),
(242,650,cs),
(216,650,o),
(191,635,o),
(184,607,cs),
(84,211,ls),
(50,77,o),
(103,-4,o),
(170,-4,cs),
(271,-4,o),
(371,108,o),
(440,194,c),
(461,268,l)
);
},
{
closed = 1;
nodes = (
(609,624,o),
(589,650,o),
(555,650,cs),
(529,650,o),
(506,636,o),
(500,611,cs),
(362,58,ls),
(354,24,o),
(378,2,o),
(407,0,cs),
(430,-1,o),
(454,11,o),
(461,37,cs),
(601,594,ls)
);
}
);
width = 572;
}
);
metricLeft = N;
metricRight = N;
unicode = 85;
},
{
glyphname = V;
lastChange = "2022-03-15 10:34:46 +0000";
layers = (
{
layerId = m01;
shapes = (
{
closed = 1;
nodes = (
(218,0,o),
(222,11,o),
(229,25,cs),
(522,618,ls),
(532,638,o),
(520,650,o),
(505,650,cs),
(486,650,o),
(477,642,o),
(469,625,cs),
(198,74,l),
(199,0,l)
);
},
{
closed = 1;
nodes = (
(189,626,ls),
(188,636,o),
(184,650,o),
(162,650,c),
(144,650,o),
(138,639,o),
(139,624,cs),
(172,28,ls),
(173,15,o),
(181,0,o),
(200,0,c),
(219,74,l)
);
}
);
width = 438;
},
{
layerId = m002;
shapes = (
{
closed = 1;
nodes = (
(260,0,o),
(280,10,o),
(293,36,cs),
(564,585,ls),
(582,622,o),
(556,649,o),
(524,649,cs),
(497,649,o),
(477,638,o),
(466,611,c),
(213,97,l),
(235,0,l)
);
},
{
closed = 1;
nodes = (
(259,605,ls),
(258,628,o),
(240,649,o),
(207,649,cs),
(176,649,o),
(157,629,o),
(159,599,cs),
(189,48,ls),
(191,15,o),
(213,0,o),
(239,0,c),
(286,91,l)
);
}
);
width = 513;
}
);
unicode = 86;
},
{
glyphname = W;
lastChange = "2022-03-15 06:32:35 +0000";
layers = (
{
layerId = m01;
shapes = (
{
closed = 1;
nodes = (
(218,0,o),
(222,11,o),
(229,25,cs),
(522,618,ls),
(532,638,o),
(520,650,o),
(505,650,cs),
(486,650,o),
(477,642,o),
(469,625,cs),
(198,74,l),
(199,0,l)
);
},
{
closed = 1;
nodes = (
(189,626,ls),
(188,636,o),
(184,650,o),
(162,650,c),
(144,650,o),
(138,639,o),
(139,624,cs),
(172,28,ls),
(173,15,o),
(181,0,o),
(200,0,c),
(219,74,l)
);
},
{
closed = 1;
nodes = (
(557,0,o),
(561,11,o),
(568,25,cs),
(861,618,ls),
(871,638,o),
(859,650,o),
(844,650,cs),
(825,650,o),
(816,642,o),
(808,625,cs),
(537,74,l),
(538,0,l)
);
},
{
closed = 1;
nodes = (
(528,626,ls),
(527,636,o),
(523,650,o),
(501,650,c),
(483,650,o),
(477,639,o),
(478,624,cs),
(511,28,ls),
(512,15,o),
(520,0,o),
(539,0,c),
(558,74,l)
);
}
);
width = 777;
},
{
layerId = m002;
shapes = (
{
closed = 1;
nodes = (
(260,0,o),
(280,10,o),
(293,36,cs),
(564,585,ls),
(582,622,o),
(556,649,o),
(524,649,cs),
(497,649,o),
(479,637,o),
(466,611,cs),
(213,97,l),
(235,0,l)
);
},
{
closed = 1;
nodes = (
(259,605,ls),
(258,628,o),
(240,649,o),
(207,649,cs),
(176,649,o),
(157,629,o),
(159,599,cs),
(189,48,ls),
(191,15,o),
(213,0,o),
(239,0,c),
(286,91,l)
);
},
{
closed = 1;
nodes = (
(573,0,o),
(593,10,o),
(606,36,cs),
(877,585,ls),
(895,622,o),
(869,649,o),
(837,649,cs),
(810,649,o),
(792,637,o),
(779,611,cs),
(526,97,l),
(548,0,l)
);
},
{
closed = 1;
nodes = (
(572,605,ls),
(571,628,o),
(553,649,o),
(520,649,cs),
(489,649,o),
(470,629,o),
(472,599,cs),
(502,48,ls),
(504,15,o),
(526,0,o),
(552,0,c),
(599,91,l)
);
}
);
width = 826;
}
);
unicode = 87;
},
{
glyphname = X;
lastChange = "2022-03-15 10:35:24 +0000";
layers = (
{
layerId = m01;
shapes = (
{
closed = 1;
nodes = (
(569,624,o),
(565,638,o),
(556,645,cs),
(546,653,o),
(527,652,o),
(514,637,cs),
(-11,38,ls),
(-21,26,o),
(-17,13,o),
(-8,6,cs),
(3,-3,o),
(20,-3,o),
(33,12,cs),
(556,609,ls)
);
},
{
closed = 1;
nodes = (
(179,650,o),
(160,654,o),
(148,649,cs),
(136,645,o),
(132,632,o),
(139,614,cs),
(363,21,ls),
(370,2,o),
(388,-3,o),
(401,3,cs),
(411,8,o),
(417,20,o),
(411,35,cs),
(186,631,ls)
);
}
);
width = 472;
},
{
layerId = m002;
shapes = (
{
closed = 1;
nodes = (
(613,597,o),
(607,621,o),
(589,638,cs),
(571,655,o),
(531,655,o),
(510,630,cs),
(26,75,ls),
(10,57,o),
(10,31,o),
(29,14,cs),
(49,-6,o),
(89,-5,o),
(110,19,cs),
(592,572,ls)
);
},
{
closed = 1;
nodes = (
(245,648,o),
(211,656,o),
(185,647,cs),
(164,641,o),
(147,622,o),
(160,588,cs),
(368,35,ls),
(379,6,o),
(414,-8,o),
(440,5,cs),
(461,14,o),
(475,35,o),
(465,62,cs),
(256,618,ls)
);
}
);
width = 547;
}
);
unicode = 88;
},
{
glyphname = Y;
lastChange = "2022-03-15 10:36:19 +0000";
layers = (
{
layerId = m01;
shapes = (
{
closed = 1;
nodes = (
(294,382,l),
(200,631,ls),
(193,650,o),
(174,654,o),
(162,649,cs),
(150,645,o),
(146,632,o),
(153,614,cs),
(267,312,l)
);
},
{
closed = 1;
nodes = (
(452,624,o),
(451,638,o),
(442,645,cs),
(431,653,o),
(409,650,o),
(402,635,cs),
(132,38,ls),
(127,26,o),
(126,13,o),
(136,6,cs),
(147,-3,o),
(168,-4,o),
(175,11,cs),
(445,609,ls)
);
}
);
width = 383;
},
{
layerId = m002;
shapes = (
{
closed = 1;
nodes = (
(315,443,l),
(250,618,ls),
(239,648,o),
(205,656,o),
(179,647,cs),
(158,641,o),
(141,622,o),
(154,588,cs),
(257,315,l)
);
},
{
closed = 1;
nodes = (
(486,602,o),
(482,630,o),
(456,645,cs),
(435,656,o),
(398,650,o),
(386,624,cs),
(133,69,ls),
(124,48,o),
(123,29,o),
(142,13,cs),
(162,-3,o),
(208,-8,o),
(219,16,cs),
(475,578,ls)
);
}
);
width = 426;
}
);
unicode = 89;
},
{
glyphname = Z;
lastChange = "2022-03-15 10:38:48 +0000";
layers = (
{
layerId = m01;
shapes = (
{
closed = 1;
nodes = (
(589,624,o),
(585,638,o),
(576,645,cs),
(566,653,o),
(547,652,o),
(534,637,cs),
(9,38,ls),
(-1,26,o),
(3,13,o),
(12,6,cs),
(23,-3,o),
(40,-3,o),
(53,12,cs),
(576,609,ls)
);
},
{
closed = 1;
nodes = (
(564,650,l),
(180,650,ls),
(160,650,o),
(154,639,o),
(154,627,cs),
(154,615,o),
(160,604,o),
(180,604,cs),
(519,604,l)
);
},
{
closed = 1;
nodes = (
(407,0,ls),
(427,0,o),
(433,11,o),
(433,23,cs),
(433,35,o),
(427,46,o),
(407,46,cs),
(75,46,l),
(28,0,l)
);
}
);
width = 512;
},
{
layerId = m002;
shapes = (
{
closed = 1;
nodes = (
(612,591,o),
(611,611,o),
(601,627,cs),
(586,654,o),
(539,659,o),
(514,630,cs),
(26,75,ls),
(-4,40,o),
(27,0,o),
(73,0,cs),
(89,0,o),
(104,12,o),
(111,20,cs),
(596,573,ls)
);
},
{
closed = 1;
nodes = (
(556,650,l),
(205,650,ls),
(174,650,o),
(154,630,o),
(154,603,cs),
(154,576,o),
(174,556,o),
(205,556,cs),
(472,556,l)
);
},
{
closed = 1;
nodes = (
(419,0,ls),
(450,0,o),
(470,20,o),
(470,47,cs),
(470,74,o),
(450,94,o),
(419,94,cs),
(158,94,l),
(71,0,l)
);
}
);
width = 548;
}
);
unicode = 90;
},
{
glyphname = a;
lastChange = "2022-03-15 10:45:26 +0000";
layers = (
{
layerId = m01;
shapes = (
{
closed = 1;
nodes = (
(115,350,o),
(59,271,o),
(30,156,cs),
(11,80,o),
(43,-4,o),
(116,-4,cs),
(202,-4,o),
(251,89,o),
(271,166,cs),
(291,244,o),
(288,350,o),
(205,350,cs)
);
},
{
closed = 1;
nodes = (
(248,304,o),
(232,217,o),
(222,178,cs),
(209,125,o),
(167,41,o),
(128,41,cs),
(72,41,o),
(69,109,o),
(84,169,cs),
(98,226,o),
(147,304,o),
(194,304,cs)
);
},
{
closed = 1;
nodes = (
(326,338,o),
(322,349,o),
(305,350,cs),
(286,351,o),
(276,343,o),
(271,325,cs),
(198,35,ls),
(194,18,o),
(194,0,o),
(216,0,cs),
(241,0,o),
(244,14,o),
(249,32,cs),
(322,322,ls)
);
}
);
width = 339;
},
{
layerId = m002;
shapes = (
{
closed = 1;
nodes = (
(133,350,o),
(65,261,o),
(47,160,cs),
(34,84,o),
(75,-4,o),
(149,-4,cs),
(258,-4,o),
(319,87,o),
(340,166,cs),
(360,244,o),
(345,350,o),
(248,350,cs)
);
},
{
closed = 1;
nodes = (
(266,260,o),
(274,213,o),
(264,179,cs),
(251,134,o),
(222,85,o),
(174,85,cs),
(146,85,o),
(141,125,o),
(149,174,cs),
(157,212,o),
(183,260,o),
(226,260,cs)
);
},
{
closed = 1;
nodes = (
(421,333,o),
(397,348,o),
(373,350,cs),
(346,352,o),
(321,340,o),
(314,311,cs),
(252,59,ls),
(244,27,o),
(259,3,o),
(292,0,cs),
(331,-2,o),
(344,24,o),
(349,44,cs),
(412,297,ls)
);
}
);
width = 436;
}
);
metricLeft = o;
metricRight = n;
unicode = 97;
},
{
glyphname = b;
lastChange = "2022-03-13 05:21:16 +0000";
layers = (
{
layerId = m01;
shapes = (
{
closed = 1;
nodes = (
(212,638,o),
(208,650,o),
(191,650,cs),
(172,650,o),
(162,643,o),
(157,625,cs),
(9,35,ls),
(5,18,o),
(5,0,o),
(27,0,cs),
(52,0,o),
(56,14,o),
(60,32,cs),
(208,622,ls)
);
},
{
closed = 1;
nodes = (
(143,354,o),
(87,275,o),
(58,160,cs),
(39,84,o),
(71,0,o),
(144,0,cs),
(230,0,o),
(279,93,o),
(299,170,cs),
(319,248,o),
(316,354,o),
(233,354,cs)
);
},
{
closed = 1;
nodes = (
(276,308,o),
(260,221,o),
(250,182,cs),
(237,129,o),
(195,45,o),
(156,45,cs),
(100,45,o),
(97,113,o),
(112,173,cs),
(126,230,o),
(175,308,o),
(222,308,cs)
);
}
);
width = 340;
},
{
layerId = m002;
shapes = (
{
closed = 1;
nodes = (
(270,633,o),
(246,648,o),
(222,650,cs),
(195,652,o),
(170,640,o),
(163,611,cs),
(26,59,ls),
(18,27,o),
(33,3,o),
(66,0,cs),
(105,-2,o),
(118,24,o),
(123,44,cs),
(261,597,ls)
);
},
{
closed = 1;
nodes = (
(177,354,o),
(110,265,o),
(92,164,cs),
(79,88,o),
(119,-1,o),
(193,-1,cs),
(302,-1,o),
(363,91,o),
(384,170,cs),
(404,248,o),
(389,354,o),
(292,354,cs)
);
},
{
closed = 1;
nodes = (
(302,264,o),
(295,217,o),
(285,183,cs),
(272,138,o),
(246,89,o),
(214,89,cs),
(164,89,o),
(164,129,o),
(172,178,cs),
(180,216,o),
(207,264,o),
(270,264,cs)
);
}
);
width = 435;
}
);
metricLeft = n;
metricRight = o;
unicode = 98;
},
{
glyphname = c;
lastChange = "2022-03-15 10:50:06 +0000";
layers = (
{
layerId = m01;
shapes = (
{
closed = 1;
nodes = (
(269,129,o),
(258,141,o),
(248,145,cs),
(239,149,o),
(222,145,o),
(216,131,cs),
(196,83,o),
(159,45,o),
(129,45,cs),
(73,45,o),
(70,113,o),
(85,173,cs),
(99,230,o),
(148,308,o),
(195,308,cs),
(220,308,o),
(232,289,o),
(233,265,cs),
(234,252,o),
(250,249,o),
(264,254,cs),
(276,258,o),
(281,271,o),
(279,284,cs),
(272,324,o),
(250,354,o),
(206,354,cs),
(116,354,o),
(60,275,o),
(31,160,cs),
(12,84,o),
(44,0,o),
(117,0,cs),
(185,0,o),
(237,49,o),
(262,112,cs)
);
}
);
width = 293;
},
{
background = {
shapes = (
{
closed = 1;
nodes = (
(244,254,o),
(220,234,o),
(185,217,c),
(105,173,l),
(89,97,l),
(221,156,l),
(256,176,o),
(327,222,o),
(339,275,cs),
(343,299,o),
(316,354,o),
(248,354,cs),
(133,354,o),
(66,265,o),
(48,164,cs),
(35,88,o),
(75,-1,o),
(149,-1,cs),
(241,-1,o),
(296,44,o),
(321,94,cs),
(331,114,o),
(326,139,o),
(297,149,cs),
(269,159,o),
(250,147,o),
(242,130,cs),
(230,105,o),
(203,85,o),
(170,85,cs),
(146,85,o),
(137,129,o),
(145,178,cs),
(153,216,o),
(183,270,o),
(226,270,cs),
(233,270,o),
(240,263,o),
(242,258,cs)
);
}
);
};
layerId = m002;
shapes = (
{
closed = 1;
nodes = (
(333,116,o),
(324,140,o),
(295,150,cs),
(267,160,o),
(245,153,o),
(236,131,cs),
(226,105,o),
(194,89,o),
(170,89,cs),
(146,89,o),
(141,129,o),
(149,178,cs),
(157,216,o),
(183,264,o),
(226,264,cs),
(234,264,o),
(240,261,o),
(244,256,cs),
(256,243,o),
(278,230,o),
(307,242,cs),
(334,253,o),
(344,275,o),
(338,292,cs),
(325,328,o),
(296,354,o),
(248,354,cs),
(133,354,o),
(66,265,o),
(48,164,cs),
(35,88,o),
(75,-1,o),
(149,-1,cs),
(232,-1,o),
(294,40,o),
(320,90,cs)
);
}
);
width = 363;
}
);
metricLeft = o;
unicode = 99;
},
{
glyphname = d;
lastChange = "2022-03-15 10:50:19 +0000";
layers = (
{
layerId = m01;
shapes = (
{
closed = 1;
nodes = (
(228,155,ls),
(211,88,o),
(206,0,o),
(276,0,cs),
(318,0,o),
(351,47,o),
(375,77,cs),
(395,103,o),
(398,109,o),
(399,117,cs),
(400,132,o),
(389,141,o),
(378,143,cs),
(366,145,o),
(358,134,o),
(356,131,cs),
(341,110,ls),
(326,89,o),
(295,46,o),
(278,46,cs),
(259,46,o),
(270,117,o),
(274,133,cs),
(397,622,ls),
(401,638,o),
(397,650,o),
(380,650,cs),
(361,650,o),
(351,643,o),
(346,625,cs)
);
},
{
closed = 1;
nodes = (
(116,354,o),
(60,275,o),
(31,160,cs),
(12,84,o),
(44,0,o),
(117,0,cs),
(203,0,o),
(252,93,o),
(272,170,cs),
(292,248,o),
(289,354,o),
(206,354,cs)
);
},
{
closed = 1;
nodes = (
(249,308,o),
(233,221,o),
(223,182,cs),
(210,129,o),
(168,45,o),
(129,45,cs),
(73,45,o),
(70,113,o),
(85,173,cs),
(99,230,o),
(148,308,o),
(195,308,cs)
);
}
);
width = 414;
},
{
layerId = m002;
shapes = (
{
closed = 1;
nodes = (
(280,167,ls),
(260,87,o),
(268,0,o),
(347,0,cs),
(393,0,o),
(436,19,o),
(462,54,cs),
(481,79,o),
(497,112,o),
(498,126,cs),
(499,142,o),
(486,158,o),
(472,164,cs),
(461,169,o),
(443,172,o),
(431,155,cs),
(417,135,ls),
(410,125,o),
(383,91,o),
(374,91,cs),
(364,91,o),
(365,107,o),
(378,158,cs),
(488,597,ls),
(498,635,o),
(473,650,o),
(449,650,cs),
(422,650,o),
(397,638,o),
(390,611,cs)
);
},
{
closed = 1;
nodes = (
(134,354,o),
(66,265,o),
(48,164,cs),
(35,88,o),
(76,0,o),
(150,0,cs),
(259,0,o),
(320,91,o),
(341,170,cs),
(361,248,o),
(346,354,o),
(249,354,cs)
);
},
{
closed = 1;
nodes = (
(273,264,o),
(281,217,o),
(271,183,cs),
(258,138,o),
(229,90,o),
(180,90,cs),
(147,90,o),
(142,129,o),
(150,178,cs),
(158,216,o),
(184,264,o),
(227,264,cs)
);
}
);
width = 531;
}
);
metricLeft = o;
unicode = 100;
},
{
glyphname = e;
lastChange = "2022-03-15 10:45:26 +0000";
layers = (
{
layerId = m01;
shapes = (
{
closed = 1;
nodes = (
(228,266,o),
(187,239,o),
(138,210,c),
(63,170,l),
(54,109,l),
(166,168,l),
(206,191,o),
(278,233,o),
(278,290,cs),
(278,328,o),
(248,354,o),
(206,354,cs),
(116,354,o),
(60,275,o),
(31,160,cs),
(12,84,o),
(44,0,o),
(117,0,cs),
(185,0,o),
(237,49,o),
(262,112,cs),
(269,129,o),
(258,141,o),
(248,145,cs),
(239,149,o),
(222,145,o),
(216,131,cs),
(196,83,o),
(159,45,o),
(129,45,cs),
(73,45,o),
(70,113,o),
(85,173,cs),
(99,230,o),
(148,308,o),
(195,308,cs),
(212,308,o),
(228,300,o),
(228,287,cs)
);
}
);
width = 318;
},
{
layerId = m002;
shapes = (
{
closed = 1;
nodes = (
(244,254,o),
(220,234,o),
(185,217,c),
(105,173,l),
(89,97,l),
(221,156,l),
(256,176,o),
(327,222,o),
(339,275,cs),
(343,299,o),
(316,354,o),
(248,354,cs),
(133,354,o),
(66,265,o),
(48,164,cs),
(35,88,o),
(75,-1,o),
(149,-1,cs),
(241,-1,o),
(296,44,o),
(321,94,cs),
(331,114,o),
(326,139,o),
(297,149,cs),
(269,159,o),
(250,147,o),
(242,130,cs),
(230,105,o),
(203,85,o),
(170,85,cs),
(146,85,o),
(137,129,o),
(145,178,cs),
(153,216,o),
(183,270,o),
(226,270,cs),
(233,270,o),
(240,263,o),
(242,258,cs)
);
}
);
width = 392;
}
);
metricLeft = o;
metricRight = o;
unicode = 101;
},
{
glyphname = f;
lastChange = "2022-03-15 10:51:59 +0000";
layers = (
{
layerId = m01;
shapes = (
{
closed = 1;
nodes = (
(259,305,o),
(265,316,o),
(265,328,cs),
(265,340,o),
(259,350,o),
(239,350,cs),
(45,350,ls),
(25,350,o),
(19,340,o),
(19,328,cs),
(19,316,o),
(25,305,o),
(45,305,cs),
(239,305,ls)
);
},
{
closed = 1;
nodes = (
(40,22,o),
(38,0,o),
(61,0,cs),
(83,0,o),
(89,13,o),
(94,32,cs),
(214,514,ls),
(224,554,o),
(255,604,o),
(288,604,cs),
(309,604,o),
(328,597,o),
(342,560,cs),
(348,545,o),
(361,539,o),
(375,545,cs),
(390,551,o),
(386,573,o),
(380,589,cs),
(365,630,o),
(329,650,o),
(292,650,cs),
(242,650,o),
(187,611,o),
(165,524,cs),
(44,38,ls)
);
}
);
width = 259;
},
{
background = {
shapes = (
{
closed = 1;
nodes = (
(6,26,o),
(22,-2,o),
(58,-2,cs),
(88,-2,o),
(106,13,o),
(114,44,cs),
(219,466,ls),
(227,498,o),
(244,526,o),
(257,526,cs),
(270,526,o),
(270,526,o),
(279,504,cs),
(290,478,o),
(319,467,o),
(343,477,cs),
(373,488,o),
(373,518,o),
(363,545,cs),
(346,591,o),
(303,615,o),
(261,615,cs),
(205,615,o),
(143,573,o),
(121,486,cs),
(15,61,ls)
);
}
);
};
layerId = m002;
shapes = (
{
closed = 1;
nodes = (
(250,263,o),
(268,283,o),
(268,307,cs),
(268,332,o),
(250,350,o),
(219,350,cs),
(49,350,ls),
(17,350,o),
(-1,332,o),
(-1,307,cs),
(-1,283,o),
(17,263,o),
(49,263,cs),
(219,263,ls)
);
},
{
closed = 1;
nodes = (
(6,26,o),
(22,-2,o),
(58,-2,cs),
(88,-2,o),
(106,13,o),
(114,44,cs),
(228,501,ls),
(236,533,o),
(253,561,o),
(272,561,cs),
(287,561,o),
(306,561,o),
(315,539,cs),
(326,513,o),
(355,502,o),
(379,512,cs),
(409,523,o),
(409,553,o),
(399,580,cs),
(382,626,o),
(333,650,o),
(288,650,cs),
(214,650,o),
(152,608,o),
(130,521,cs),
(15,61,ls)
);
}
);
width = 238;
}
);
unicode = 102;
},
{
glyphname = g;
lastChange = "2022-03-15 10:45:26 +0000";
layers = (
{
layerId = m01;
shapes = (
{
closed = 1;
nodes = (
(167,-87,ls),
(155,-135,o),
(137,-200,o),
(103,-226,cs),
(83,-244,o),
(53,-250,o),
(29,-250,cs),
(0,-250,o),
(-10,-240,o),
(-22,-231,cs),
(-34,-222,o),
(-47,-220,o),
(-58,-229,cs),
(-69,-238,o),
(-72,-253,o),
(-60,-263,cs),
(-41,-280,o),
(-21,-300,o),
(25,-300,cs),
(66,-300,o),
(104,-289,o),
(133,-267,cs),
(174,-235,o),
(200,-164,o),
(218,-91,cs),
(323,328,ls),
(326,340,o),
(315,349,o),
(301,350,cs),
(287,350,o),
(275,341,o),
(272,331,cs)
);
},
{
closed = 1;
nodes = (
(116,354,o),
(60,275,o),
(31,160,cs),
(12,84,o),
(44,0,o),
(117,0,cs),
(203,0,o),
(252,93,o),
(272,170,cs),
(292,248,o),
(289,354,o),
(206,354,cs)
);
},
{
closed = 1;
nodes = (
(249,308,o),
(233,221,o),
(223,182,cs),
(210,129,o),
(168,45,o),
(129,45,cs),
(73,45,o),
(70,113,o),
(85,173,cs),
(99,230,o),
(148,308,o),
(195,308,cs)
);
}
);
width = 339;
},
{
layerId = m002;
shapes = (
{
closed = 1;
nodes = (
(225,-50,ls),
(215,-92,o),
(187,-178,o),
(168,-193,cs),
(149,-207,o),
(126,-210,o),
(109,-210,cs),
(92,-210,o),
(80,-208,o),
(66,-197,cs),
(53,-186,o),
(25,-183,o),
(7,-199,cs),
(-15,-219,o),
(-17,-245,o),
(6,-264,cs),
(24,-280,o),
(58,-300,o),
(103,-300,cs),
(146,-300,o),
(196,-291,o),
(224,-269,cs),
(282,-225,o),
(308,-131,o),
(324,-65,cs),
(415,302,ls),
(421,327,o),
(399,348,o),
(370,350,cs),
(346,352,o),
(320,337,o),
(315,316,cs)
);
},
{
closed = 1;
nodes = (
(134,354,o),
(66,265,o),
(48,164,cs),
(35,88,o),
(76,-1,o),
(150,-1,cs),
(259,-1,o),
(320,91,o),
(341,170,cs),
(361,248,o),
(346,354,o),
(249,354,cs)
);
},
{
closed = 1;
nodes = (
(273,264,o),
(281,217,o),
(271,183,cs),
(258,138,o),
(229,89,o),
(181,89,cs),
(147,89,o),
(142,129,o),
(150,178,cs),
(158,216,o),
(184,264,o),
(227,264,cs)
);
}
);
width = 438;
}
);
metricLeft = o;
metricRight = n;
unicode = 103;
},
{
glyphname = h;
lastChange = "2022-03-15 04:20:40 +0000";
layers = (
{
layerId = m01;
shapes = (
{
closed = 1;
nodes = (
(93,153,o),
(184,309,o),
(222,309,cs),
(274,309,o),
(260,229,o),
(250,188,cs),
(211,34,ls),
(207,17,o),
(207,0,o),
(229,0,cs),
(254,0,o),
(257,13,o),
(262,31,cs),
(300,183,ls),
(319,258,o),
(311,354,o),
(234,354,cs),
(171,354,o),
(131,292,o),
(99,243,c),
(65,97,l)
);
},
{
closed = 1;
nodes = (
(212,638,o),
(208,650,o),
(189,650,cs),
(172,650,o),
(162,643,o),
(157,625,cs),
(9,35,ls),
(5,18,o),
(5,0,o),
(27,0,cs),
(52,0,o),
(56,14,o),
(60,32,cs),
(208,622,ls)
);
}
);
width = 352;
},
{
layerId = m002;
shapes = (
{
closed = 1;
nodes = (
(173,164,o),
(248,265,o),
(277,265,cs),
(301,265,o),
(293,230,o),
(283,189,cs),
(247,46,ls),
(240,18,o),
(266,0,o),
(288,0,cs),
(313,0,o),
(342,14,o),
(349,43,cs),
(385,184,ls),
(405,264,o),
(385,354,o),
(292,354,cs),
(238,354,o),
(199,322,o),
(167,285,c),
(127,99,l)
);
},
{
closed = 1;
nodes = (
(270,633,o),
(246,650,o),
(222,650,cs),
(195,650,o),
(170,640,o),
(163,611,cs),
(27,59,ls),
(19,27,o),
(34,0,o),
(67,0,cs),
(106,0,o),
(119,24,o),
(124,44,cs),
(261,597,ls)
);
}
);
width = 437;
}
);
metricLeft = n;
metricRight = n;
unicode = 104;
},
{
glyphname = i;
lastChange = "2022-03-15 04:20:40 +0000";
layers = (
{
layerId = m01;
shapes = (
{
closed = 1;
nodes = (
(160,441,o),
(173,454,o),
(173,468,cs),
(173,483,o),
(159,494,o),
(145,494,cs),
(129,494,o),
(118,481,o),
(118,468,cs),
(118,454,o),
(130,441,o),
(145,441,cs)
);
},
{
closed = 1;
nodes = (
(138,338,o),
(134,349,o),
(117,350,cs),
(98,351,o),
(88,343,o),
(83,325,cs),
(10,35,ls),
(6,18,o),
(6,0,o),
(28,0,cs),
(53,0,o),
(56,14,o),
(61,32,cs),
(134,322,ls)
);
}
);
width = 155;
},
{
layerId = m002;
shapes = (
{
closed = 1;
nodes = (
(206,422,o),
(231,443,o),
(231,470,cs),
(231,499,o),
(202,516,o),
(179,516,cs),
(151,516,o),
(129,495,o),
(129,470,cs),
(129,443,o),
(152,422,o),
(179,422,cs)
);
},
{
closed = 1;
nodes = (
(195,333,o),
(171,348,o),
(147,350,cs),
(120,352,o),
(95,340,o),
(88,311,cs),
(26,59,ls),
(18,27,o),
(33,3,o),
(66,0,cs),
(105,-2,o),
(118,24,o),
(123,44,cs),
(186,297,ls)
);
}
);
width = 213;
}
);
metricLeft = n;
metricRight = n;
unicode = 105;
},
{
glyphname = j;
lastChange = "2022-03-15 04:20:40 +0000";
layers = (
{
layerId = m01;
shapes = (
{
closed = 1;
nodes = (
(161,440,o),
(174,453,o),
(174,468,cs),
(174,484,o),
(161,495,o),
(146,495,cs),
(131,495,o),
(119,484,o),
(119,468,cs),
(119,453,o),
(131,440,o),
(146,440,cs)
);
},
{
closed = 1;
nodes = (
(-17,-87,ls),
(-29,-135,o),
(-47,-200,o),
(-81,-226,cs),
(-101,-244,o),
(-131,-250,o),
(-155,-250,cs),
(-184,-250,o),
(-194,-240,o),
(-206,-231,cs),
(-218,-222,o),
(-231,-220,o),
(-242,-229,cs),
(-253,-238,o),
(-256,-253,o),
(-244,-263,cs),
(-225,-280,o),
(-205,-300,o),
(-159,-300,cs),
(-118,-300,o),
(-80,-289,o),
(-51,-267,cs),
(-10,-235,o),
(16,-164,o),
(34,-91,cs),
(139,328,ls),
(142,340,o),
(131,350,o),
(117,350,cs),
(103,350,o),
(91,341,o),
(88,331,cs)
);
}
);
width = 156;
},
{
layerId = m002;
shapes = (
{
closed = 1;
nodes = (
(185,419,o),
(209,440,o),
(209,468,cs),
(209,496,o),
(185,515,o),
(158,515,cs),
(131,515,o),
(107,496,o),
(107,468,cs),
(107,440,o),
(131,419,o),
(158,419,cs)
);
},
{
closed = 1;
nodes = (
(-22,-50,ls),
(-32,-92,o),
(-60,-178,o),
(-79,-193,cs),
(-98,-207,o),
(-121,-210,o),
(-138,-210,cs),
(-155,-210,o),
(-167,-208,o),
(-181,-197,cs),
(-194,-186,o),
(-222,-183,o),
(-240,-199,cs),
(-262,-219,o),
(-264,-245,o),
(-241,-264,cs),
(-223,-280,o),
(-189,-300,o),
(-144,-300,cs),
(-101,-300,o),
(-51,-291,o),
(-23,-269,cs),
(35,-225,o),
(61,-131,o),
(77,-65,cs),
(168,302,ls),
(174,327,o),
(152,350,o),
(123,350,cs),
(99,350,o),
(73,337,o),
(68,316,cs)
);
}
);
width = 191;
}
);
metricRight = n;
unicode = 106;
},
{
glyphname = k;
lastChange = "2022-03-13 05:14:23 +0000";
layers = (
{
layerId = m01;
shapes = (
{
closed = 1;
nodes = (
(91,201,l),
(110,218,o),
(155,257,o),
(172,271,cs),
(193,289,o),
(218,308,o),
(238,308,cs),
(257,308,o),
(269,290,o),
(264,266,cs),
(255,222,o),
(226,204,o),
(193,204,cs),
(163,204,o),
(125,261,o),
(114,279,c),
(103,219,l),
(119,183,o),
(164,159,o),
(193,158,cs),
(249,156,o),
(301,190,o),
(313,258,cs),
(319,292,o),
(302,354,o),
(245,354,cs),
(202,354,o),
(158,319,o),
(140,304,cs),
(118,285,l)
);
},
{
closed = 1;
nodes = (
(212,638,o),
(208,649,o),
(191,650,cs),
(172,651,o),
(162,643,o),
(157,625,cs),
(9,35,ls),
(5,18,o),
(5,0,o),
(27,0,cs),
(52,0,o),
(56,14,o),
(60,32,cs),
(208,622,ls)
);
},
{
closed = 1;
nodes = (
(99,233,l),
(93,211,l),
(212,8,ls),
(216,2,o),
(222,0,o),
(227,0,cs),
(234,0,o),
(242,1,o),
(247,6,cs),
(252,11,o),
(256,18,o),
(256,25,cs),
(256,31,o),
(253,37,o),
(250,42,cs),
(156,197,l)
);
}
);
width = 334;
},
{
layerId = m002;
shapes = (
{
closed = 1;
nodes = (
(117,144,l),
(172,199,o),
(224,239,o),
(235,248,cs),
(252,261,o),
(268,266,o),
(276,266,cs),
(282,266,o),
(287,262,o),
(282,245,cs),
(277,225,o),
(258,220,o),
(243,220,cs),
(226,220,o),
(201,227,o),
(153,304,c),
(131,208,l),
(145,164,o),
(199,134,o),
(236,132,cs),
(297,130,o),
(357,168,o),
(369,240,cs),
(378,284,o),
(351,352,o),
(283,352,cs),
(232,352,o),
(185,313,o),
(172,301,cs),
(148,280,l)
);
},
{
closed = 1;
nodes = (
(272,633,o),
(247,648,o),
(223,650,cs),
(196,652,o),
(170,640,o),
(163,611,cs),
(27,59,ls),
(19,27,o),
(35,3,o),
(68,0,cs),
(107,-2,o),
(121,24,o),
(126,44,cs),
(263,597,ls)
);
},
{
closed = 1;
nodes = (
(147,256,l),
(127,192,l),
(226,21,ls),
(235,6,o),
(257,-2,o),
(268,-2,cs),
(281,-2,o),
(298,2,o),
(306,11,cs),
(315,21,o),
(321,32,o),
(321,44,cs),
(321,53,o),
(314,66,o),
(311,71,cs),
(231,211,l)
);
}
);
width = 405;
}
);
metricLeft = n;
metricRight = o;
unicode = 107;
},
{
glyphname = l;
lastChange = "2022-03-15 04:20:40 +0000";
layers = (
{
layerId = m01;
shapes = (
{
closed = 1;
nodes = (
(212,638,o),
(208,650,o),
(191,650,cs),
(172,650,o),
(162,643,o),
(157,625,cs),
(9,35,ls),
(5,18,o),
(5,0,o),
(27,0,cs),
(52,0,o),
(56,14,o),
(60,32,cs),
(208,622,ls)
);
}
);
width = 151;
},
{
layerId = m002;
shapes = (
{
closed = 1;
nodes = (
(270,633,o),
(246,648,o),
(222,650,cs),
(195,652,o),
(170,640,o),
(163,611,cs),
(27,59,ls),
(19,27,o),
(34,3,o),
(67,0,cs),
(106,-2,o),
(119,24,o),
(124,44,cs),
(261,597,ls)
);
}
);
width = 211;
}
);
metricLeft = n;
metricRight = n;
unicode = 108;
},
{
glyphname = m;
lastChange = "2022-03-15 04:20:40 +0000";
layers = (
{
layerId = m01;
shapes = (
{
closed = 1;
nodes = (
(93,153,o),
(184,307,o),
(222,307,cs),
(274,307,o),
(260,229,o),
(250,188,cs),
(211,34,ls),
(207,17,o),
(207,-1,o),
(229,-1,cs),
(254,-1,o),
(257,13,o),
(262,31,cs),
(300,183,ls),
(319,258,o),
(311,353,o),
(234,353,cs),
(171,353,o),
(131,292,o),
(99,243,c),
(65,97,l)
);
},
{
closed = 1;
nodes = (
(137,338,o),
(133,349,o),
(116,350,cs),
(97,351,o),
(87,343,o),
(82,325,cs),
(9,35,ls),
(5,18,o),
(5,0,o),
(27,0,cs),
(52,0,o),
(55,14,o),
(60,32,cs),
(133,322,ls)
);
},
{
closed = 1;
nodes = (
(296,154,o),
(387,308,o),
(425,308,cs),
(477,308,o),
(463,230,o),
(453,189,cs),
(414,35,ls),
(410,18,o),
(410,0,o),
(432,0,cs),
(457,0,o),
(460,14,o),
(465,32,cs),
(503,184,ls),
(522,259,o),
(514,354,o),
(437,354,cs),
(374,354,o),
(334,293,o),
(302,244,c),
(268,98,l)
);
}
);
width = 555;
},
{
layerId = m002;
shapes = (
{
closed = 1;
nodes = (
(172,164,o),
(247,264,o),
(276,264,cs),
(300,264,o),
(292,230,o),
(282,189,cs),
(246,46,ls),
(239,18,o),
(265,0,o),
(287,0,cs),
(312,0,o),
(341,14,o),
(348,43,cs),
(384,184,ls),
(404,264,o),
(384,354,o),
(291,354,cs),
(237,354,o),
(198,322,o),
(166,285,c),
(126,99,l)
);
},
{
closed = 1;
nodes = (
(195,333,o),
(171,348,o),
(147,350,cs),
(120,352,o),
(95,340,o),
(88,311,cs),
(26,59,ls),
(18,27,o),
(33,3,o),
(66,0,cs),
(105,-2,o),
(118,24,o),
(123,44,cs),
(186,297,ls)
);
},
{
closed = 1;
nodes = (
(397,164,o),
(472,264,o),
(501,264,cs),
(525,264,o),
(517,230,o),
(507,189,cs),
(471,46,ls),
(464,18,o),
(490,0,o),
(512,0,cs),
(537,0,o),
(566,14,o),
(573,43,cs),
(609,184,ls),
(629,264,o),
(609,354,o),
(516,354,cs),
(462,354,o),
(413,312,o),
(381,275,c),
(351,99,l)
);
}
);
width = 661;
}
);
metricLeft = n;
metricRight = n;
unicode = 109;
},
{
glyphname = n;
lastChange = "2022-03-15 04:03:32 +0000";
layers = (
{
layerId = m01;
shapes = (
{
closed = 1;
nodes = (
(93,153,o),
(184,307,o),
(222,307,cs),
(274,307,o),
(260,229,o),
(250,188,cs),
(211,34,ls),
(207,17,o),
(207,-1,o),
(229,-1,cs),
(254,-1,o),
(257,13,o),
(262,31,cs),
(300,183,ls),
(319,258,o),
(311,353,o),
(234,353,cs),
(171,353,o),
(131,292,o),
(99,243,c),
(65,97,l)
);
},
{
closed = 1;
nodes = (
(137,338,o),
(133,349,o),
(116,350,cs),
(97,351,o),
(87,343,o),
(82,325,cs),
(9,35,ls),
(5,18,o),
(5,0,o),
(27,0,cs),
(52,0,o),
(55,14,o),
(60,32,cs),
(133,322,ls)
);
}
);
width = 352;
},
{
layerId = m002;
shapes = (
{
closed = 1;
nodes = (
(172,164,o),
(247,264,o),
(276,264,cs),
(300,264,o),
(292,230,o),
(282,189,cs),
(246,46,ls),
(239,18,o),
(265,0,o),
(287,0,cs),
(312,0,o),
(341,14,o),
(348,43,cs),
(384,184,ls),
(404,264,o),
(384,354,o),
(291,354,cs),
(237,354,o),
(198,322,o),
(166,285,c),
(126,99,l)
);
},
{
closed = 1;
nodes = (
(195,333,o),
(171,348,o),
(147,350,cs),
(120,352,o),
(95,340,o),
(88,311,cs),
(26,59,ls),
(18,27,o),
(33,3,o),
(66,0,cs),
(105,-2,o),
(118,24,o),
(123,44,cs),
(186,297,ls)
);
}
);
width = 436;
}
);
unicode = 110;
},
{
glyphname = o;
lastChange = "2022-03-15 10:41:44 +0000";
layers = (
{
layerId = m01;
shapes = (
{
closed = 1;
nodes = (
(116,354,o),
(60,275,o),
(31,160,cs),
(12,84,o),
(44,0,o),
(117,0,cs),
(203,0,o),
(252,93,o),
(272,170,cs),
(292,248,o),
(289,354,o),
(206,354,cs)
);
},
{
closed = 1;
nodes = (
(249,308,o),
(233,221,o),
(223,182,cs),
(210,129,o),
(168,45,o),
(129,45,cs),
(73,45,o),
(70,113,o),
(85,173,cs),
(99,230,o),
(148,308,o),
(195,308,cs)
);
}
);
width = 313;
},
{
layerId = m002;
shapes = (
{
closed = 1;
nodes = (
(133,354,o),
(66,265,o),
(48,164,cs),
(35,88,o),
(75,-1,o),
(149,-1,cs),
(258,-1,o),
(319,91,o),
(340,170,cs),
(360,248,o),
(345,354,o),
(248,354,cs)
);
},
{
closed = 1;
nodes = (
(258,264,o),
(251,217,o),
(241,183,cs),
(228,138,o),
(202,89,o),
(170,89,cs),
(146,89,o),
(141,129,o),
(149,178,cs),
(157,216,o),
(183,264,o),
(226,264,cs)
);
}
);
width = 391;
}
);
unicode = 111;
},
{
glyphname = p;
lastChange = "2022-03-13 05:35:11 +0000";
layers = (
{
layerId = m01;
shapes = (
{
closed = 1;
nodes = (
(137,338,o),
(133,350,o),
(116,350,cs),
(97,350,o),
(87,343,o),
(82,325,cs),
(-66,-265,ls),
(-70,-282,o),
(-70,-300,o),
(-48,-300,cs),
(-23,-300,o),
(-19,-286,o),
(-15,-268,cs),
(133,322,ls)
);
},
{
closed = 1;
nodes = (
(143,354,o),
(87,275,o),
(58,160,cs),
(39,84,o),
(71,0,o),
(144,0,cs),
(230,0,o),
(279,93,o),
(299,170,cs),
(319,248,o),
(316,354,o),
(233,354,cs)
);
},
{
closed = 1;
nodes = (
(276,308,o),
(260,221,o),
(250,182,cs),
(237,129,o),
(195,45,o),
(156,45,cs),
(100,45,o),
(97,113,o),
(112,173,cs),
(126,230,o),
(175,308,o),
(222,308,cs)
);
}
);
width = 340;
},
{
layerId = m002;
shapes = (
{
closed = 1;
nodes = (
(195,333,o),
(171,348,o),
(147,350,cs),
(120,352,o),
(95,340,o),
(88,311,cs),
(-49,-241,ls),
(-57,-273,o),
(-42,-297,o),
(-9,-300,cs),
(30,-302,o),
(43,-276,o),
(48,-256,cs),
(186,297,ls)
);
},
{
closed = 1;
nodes = (
(177,354,o),
(110,265,o),
(92,164,cs),
(79,88,o),
(119,-1,o),
(193,-1,cs),
(302,-1,o),
(363,91,o),
(384,170,cs),
(404,248,o),
(389,354,o),
(292,354,cs)
);
},
{
closed = 1;
nodes = (
(302,264,o),
(295,217,o),
(285,183,cs),
(272,138,o),
(246,89,o),
(214,89,cs),
(164,89,o),
(164,129,o),
(172,178,cs),
(180,216,o),
(207,264,o),
(270,264,cs)
);
}
);
width = 435;
}
);
metricLeft = n;
metricRight = o;
unicode = 112;
},
{
glyphname = q;
lastChange = "2022-03-15 10:57:13 +0000";
layers = (
{
layerId = m01;
shapes = (
{
closed = 1;
nodes = (
(153,-145,ls),
(136,-212,o),
(131,-300,o),
(201,-300,cs),
(243,-300,o),
(276,-253,o),
(300,-223,cs),
(320,-197,o),
(323,-191,o),
(324,-183,cs),
(325,-168,o),
(314,-159,o),
(303,-157,cs),
(291,-155,o),
(283,-166,o),
(281,-169,cs),
(266,-190,ls),
(251,-211,o),
(220,-254,o),
(203,-254,cs),
(184,-254,o),
(195,-183,o),
(199,-167,cs),
(322,322,ls),
(326,338,o),
(322,350,o),
(305,350,cs),
(286,350,o),
(276,343,o),
(271,325,cs)
);
},
{
closed = 1;
nodes = (
(116,354,o),
(60,275,o),
(31,160,cs),
(12,84,o),
(44,0,o),
(117,0,cs),
(203,0,o),
(252,93,o),
(272,170,cs),
(292,248,o),
(289,354,o),
(206,354,cs)
);
},
{
closed = 1;
nodes = (
(249,308,o),
(233,221,o),
(223,182,cs),
(210,129,o),
(168,45,o),
(129,45,cs),
(73,45,o),
(70,113,o),
(85,173,cs),
(99,230,o),
(148,308,o),
(195,308,cs)
);
}
);
width = 344;
},
{
layerId = m002;
shapes = (
{
closed = 1;
nodes = (
(205,-133,ls),
(185,-213,o),
(193,-300,o),
(272,-300,cs),
(318,-300,o),
(361,-281,o),
(387,-246,cs),
(406,-221,o),
(422,-188,o),
(423,-174,cs),
(424,-158,o),
(411,-142,o),
(397,-136,cs),
(386,-131,o),
(368,-128,o),
(356,-145,cs),
(342,-165,ls),
(335,-175,o),
(308,-209,o),
(299,-209,cs),
(289,-209,o),
(290,-193,o),
(303,-142,cs),
(413,297,ls),
(423,335,o),
(398,350,o),
(374,350,cs),
(347,350,o),
(322,338,o),
(315,311,cs)
);
},
{
closed = 1;
nodes = (
(134,354,o),
(66,265,o),
(48,164,cs),
(35,88,o),
(76,0,o),
(150,0,cs),
(259,0,o),
(320,91,o),
(341,170,cs),
(361,248,o),
(346,354,o),
(249,354,cs)
);
},
{
closed = 1;
nodes = (
(273,264,o),
(281,217,o),
(271,183,cs),
(258,138,o),
(229,90,o),
(180,90,cs),
(147,90,o),
(142,129,o),
(150,178,cs),
(158,216,o),
(184,264,o),
(227,264,cs)
);
}
);
width = 455;
}
);
metricLeft = o;
unicode = 113;
},
{
glyphname = r;
lastChange = "2022-03-15 10:53:28 +0000";
layers = (
{
layerId = m01;
shapes = (
{
closed = 1;
nodes = (
(272,267,o),
(288,262,o),
(301,267,cs),
(313,272,o),
(319,281,o),
(317,291,cs),
(309,327,o),
(284,353,o),
(234,353,cs),
(171,353,o),
(131,292,o),
(99,243,c),
(65,97,l),
(93,153,o),
(184,307,o),
(222,307,cs),
(252,307,o),
(265,294,o),
(270,276,cs)
);
},
{
closed = 1;
nodes = (
(137,338,o),
(133,349,o),
(116,350,cs),
(97,351,o),
(87,343,o),
(82,325,cs),
(9,35,ls),
(5,18,o),
(5,0,o),
(27,0,cs),
(52,0,o),
(55,14,o),
(60,32,cs),
(133,322,ls)
);
}
);
width = 290;
},
{
layerId = m002;
shapes = (
{
closed = 1;
nodes = (
(305,242,o),
(325,226,o),
(351,237,cs),
(384,251,o),
(388,274,o),
(384,288,cs),
(372,326,o),
(343,354,o),
(291,354,cs),
(237,354,o),
(198,322,o),
(166,285,c),
(126,99,l),
(172,164,o),
(247,266,o),
(271,266,cs),
(284,266,o),
(298,261,o),
(300,255,cs)
);
},
{
closed = 1;
nodes = (
(195,333,o),
(171,348,o),
(147,350,cs),
(120,352,o),
(95,340,o),
(88,311,cs),
(26,59,ls),
(18,27,o),
(33,3,o),
(66,0,cs),
(105,-2,o),
(118,24,o),
(123,44,cs),
(186,297,ls)
);
}
);
width = 370;
}
);
metricLeft = n;
unicode = 114;
},
{
glyphname = s;
lastChange = "2022-03-15 10:45:26 +0000";
layers = (
{
layerId = m01;
shapes = (
{
closed = 1;
nodes = (
(87,45,o),
(58,66,o),
(50,71,cs),
(34,82,o),
(18,85,o),
(10,71,cs),
(1,56,o),
(10,39,o),
(42,22,cs),
(64,10,o),
(93,0,o),
(133,0,cs),
(190,0,o),
(238,20,o),
(248,80,cs),
(259,147,o),
(207,175,o),
(167,203,cs),
(134,226,o),
(104,241,o),
(108,266,cs),
(112,287,o),
(138,304,o),
(174,304,cs),
(209,304,o),
(247,287,o),
(256,282,cs),
(271,275,o),
(290,271,o),
(299,286,cs),
(307,300,o),
(297,317,o),
(268,331,cs),
(243,342,o),
(207,350,o),
(178,350,cs),
(113,350,o),
(66,310,o),
(58,268,cs),
(49,217,o),
(102,187,o),
(127,171,cs),
(165,147,o),
(206,129,o),
(200,90,cs),
(195,61,o),
(168,47,o),
(132,46,cs)
);
}
);
width = 312;
},
{
layerId = m002;
shapes = (
{
closed = 1;
nodes = (
(134,88,o),
(116,94,o),
(103,100,cs),
(81,111,o),
(45,115,o),
(31,88,cs),
(18,64,o),
(32,34,o),
(68,18,cs),
(96,5,o),
(140,0,o),
(170,0,cs),
(230,0,o),
(287,20,o),
(299,95,cs),
(310,161,o),
(270,177,o),
(225,208,cs),
(201,225,o),
(167,240,o),
(169,251,cs),
(171,261,o),
(188,263,o),
(212,263,cs),
(242,263,o),
(260,254,o),
(264,252,cs),
(289,239,o),
(321,233,o),
(338,261,cs),
(353,286,o),
(342,314,o),
(300,334,cs),
(277,345,o),
(246,353,o),
(216,353,cs),
(152,353,o),
(81,316,o),
(72,262,cs),
(63,208,o),
(122,168,o),
(141,156,cs),
(173,136,o),
(213,121,o),
(210,107,cs),
(207,92,o),
(185,90,o),
(167,88,c)
);
}
);
width = 370;
}
);
metricLeft = o;
metricRight = o;
unicode = 115;
},
{
glyphname = t;
lastChange = "2022-03-15 10:56:41 +0000";
layers = (
{
layerId = m01;
shapes = (
{
closed = 1;
nodes = (
(278,305,o),
(284,316,o),
(284,328,cs),
(284,340,o),
(278,350,o),
(258,350,cs),
(45,350,ls),
(25,350,o),
(19,340,o),
(19,328,cs),
(19,316,o),
(25,305,o),
(45,305,cs),
(258,305,ls)
);
},
{
closed = 1;
nodes = (
(233,552,o),
(220,563,o),
(206,564,cs),
(195,565,o),
(184,558,o),
(181,545,cs),
(52,25,ls),
(48,10,o),
(60,1,o),
(73,0,cs),
(86,-1,o),
(99,5,o),
(103,21,cs),
(229,534,ls)
);
}
);
width = 247;
},
{
layerId = m002;
shapes = (
{
closed = 1;
nodes = (
(278,267,o),
(296,287,o),
(296,311,cs),
(296,336,o),
(278,354,o),
(247,354,cs),
(60,354,ls),
(29,354,o),
(10,336,o),
(10,311,cs),
(10,287,o),
(29,267,o),
(60,267,cs),
(247,267,ls)
);
},
{
closed = 1;
nodes = (
(263,546,o),
(238,562,o),
(211,564,cs),
(189,566,o),
(162,551,o),
(156,528,cs),
(36,48,ls),
(28,16,o),
(54,2,o),
(80,0,cs),
(105,-1,o),
(128,6,o),
(135,32,cs),
(255,513,ls)
);
}
);
width = 264;
}
);
unicode = 116;
},
{
glyphname = u;
lastChange = "2022-03-15 04:20:40 +0000";
layers = (
{
layerId = m01;
shapes = (
{
closed = 1;
nodes = (
(249,197,o),
(158,43,o),
(120,43,cs),
(68,43,o),
(82,121,o),
(92,162,cs),
(131,316,ls),
(135,333,o),
(135,351,o),
(113,351,cs),
(88,351,o),
(85,337,o),
(80,319,cs),
(42,167,ls),
(23,92,o),
(31,-3,o),
(108,-3,cs),
(171,-3,o),
(211,58,o),
(243,107,c),
(277,253,l)
);
},
{
closed = 1;
nodes = (
(205,12,o),
(209,1,o),
(226,0,cs),
(245,-1,o),
(255,7,o),
(260,25,cs),
(333,315,ls),
(337,332,o),
(337,350,o),
(315,350,cs),
(290,350,o),
(287,336,o),
(282,318,cs),
(209,28,ls)
);
}
);
width = 352;
},
{
layerId = m002;
shapes = (
{
closed = 1;
nodes = (
(264,186,o),
(189,86,o),
(160,86,cs),
(136,86,o),
(144,120,o),
(154,161,cs),
(190,304,ls),
(197,332,o),
(171,350,o),
(149,350,cs),
(124,350,o),
(95,336,o),
(88,307,cs),
(52,166,ls),
(32,86,o),
(52,-4,o),
(145,-4,cs),
(199,-4,o),
(238,28,o),
(270,65,c),
(310,251,l)
);
},
{
closed = 1;
nodes = (
(241,17,o),
(265,2,o),
(289,0,cs),
(316,-2,o),
(341,10,o),
(348,39,cs),
(410,291,ls),
(418,323,o),
(403,347,o),
(370,350,cs),
(331,352,o),
(318,326,o),
(313,306,cs),
(250,53,ls)
);
}
);
width = 436;
}
);
metricLeft = n;
metricRight = n;
unicode = 117;
},
{
glyphname = v;
lastChange = "2022-03-15 10:54:19 +0000";
layers = (
{
layerId = m01;
shapes = (
{
closed = 1;
nodes = (
(291,328,o),
(288,340,o),
(278,345,cs),
(270,350,o),
(260,351,o),
(254,349,cs),
(247,346,o),
(242,341,o),
(238,334,cs),
(104,75,l),
(103,0,l),
(119,0,o),
(124,4,o),
(130,16,cs),
(286,318,ls)
);
},
{
closed = 1;
nodes = (
(101,350,o),
(82,352,o),
(70,348,cs),
(56,343,o),
(52,330,o),
(53,320,cs),
(78,19,ls),
(79,6,o),
(90,0,o),
(104,0,c),
(123,75,l),
(103,328,ls)
);
}
);
width = 305;
},
{
layerId = m002;
shapes = (
{
closed = 1;
nodes = (
(315,303,o),
(319,326,o),
(301,337,cs),
(278,352,o),
(258,352,o),
(245,348,cs),
(232,343,o),
(222,335,o),
(216,323,cs),
(98,95,l),
(127,0,l),
(145,0,o),
(162,8,o),
(172,27,cs),
(308,289,ls)
);
},
{
closed = 1;
nodes = (
(148,345,o),
(111,357,o),
(84,347,cs),
(61,338,o),
(52,318,o),
(54,298,cs),
(75,39,ls),
(77,18,o),
(99,0,o),
(129,0,c),
(169,88,l),
(151,309,ls)
);
}
);
width = 335;
}
);
metricRight = n;
unicode = 118;
},
{
glyphname = w;
lastChange = "2022-03-15 10:54:31 +0000";
layers = (
{
layerId = m01;
shapes = (
{
closed = 1;
nodes = (
(297,350,l),
(284,350,o),
(277,344,o),
(271,334,cs),
(107,72,l),
(103,0,l),
(119,0,o),
(124,4,o),
(131,16,cs),
(293,276,l)
);
},
{
closed = 1;
nodes = (
(101,350,o),
(82,352,o),
(70,348,cs),
(56,343,o),
(52,330,o),
(53,320,cs),
(79,18,ls),
(80,5,o),
(90,0,o),
(104,0,c),
(124,74,l),
(103,328,ls)
);
},
{
closed = 1;
nodes = (
(556,322,o),
(557,336,o),
(547,344,cs),
(538,351,o),
(527,351,o),
(521,349,cs),
(514,346,o),
(509,341,o),
(505,334,cs),
(340,72,l),
(337,0,l),
(353,0,o),
(358,4,o),
(365,16,cs),
(551,314,ls)
);
},
{
closed = 1;
nodes = (
(318,344,o),
(306,350,o),
(296,350,c),
(277,277,l),
(313,18,ls),
(315,5,o),
(324,0,o),
(338,0,c),
(356,74,l),
(320,328,ls)
);
}
);
width = 558;
},
{
layerId = m002;
shapes = (
{
closed = 1;
nodes = (
(299,350,l),
(276,350,o),
(258,344,o),
(247,327,cs),
(100,94,l),
(112,0,l),
(139,0,o),
(161,10,o),
(171,25,cs),
(317,259,l)
);
},
{
closed = 1;
nodes = (
(148,348,o),
(106,355,o),
(84,347,cs),
(61,337,o),
(51,317,o),
(53,298,cs),
(76,38,ls),
(79,8,o),
(98,0,o),
(113,0,c),
(169,87,l),
(151,309,ls)
);
},
{
closed = 1;
nodes = (
(551,306,o),
(549,325,o),
(531,337,cs),
(510,351,o),
(488,352,o),
(476,347,cs),
(466,343,o),
(456,334,o),
(449,323,cs),
(304,94,l),
(338,0,l),
(355,0,o),
(364,5,o),
(376,25,cs),
(542,292,ls)
);
},
{
closed = 1;
nodes = (
(337,344,o),
(315,350,o),
(297,350,c),
(249,267,l),
(281,38,ls),
(285,8,o),
(311,0,o),
(340,0,c),
(372,88,l),
(341,314,ls)
);
}
);
width = 565;
}
);
metricRight = o;
unicode = 119;
},
{
glyphname = x;
lastChange = "2022-03-15 10:54:50 +0000";
layers = (
{
layerId = m01;
shapes = (
{
closed = 1;
nodes = (
(372,313,o),
(376,320,o),
(376,327,cs),
(376,333,o),
(374,339,o),
(369,344,cs),
(364,349,o),
(357,350,o),
(350,350,cs),
(343,349,o),
(336,346,o),
(331,341,cs),
(-8,44,ls),
(-16,37,o),
(-17,28,o),
(-16,21,cs),
(-15,16,o),
(-12,11,o),
(-8,6,cs),
(-4,2,o),
(1,0,o),
(8,0,cs),
(16,0,o),
(24,5,o),
(29,10,cs),
(367,308,ls)
);
},
{
closed = 1;
nodes = (
(100,345,o),
(93,350,o),
(85,350,cs),
(78,350,o),
(72,347,o),
(67,343,cs),
(62,339,o),
(59,333,o),
(58,327,cs),
(58,321,o),
(61,314,o),
(64,309,cs),
(257,8,ls),
(261,2,o),
(267,0,o),
(272,0,cs),
(279,0,o),
(287,1,o),
(292,6,cs),
(297,11,o),
(301,18,o),
(301,25,cs),
(301,31,o),
(298,37,o),
(295,42,cs),
(105,338,ls)
);
}
);
width = 359;
},
{
layerId = m002;
shapes = (
{
closed = 1;
nodes = (
(391,278,o),
(399,289,o),
(399,306,cs),
(399,317,o),
(395,328,o),
(385,337,cs),
(377,346,o),
(361,350,o),
(346,350,cs),
(337,350,o),
(322,345,o),
(313,337,cs),
(20,81,ls),
(7,70,o),
(3,55,o),
(5,40,cs),
(6,30,o),
(11,23,o),
(18,14,cs),
(25,6,o),
(39,0,o),
(53,0,cs),
(67,0,o),
(82,7,o),
(92,16,cs),
(383,271,ls)
);
},
{
closed = 1;
nodes = (
(150,343,o),
(134,350,o),
(120,350,cs),
(107,350,o),
(93,345,o),
(85,337,cs),
(76,330,o),
(71,321,o),
(69,308,cs),
(68,298,o),
(72,286,o),
(76,280,cs),
(247,21,ls),
(254,11,o),
(266,0,o),
(278,0,cs),
(293,0,o),
(310,5,o),
(320,15,cs),
(330,24,o),
(335,36,o),
(335,48,cs),
(335,57,o),
(332,66,o),
(326,75,cs),
(159,329,ls)
);
}
);
width = 403;
}
);
unicode = 120;
},
{
glyphname = y;
lastChange = "2022-03-15 04:20:40 +0000";
layers = (
{
layerId = m01;
shapes = (
{
closed = 1;
nodes = (
(249,197,o),
(158,43,o),
(120,43,cs),
(68,43,o),
(82,121,o),
(92,162,cs),
(131,316,ls),
(135,333,o),
(135,351,o),
(113,351,cs),
(88,351,o),
(85,337,o),
(80,319,cs),
(42,167,ls),
(23,92,o),
(31,-3,o),
(108,-3,cs),
(171,-3,o),
(211,58,o),
(243,107,c),
(277,253,l)
);
},
{
closed = 1;
nodes = (
(180,-87,ls),
(168,-135,o),
(150,-200,o),
(116,-226,cs),
(96,-244,o),
(66,-250,o),
(42,-250,cs),
(13,-250,o),
(3,-240,o),
(-9,-231,cs),
(-21,-222,o),
(-34,-220,o),
(-45,-229,cs),
(-56,-238,o),
(-59,-253,o),
(-47,-263,cs),
(-28,-280,o),
(-8,-300,o),
(38,-300,cs),
(79,-300,o),
(117,-289,o),
(146,-267,cs),
(187,-235,o),
(213,-164,o),
(231,-91,cs),
(336,328,ls),
(339,340,o),
(328,350,o),
(314,350,cs),
(300,350,o),
(288,341,o),
(285,331,cs)
);
}
);
width = 352;
},
{
layerId = m002;
shapes = (
{
closed = 1;
nodes = (
(264,186,o),
(189,86,o),
(160,86,cs),
(136,86,o),
(144,120,o),
(154,161,cs),
(190,304,ls),
(197,332,o),
(171,350,o),
(149,350,cs),
(124,350,o),
(95,336,o),
(88,307,cs),
(52,166,ls),
(32,86,o),
(52,-4,o),
(145,-4,cs),
(199,-4,o),
(238,28,o),
(270,65,c),
(310,251,l)
);
},
{
closed = 1;
nodes = (
(223,-50,ls),
(213,-92,o),
(185,-178,o),
(166,-193,cs),
(147,-207,o),
(124,-210,o),
(107,-210,cs),
(90,-210,o),
(78,-208,o),
(64,-197,cs),
(51,-186,o),
(23,-183,o),
(5,-199,cs),
(-17,-219,o),
(-19,-245,o),
(4,-264,cs),
(22,-280,o),
(56,-300,o),
(101,-300,cs),
(144,-300,o),
(194,-291,o),
(222,-269,cs),
(280,-225,o),
(306,-131,o),
(322,-65,cs),
(413,302,ls),
(419,327,o),
(397,350,o),
(368,350,cs),
(344,350,o),
(318,337,o),
(313,316,cs)
);
}
);
width = 436;
}
);
metricLeft = n;
metricRight = n;
unicode = 121;
},
{
glyphname = z;
lastChange = "2022-03-15 10:55:25 +0000";
layers = (
{
layerId = m01;
shapes = (
{
closed = 1;
nodes = (
(286,0,ls),
(306,0,o),
(312,13,o),
(312,25,cs),
(312,37,o),
(306,50,o),
(286,50,cs),
(60,50,l),
(11,0,l)
);
},
{
closed = 1;
nodes = (
(358,350,l),
(84,350,ls),
(64,350,o),
(58,337,o),
(58,325,cs),
(58,313,o),
(64,300,o),
(84,300,cs),
(311,300,l)
);
},
{
closed = 1;
nodes = (
(378,313,o),
(382,320,o),
(382,327,cs),
(382,333,o),
(380,339,o),
(375,344,cs),
(370,349,o),
(363,350,o),
(356,350,cs),
(349,349,o),
(342,346,o),
(337,341,cs),
(-2,44,ls),
(-10,37,o),
(-11,28,o),
(-10,21,cs),
(-9,16,o),
(-6,11,o),
(-2,6,cs),
(2,2,o),
(7,0,o),
(14,0,cs),
(22,0,o),
(30,5,o),
(35,10,cs),
(373,308,ls)
);
}
);
width = 370;
},
{
layerId = m002;
shapes = (
{
closed = 1;
nodes = (
(284,0,ls),
(316,0,o),
(334,21,o),
(334,46,cs),
(334,70,o),
(316,90,o),
(284,90,cs),
(139,90,l),
(49,0,l)
);
},
{
closed = 1;
nodes = (
(353,350,l),
(119,350,ls),
(87,350,o),
(69,329,o),
(69,304,cs),
(69,280,o),
(87,260,o),
(119,260,cs),
(264,260,l)
);
},
{
closed = 1;
nodes = (
(391,278,o),
(399,289,o),
(399,306,cs),
(399,317,o),
(395,328,o),
(385,337,cs),
(377,346,o),
(361,350,o),
(346,350,cs),
(337,350,o),
(322,345,o),
(313,337,cs),
(20,81,ls),
(7,70,o),
(3,55,o),
(5,40,cs),
(6,30,o),
(11,23,o),
(18,14,cs),
(25,6,o),
(39,0,o),
(53,0,cs),
(67,0,o),
(82,7,o),
(92,16,cs),
(383,271,ls)
);
}
);
width = 403;
}
);
unicode = 122;
},
{
glyphname = zero;
lastChange = "2022-03-15 09:38:25 +0000";
layers = (
{
layerId = m01;
shapes = (
{
closed = 1;
nodes = (
(327,-4,o),
(435,230,o),
(465,357,cs),
(494,477,o),
(447,568,o),
(341,568,cs),
(168,568,o),
(104,277,o),
(83,194,cs),
(55,81,o),
(111,-4,o),
(198,-4,cs)
);
},
{
closed = 1;
nodes = (
(154,42,o),
(107,84,o),
(133,189,cs),
(156,279,o),
(222,522,o),
(343,522,cs),
(408,522,o),
(441,465,o),
(415,360,cs),
(379,218,o),
(268,42,o),
(197,42,cs)
);
}
);
width = 497;
},
{
layerId = m002;
shapes = (
{
closed = 1;
nodes = (
(362,-5,o),
(511,236,o),
(511,399,cs),
(511,469,o),
(480,568,o),
(365,568,cs),
(176,568,o),
(82,278,o),
(82,168,cs),
(82,92,o),
(121,-7,o),
(209,-6,cs)
);
},
{
closed = 1;
nodes = (
(213,87,o),
(181,108,o),
(181,164,cs),
(181,269,o),
(267,475,o),
(367,475,cs),
(403,475,o),
(411,449,o),
(411,401,cs),
(411,242,o),
(284,87,o),
(239,87,cs)
);
}
);
width = 544;
}
);
unicode = 48;
},
{
glyphname = one;
lastChange = "2022-03-15 09:38:39 +0000";
layers = (
{
layerId = m01;
shapes = (
{
closed = 1;
nodes = (
(370,559,o),
(360,568,o),
(347,568,cs),
(334,568,o),
(319,563,o),
(315,547,cs),
(186,30,ls),
(181,10,o),
(193,0,o),
(206,0,cs),
(218,0,o),
(232,6,o),
(236,22,cs),
(366,543,ls)
);
}
);
width = 497;
},
{
layerId = m002;
shapes = (
{
closed = 1;
nodes = (
(416,546,o),
(393,566,o),
(366,568,cs),
(343,570,o),
(317,557,o),
(310,530,cs),
(191,55,ls),
(183,25,o),
(206,2,o),
(234,0,cs),
(256,-1,o),
(280,11,o),
(287,38,cs),
(408,516,ls)
);
}
);
width = 544;
}
);
unicode = 49;
},
{
glyphname = two;
lastChange = "2022-03-15 09:38:50 +0000";
layers = (
{
layerId = m01;
shapes = (
{
closed = 1;
nodes = (
(126,49,l),
(192,113,o),
(345,263,o),
(358,278,cs),
(483,431,o),
(494,501,o),
(415,549,cs),
(346,591,o),
(227,558,o),
(164,505,cs),
(140,485,o),
(144,472,o),
(152,463,cs),
(160,454,o),
(176,451,o),
(201,471,cs),
(253,513,o),
(349,531,o),
(392,505,cs),
(442,475,o),
(389,393,o),
(337,332,cs),
(311,301,o),
(184,177,o),
(40,35,cs),
(21,16,o),
(34,0,o),
(56,0,c),
(77,0,l)
);
},
{
closed = 1;
nodes = (
(330,0,ls),
(350,0,o),
(356,13,o),
(356,25,cs),
(356,37,o),
(350,50,o),
(330,50,cs),
(75,50,l),
(75,0,l)
);
}
);
width = 497;
},
{
layerId = m002;
shapes = (
{
closed = 1;
nodes = (
(187,50,l),
(241,109,o),
(384,263,o),
(395,275,cs),
(514,420,o),
(524,494,o),
(436,547,cs),
(365,592,o),
(246,558,o),
(186,507,cs),
(156,482,o),
(152,458,o),
(172,436,cs),
(184,422,o),
(215,412,o),
(252,440,cs),
(293,474,o),
(358,486,o),
(388,468,cs),
(410,456,o),
(379,401,o),
(333,352,cs),
(309,326,o),
(191,198,o),
(70,69,cs),
(36,33,o),
(66,-2,o),
(104,-2,cs),
(134,-2,l)
);
},
{
closed = 1;
nodes = (
(342,-2,ls),
(373,-2,o),
(392,19,o),
(392,44,cs),
(392,68,o),
(373,90,o),
(342,90,cs),
(216,90,l),
(127,-2,l)
);
}
);
width = 544;
}
);
unicode = 50;
},
{
glyphname = three;
lastChange = "2022-03-15 09:39:02 +0000";
layers = (
{
layerId = m01;
shapes = (
{
closed = 1;
nodes = (
(236,295,o),
(268,301,o),
(296,301,cs),
(341,301,o),
(366,249,o),
(356,208,cs),
(332,110,o),
(268,47,o),
(180,47,cs),
(156,47,o),
(134,53,o),
(117,66,cs),
(93,84,o),
(79,72,o),
(74,65,cs),
(69,58,o),
(64,45,o),
(89,25,cs),
(113,5,o),
(145,-4,o),
(179,-4,cs),
(293,-4,o),
(374,82,o),
(406,209,cs),
(424,281,o),
(360,350,o),
(291,350,cs),
(255,350,o),
(218,344,o),
(178,324,c),
(194,275,l)
);
},
{
closed = 1;
nodes = (
(466,568,l),
(219,568,ls),
(199,568,o),
(193,555,o),
(193,543,cs),
(193,531,o),
(199,518,o),
(219,518,cs),
(419,518,l)
);
},
{
closed = 1;
nodes = (
(486,530,o),
(490,538,o),
(490,545,cs),
(490,551,o),
(488,557,o),
(483,562,cs),
(478,567,o),
(471,568,o),
(464,568,cs),
(457,567,o),
(450,563,o),
(445,559,cs),
(159,311,ls),
(151,304,o),
(150,295,o),
(151,288,cs),
(152,283,o),
(155,278,o),
(159,273,cs),
(163,269,o),
(168,267,o),
(175,267,cs),
(183,267,o),
(191,272,o),
(196,277,cs),
(481,526,ls)
);
}
);
width = 497;
},
{
layerId = m002;
shapes = (
{
closed = 1;
nodes = (
(247,255,o),
(281,265,o),
(306,265,cs),
(340,265,o),
(348,250,o),
(348,219,cs),
(348,143,o),
(263,87,o),
(209,87,cs),
(178,87,o),
(169,89,o),
(157,98,cs),
(125,123,o),
(92,110,o),
(79,92,cs),
(68,74,o),
(66,51,o),
(98,26,cs),
(123,4,o),
(159,-4,o),
(209,-4,cs),
(308,-4,o),
(446,94,o),
(446,220,cs),
(446,300,o),
(388,356,o),
(302,356,cs),
(261,356,o),
(211,343,o),
(161,316,c),
(190,229,l)
);
},
{
closed = 1;
nodes = (
(472,568,l),
(233,568,ls),
(201,568,o),
(183,547,o),
(183,522,cs),
(183,498,o),
(201,478,o),
(233,478,cs),
(364,478,l)
);
},
{
closed = 1;
nodes = (
(514,499,o),
(521,511,o),
(521,524,cs),
(521,536,o),
(517,546,o),
(507,556,cs),
(499,564,o),
(484,568,o),
(470,568,cs),
(457,567,o),
(444,560,o),
(436,553,cs),
(159,312,ls),
(145,300,o),
(141,286,o),
(143,270,cs),
(145,262,o),
(149,254,o),
(155,247,cs),
(162,237,o),
(177,232,o),
(191,232,cs),
(204,232,o),
(220,238,o),
(228,247,c),
(504,490,ls)
);
}
);
width = 544;
}
);
unicode = 51;
},
{
glyphname = four;
lastChange = "2022-03-15 09:39:14 +0000";
layers = (
{
layerId = m01;
shapes = (
{
closed = 1;
nodes = (
(220,556,o),
(209,567,o),
(197,568,cs),
(185,569,o),
(171,564,o),
(166,546,cs),
(67,161,ls),
(64,149,o),
(73,136,o),
(91,135,cs),
(107,134,o),
(115,146,o),
(118,158,cs),
(216,539,ls)
);
},
{
closed = 1;
nodes = (
(314,295,o),
(303,307,o),
(291,307,cs),
(279,307,o),
(263,300,o),
(260,287,cs),
(195,32,ls),
(190,12,o),
(202,0,o),
(215,0,cs),
(227,0,o),
(240,4,o),
(245,23,cs),
(309,276,ls)
);
},
{
closed = 1;
nodes = (
(396,135,ls),
(412,135,o),
(422,146,o),
(422,158,cs),
(422,170,o),
(412,180,o),
(396,180,cs),
(119,180,l),
(89,135,l)
);
}
);
width = 497;
},
{
layerId = m002;
shapes = (
{
closed = 1;
nodes = (
(274,542,o),
(251,565,o),
(224,567,cs),
(201,568,o),
(176,557,o),
(169,528,cs),
(77,167,ls),
(71,143,o),
(92,118,o),
(122,116,cs),
(148,114,o),
(169,130,o),
(175,155,cs),
(266,512,ls)
);
},
{
closed = 1;
nodes = (
(371,288,o),
(351,307,o),
(327,314,cs),
(304,320,o),
(274,309,o),
(266,278,cs),
(210,56,ls),
(202,25,o),
(221,3,o),
(248,-1,cs),
(271,-5,o),
(298,7,o),
(306,38,cs),
(363,259,ls)
);
},
{
closed = 1;
nodes = (
(405,116,ls),
(433,116,o),
(455,136,o),
(455,160,cs),
(455,185,o),
(433,203,o),
(405,203,cs),
(177,203,l),
(116,116,l)
);
}
);
width = 544;
}
);
unicode = 52;
},
{
glyphname = five;
lastChange = "2022-03-15 09:39:26 +0000";
layers = (
{
layerId = m01;
shapes = (
{
closed = 1;
nodes = (
(189,299,o),
(217,304,o),
(242,304,cs),
(321,304,o),
(355,241,o),
(355,192,cs),
(355,121,o),
(295,43,o),
(224,43,cs),
(157,43,o),
(127,80,o),
(113,93,cs),
(106,100,o),
(99,102,o),
(92,102,cs),
(79,102,o),
(68,93,o),
(68,80,cs),
(68,72,o),
(72,63,o),
(81,54,cs),
(102,34,o),
(143,-3,o),
(227,-3,cs),
(329,-3,o),
(405,97,o),
(405,193,cs),
(405,276,o),
(341,354,o),
(239,354,cs),
(211,354,o),
(183,349,o),
(148,337,c),
(152,288,l)
);
},
{
closed = 1;
nodes = (
(219,566,l),
(197,566,o),
(188,562,o),
(183,541,cs),
(126,314,ls),
(122,299,o),
(134,289,o),
(147,288,cs),
(159,287,o),
(173,294,o),
(177,310,cs),
(234,538,l)
);
},
{
closed = 1;
nodes = (
(431,521,ls),
(451,521,o),
(457,531,o),
(457,543,cs),
(457,555,o),
(451,566,o),
(431,566,cs),
(217,566,l),
(217,521,l)
);
}
);
width = 497;
},
{
layerId = m002;
shapes = (
{
closed = 1;
nodes = (
(212,258,o),
(237,264,o),
(263,264,cs),
(315,264,o),
(335,228,o),
(335,190,cs),
(335,135,o),
(296,84,o),
(248,84,cs),
(204,84,o),
(186,105,o),
(170,119,cs),
(159,130,o),
(144,135,o),
(132,135,cs),
(110,135,o),
(84,119,o),
(84,92,cs),
(84,79,o),
(90,65,o),
(102,53,cs),
(117,38,o),
(162,-4,o),
(250,-4,cs),
(356,-4,o),
(433,96,o),
(433,191,cs),
(433,275,o),
(366,356,o),
(261,356,cs),
(245,356,o),
(234,354,o),
(225,350,c),
(192,250,l)
);
},
{
closed = 1;
nodes = (
(253,566,l),
(219,567,o),
(201,561,o),
(192,524,cs),
(136,303,ls),
(129,274,o),
(150,253,o),
(178,250,cs),
(201,248,o),
(225,262,o),
(232,288,cs),
(291,521,l)
);
},
{
closed = 1;
nodes = (
(436,476,ls),
(467,476,o),
(485,496,o),
(485,521,cs),
(485,545,o),
(467,566,o),
(436,566,cs),
(251,566,l),
(270,476,l)
);
}
);
width = 544;
}
);
unicode = 53;
},
{
glyphname = six;
lastChange = "2022-03-15 09:39:38 +0000";
layers = (
{
layerId = m01;
shapes = (
{
closed = 1;
nodes = (
(125,209,o),
(159,288,o),
(229,387,cs),
(256,425,o),
(302,471,o),
(377,523,cs),
(388,530,o),
(392,540,o),
(392,548,cs),
(391,559,o),
(383,568,o),
(370,568,cs),
(364,568,o),
(357,566,o),
(349,562,cs),
(302,535,o),
(219,460,o),
(185,412,cs),
(117,316,o),
(76,213,o),
(76,113,c),
(125,113,l)
);
},
{
closed = 1;
nodes = (
(76,53,o),
(124,0,o),
(192,0,cs),
(294,0,o),
(402,149,o),
(402,257,cs),
(402,321,o),
(365,354,o),
(293,354,cs),
(206,354,o),
(144,306,o),
(109,244,c),
(76,114,l)
);
},
{
closed = 1;
nodes = (
(157,50,o),
(126,78,o),
(126,135,cs),
(126,215,o),
(187,303,o),
(290,303,cs),
(331,303,o),
(352,289,o),
(352,251,cs),
(352,173,o),
(260,50,o),
(190,50,cs)
);
}
);
width = 497;
},
{
layerId = m002;
shapes = (
{
closed = 1;
nodes = (
(184,188,o),
(206,257,o),
(270,349,cs),
(294,382,o),
(348,441,o),
(411,485,cs),
(427,496,o),
(435,510,o),
(435,526,cs),
(433,549,o),
(414,568,o),
(389,568,cs),
(380,568,o),
(366,565,o),
(356,559,cs),
(310,533,o),
(218,441,o),
(187,398,cs),
(120,302,o),
(93,219,o),
(93,118,c),
(190,97,l)
);
},
{
closed = 1;
nodes = (
(94,46,o),
(141,0,o),
(217,0,cs),
(324,0,o),
(431,141,o),
(431,247,cs),
(431,317,o),
(387,354,o),
(322,354,cs),
(218,354,o),
(156,305,o),
(122,243,c),
(93,118,l)
);
},
{
closed = 1;
nodes = (
(201,90,o),
(190,100,o),
(190,140,cs),
(190,203,o),
(231,263,o),
(306,263,cs),
(329,263,o),
(334,251,o),
(334,227,cs),
(334,180,o),
(266,90,o),
(219,90,cs)
);
}
);
width = 544;
}
);
unicode = 54;
},
{
glyphname = seven;
lastChange = "2022-03-15 09:39:50 +0000";
layers = (
{
layerId = m01;
shapes = (
{
closed = 1;
nodes = (
(418,554,o),
(413,567,o),
(393,568,cs),
(382,569,o),
(370,562,o),
(367,551,cs),
(236,28,ls),
(231,10,o),
(242,1,o),
(255,0,cs),
(267,-1,o),
(281,6,o),
(285,24,cs),
(415,542,ls)
);
},
{
closed = 1;
nodes = (
(394,568,l),
(147,568,ls),
(129,568,o),
(120,557,o),
(120,546,cs),
(120,534,o),
(129,523,o),
(147,523,cs),
(394,523,l)
);
}
);
width = 498;
},
{
layerId = m002;
shapes = (
{
closed = 1;
nodes = (
(465,541,o),
(448,566,o),
(414,568,cs),
(393,570,o),
(369,557,o),
(363,535,cs),
(242,54,ls),
(234,23,o),
(257,2,o),
(284,0,cs),
(307,-2,o),
(332,11,o),
(339,39,cs),
(459,516,ls)
);
},
{
closed = 1;
nodes = (
(416,568,l),
(173,568,ls),
(143,568,o),
(122,546,o),
(122,523,cs),
(122,498,o),
(143,478,o),
(173,478,cs),
(368,478,l)
);
}
);
width = 545;
}
);
unicode = 55;
},
{
glyphname = eight;
lastChange = "2022-03-15 09:40:01 +0000";
layers = (
{
layerId = m01;
shapes = (
{
closed = 1;
nodes = (
(248,332,l),
(177,290,o),
(120,243,o),
(99,151,cs),
(86,93,o),
(126,-4,o),
(223,-4,cs),
(327,-4,o),
(370,82,o),
(386,147,cs),
(403,215,o),
(364,274,o),
(337,301,cs),
(321,317,l)
);
},
{
closed = 1;
nodes = (
(323,246,o),
(347,201,o),
(335,151,cs),
(324,107,o),
(286,42,o),
(229,42,cs),
(179,42,o),
(140,103,o),
(151,152,cs),
(164,211,o),
(216,261,o),
(274,291,c),
(300,267,ls)
);
},
{
closed = 1;
nodes = (
(397,370,o),
(445,382,o),
(462,451,cs),
(480,525,o),
(401,568,o),
(342,568,cs),
(269,568,o),
(197,541,o),
(175,454,cs),
(161,398,o),
(228,342,o),
(254,315,c),
(297,341,l),
(274,363,o),
(216,409,o),
(226,451,cs),
(240,508,o),
(292,522,o),
(333,522,cs),
(369,522,o),
(423,495,o),
(412,451,cs),
(402,411,o),
(322,376,o),
(247,329,c),
(316,314,l)
);
}
);
width = 497;
},
{
layerId = m002;
shapes = (
{
closed = 1;
nodes = (
(266,338,l),
(197,298,o),
(135,252,o),
(115,159,cs),
(99,94,o),
(143,-4,o),
(247,-4,cs),
(356,-4,o),
(403,84,o),
(418,145,cs),
(436,216,o),
(396,274,o),
(368,302,cs),
(349,321,l)
);
},
{
closed = 1;
nodes = (
(315,224,o),
(330,195,o),
(321,160,cs),
(312,124,o),
(288,83,o),
(255,83,cs),
(227,83,o),
(205,116,o),
(212,150,cs),
(222,190,o),
(251,222,o),
(290,246,c),
(299,238,ls)
);
},
{
closed = 1;
nodes = (
(410,323,o),
(471,348,o),
(489,426,cs),
(510,509,o),
(446,568,o),
(358,568,cs),
(284,568,o),
(209,529,o),
(186,440,cs),
(170,376,o),
(234,305,o),
(271,266,c),
(355,315,l),
(313,357,o),
(278,404,o),
(283,426,cs),
(292,462,o),
(319,480,o),
(351,480,cs),
(375,480,o),
(399,458,o),
(394,438,cs),
(386,408,o),
(291,359,o),
(208,298,c),
(337,271,l)
);
}
);
width = 544;
}
);
unicode = 56;
},
{
glyphname = nine;
lastChange = "2022-03-15 09:40:13 +0000";
layers = (
{
layerId = m01;
shapes = (
{
closed = 1;
nodes = (
(469,557,o),
(464,568,o),
(447,568,cs),
(428,568,o),
(419,562,o),
(416,548,cs),
(287,29,ls),
(283,13,o),
(294,0,o),
(306,0,cs),
(319,-1,o),
(332,6,o),
(336,21,cs),
(466,545,ls)
);
},
{
closed = 1;
nodes = (
(258,568,o),
(202,489,o),
(173,374,cs),
(154,298,o),
(186,214,o),
(259,214,cs),
(345,214,o),
(394,307,o),
(414,384,cs),
(434,462,o),
(431,568,o),
(348,568,cs)
);
},
{
closed = 1;
nodes = (
(391,522,o),
(375,435,o),
(365,396,cs),
(352,343,o),
(310,259,o),
(271,259,cs),
(215,259,o),
(212,327,o),
(227,387,cs),
(241,444,o),
(290,522,o),
(337,522,cs)
);
}
);
width = 497;
},
{
layerId = m002;
shapes = (
{
closed = 1;
nodes = (
(509,545,o),
(491,568,o),
(460,568,cs),
(432,568,o),
(413,556,o),
(407,532,cs),
(289,54,ls),
(282,25,o),
(304,1,o),
(330,0,cs),
(353,-2,o),
(378,12,o),
(384,36,cs),
(503,519,ls)
);
},
{
closed = 1;
nodes = (
(270,568,o),
(213,487,o),
(186,380,cs),
(166,300,o),
(203,210,o),
(288,210,cs),
(382,210,o),
(431,306,o),
(449,377,cs),
(469,451,o),
(467,568,o),
(366,568,cs)
);
},
{
closed = 1;
nodes = (
(371,478,o),
(362,431,o),
(354,398,cs),
(343,352,o),
(315,296,o),
(298,296,cs),
(275,296,o),
(274,329,o),
(286,378,cs),
(298,426,o),
(331,478,o),
(356,478,cs)
);
}
);
width = 544;
}
);
unicode = 57;
},
{
glyphname = .notdef;
lastChange = "2022-03-14 01:19:47 +0000";
layers = (
{
layerId = m01;
shapes = (
{
closed = 1;
nodes = (
(459,0,o),
(469,12,o),
(473,27,cs),
(634,673,ls),
(638,689,o),
(630,700,o),
(616,700,cs),
(220,700,ls),
(203,700,o),
(193,689,o),
(189,673,cs),
(28,27,ls),
(24,12,o),
(33,0,o),
(52,0,cs),
(448,0,ls)
);
},
{
closed = 1;
nodes = (
(237,655,l),
(580,655,l),
(426,45,l),
(82,45,l)
);
}
);
width = 575;
},
{
layerId = m002;
shapes = (
{
closed = 1;
nodes = (
(498,0,o),
(519,26,o),
(525,49,cs),
(677,659,ls),
(684,687,o),
(667,700,o),
(630,700,cs),
(250,700,ls),
(222,700,o),
(203,687,o),
(196,659,cs),
(44,49,ls),
(37,21,o),
(53,0,o),
(92,0,cs),
(473,0,ls)
);
},
{
closed = 1;
nodes = (
(289,605,l),
(566,605,l),
(431,95,l),
(154,95,l)
);
}
);
width = 631;
}
);
metricLeft = N;
metricRight = N;
},
{
glyphname = period;
lastChange = "2022-03-15 04:20:40 +0000";
layers = (
{
layerId = m01;
shapes = (
{
closed = 1;
nodes = (
(61,-30,o),
(79,-12,o),
(79,9,cs),
(79,29,o),
(61,46,o),
(41,46,cs),
(20,46,o),
(4,29,o),
(4,9,cs),
(4,-11,o),
(20,-30,o),
(41,-30,cs)
);
}
);
width = 176;
},
{
layerId = m002;
shapes = (
{
closed = 1;
nodes = (
(102,-30,o),
(128,-4,o),
(128,26,cs),
(128,55,o),
(102,80,o),
(73,80,cs),
(42,80,o),
(18,55,o),
(18,26,cs),
(18,-3,o),
(42,-30,o),
(73,-30,cs)
);
}
);
width = 221;
}
);
metricLeft = n;
metricRight = n;
unicode = 46;
},
{
glyphname = comma;
lastChange = "2022-03-15 04:20:40 +0000";
layers = (
{
layerId = m01;
shapes = (
{
closed = 1;
nodes = (
(62,39,o),
(51,50,o),
(38,52,cs),
(26,55,o),
(12,49,o),
(8,32,cs),
(-16,-66,ls),
(-20,-83,o),
(-11,-94,o),
(1,-97,cs),
(13,-100,o),
(28,-94,o),
(32,-76,cs),
(57,21,ls)
);
}
);
width = 149;
},
{
layerId = m002;
shapes = (
{
closed = 1;
nodes = (
(131,69,o),
(111,90,o),
(84,95,cs),
(60,100,o),
(32,88,o),
(25,59,cs),
(1,-38,ls),
(-6,-69,o),
(12,-91,o),
(37,-97,cs),
(61,-103,o),
(92,-90,o),
(99,-60,cs),
(123,37,ls)
);
}
);
width = 212;
}
);
metricLeft = n;
metricRight = n;
unicode = 44;
},
{
glyphname = colon;
lastChange = "2022-03-15 04:20:40 +0000";
layers = (
{
layerId = m01;
shapes = (
{
closed = 1;
nodes = (
(62,-30,o),
(80,-12,o),
(80,9,cs),
(80,29,o),
(62,46,o),
(41,46,cs),
(20,46,o),
(4,29,o),
(4,9,cs),
(4,-11,o),
(20,-30,o),
(41,-30,cs)
);
},
{
closed = 1;
nodes = (
(113,175,o),
(131,194,o),
(131,214,cs),
(131,235,o),
(113,251,o),
(93,251,cs),
(72,251,o),
(56,234,o),
(56,214,cs),
(56,195,o),
(72,175,o),
(93,175,cs)
);
}
);
width = 177;
},
{
layerId = m002;
shapes = (
{
closed = 1;
nodes = (
(155,175,o),
(181,202,o),
(181,232,cs),
(181,261,o),
(155,285,o),
(126,285,cs),
(95,285,o),
(71,259,o),
(71,231,cs),
(71,203,o),
(95,175,o),
(125,175,cs)
);
},
{
closed = 1;
nodes = (
(103,-30,o),
(129,-4,o),
(129,26,cs),
(129,56,o),
(103,80,o),
(73,80,cs),
(42,80,o),
(19,55,o),
(19,26,cs),
(19,-3,o),
(42,-30,o),
(73,-30,cs)
);
}
);
width = 222;
}
);
metricLeft = n;
metricRight = n;
unicode = 58;
},
{
glyphname = semicolon;
lastChange = "2022-03-15 04:20:40 +0000";
layers = (
{
layerId = m01;
shapes = (
{
closed = 1;
nodes = (
(77,39,o),
(66,50,o),
(53,52,cs),
(41,55,o),
(27,49,o),
(23,32,cs),
(-1,-66,ls),
(-5,-83,o),
(4,-94,o),
(16,-97,cs),
(28,-100,o),
(42,-94,o),
(47,-76,cs),
(72,21,ls)
);
},
{
closed = 1;
nodes = (
(112,175,o),
(130,194,o),
(130,214,cs),
(130,235,o),
(112,251,o),
(92,251,cs),
(71,251,o),
(55,234,o),
(55,214,cs),
(55,195,o),
(71,175,o),
(92,175,cs)
);
}
);
width = 175;
},
{
layerId = m002;
shapes = (
{
closed = 1;
nodes = (
(137,69,o),
(117,90,o),
(90,95,cs),
(66,100,o),
(38,88,o),
(31,59,cs),
(7,-38,ls),
(-1,-69,o),
(18,-91,o),
(43,-97,cs),
(67,-103,o),
(98,-90,o),
(105,-60,cs),
(129,37,ls)
);
},
{
closed = 1;
nodes = (
(153,175,o),
(179,202,o),
(179,232,cs),
(179,261,o),
(153,285,o),
(124,285,cs),
(93,285,o),
(69,259,o),
(69,231,cs),
(69,203,o),
(93,175,o),
(123,175,cs)
);
}
);
width = 220;
}
);
metricLeft = n;
metricRight = n;
unicode = 59;
},
{
glyphname = ellipsis;
lastChange = "2022-03-15 04:20:40 +0000";
layers = (
{
layerId = m01;
shapes = (
{
closed = 1;
nodes = (
(281,-30,o),
(299,-12,o),
(299,9,cs),
(299,29,o),
(281,46,o),
(261,46,cs),
(240,46,o),
(224,29,o),
(224,9,cs),
(224,-11,o),
(240,-30,o),
(261,-30,cs)
);
},
{
closed = 1;
nodes = (
(61,-30,o),
(79,-12,o),
(79,9,cs),
(79,29,o),
(61,46,o),
(41,46,cs),
(20,46,o),
(4,29,o),
(4,9,cs),
(4,-11,o),
(20,-30,o),
(41,-30,cs)
);
},
{
closed = 1;
nodes = (
(171,-30,o),
(189,-12,o),
(189,9,cs),
(189,29,o),
(171,46,o),
(151,46,cs),
(130,46,o),
(114,29,o),
(114,9,cs),
(114,-11,o),
(130,-30,o),
(151,-30,cs)
);
}
);
width = 396;
},
{
layerId = m002;
shapes = (
{
closed = 1;
nodes = (
(391,-31,o),
(418,-6,o),
(418,25,cs),
(418,56,o),
(391,79,o),
(362,79,cs),
(334,79,o),
(308,57,o),
(308,25,cs),
(308,-6,o),
(334,-31,o),
(363,-31,cs)
);
},
{
closed = 1;
nodes = (
(101,-31,o),
(128,-6,o),
(128,25,cs),
(128,56,o),
(101,79,o),
(72,79,cs),
(44,79,o),
(18,57,o),
(18,25,cs),
(18,-6,o),
(44,-31,o),
(73,-31,cs)
);
},
{
closed = 1;
nodes = (
(246,-30,o),
(273,-6,o),
(273,25,cs),
(273,56,o),
(246,79,o),
(218,79,cs),
(189,79,o),
(163,56,o),
(163,25,cs),
(163,-6,o),
(189,-30,o),
(218,-30,cs)
);
}
);
width = 511;
}
);
metricLeft = n;
metricRight = n;
unicode = 8230;
},
{
glyphname = exclam;
lastChange = "2022-03-14 02:58:24 +0000";
layers = (
{
layerId = m01;
shapes = (
{
closed = 1;
nodes = (
(240,641,o),
(230,649,o),
(218,650,cs),
(205,651,o),
(189,645,o),
(186,633,cs),
(79,203,ls),
(75,187,o),
(86,177,o),
(98,175,cs),
(110,173,o),
(125,181,o),
(130,200,cs),
(236,626,ls)
);
},
{
closed = 1;
nodes = (
(74,-24,o),
(90,-8,o),
(90,9,cs),
(90,26,o),
(74,41,o),
(56,41,cs),
(38,41,o),
(25,25,o),
(25,9,cs),
(25,-7,o),
(38,-24,o),
(56,-24,cs)
);
}
);
width = 197;
},
{
layerId = m002;
shapes = (
{
closed = 1;
nodes = (
(298,628,o),
(272,648,o),
(248,650,cs),
(226,651,o),
(196,638,o),
(190,615,cs),
(93,229,ls),
(86,200,o),
(108,178,o),
(133,175,cs),
(156,171,o),
(186,187,o),
(193,216,cs),
(291,602,ls)
);
},
{
closed = 1;
nodes = (
(123,-24,o),
(151,2,o),
(151,31,cs),
(151,60,o),
(123,86,o),
(93,86,cs),
(62,86,o),
(41,58,o),
(41,31,cs),
(41,4,o),
(62,-24,o),
(93,-24,cs)
);
}
);
width = 263;
}
);
metricLeft = N;
metricRight = N;
unicode = 33;
},
{
glyphname = exclamdown;
lastChange = "2022-03-14 03:01:26 +0000";
layers = (
{
layerId = m01;
shapes = (
{
closed = 1;
nodes = (
(32,9,o),
(42,1,o),
(54,0,cs),
(67,-1,o),
(83,5,o),
(86,17,cs),
(193,447,ls),
(197,463,o),
(186,473,o),
(174,475,cs),
(162,477,o),
(147,469,o),
(142,450,cs),
(36,24,ls)
);
},
{
closed = 1;
nodes = (
(198,674,o),
(182,658,o),
(182,641,cs),
(182,624,o),
(198,609,o),
(216,609,cs),
(234,609,o),
(247,625,o),
(247,641,cs),
(247,657,o),
(234,674,o),
(216,674,cs)
);
}
);
width = 197;
},
{
layerId = m002;
shapes = (
{
closed = 1;
nodes = (
(40,22,o),
(66,2,o),
(90,0,cs),
(112,-1,o),
(142,12,o),
(148,35,cs),
(245,421,ls),
(252,450,o),
(230,472,o),
(205,475,cs),
(182,479,o),
(152,463,o),
(145,434,cs),
(47,48,ls)
);
},
{
closed = 1;
nodes = (
(215,674,o),
(187,648,o),
(187,619,cs),
(187,590,o),
(215,564,o),
(245,564,cs),
(276,564,o),
(297,592,o),
(297,619,cs),
(297,646,o),
(276,674,o),
(245,674,cs)
);
}
);
width = 263;
}
);
metricLeft = N;
metricRight = N;
unicode = 161;
},
{
glyphname = question;
lastChange = "2022-03-14 03:07:22 +0000";
layers = (
{
layerId = m01;
shapes = (
{
closed = 1;
nodes = (
(170,-24,o),
(186,-9,o),
(186,7,cs),
(186,26,o),
(171,41,o),
(152,41,cs),
(135,41,o),
(121,25,o),
(121,7,cs),
(121,-8,o),
(135,-24,o),
(152,-24,cs)
);
},
{
closed = 1;
nodes = (
(254,308,o),
(248,321,o),
(228,322,cs),
(217,323,o),
(205,316,o),
(202,305,cs),
(177,206,ls),
(173,192,o),
(183,179,o),
(195,176,cs),
(208,173,o),
(222,180,o),
(228,202,cs),
(253,302,ls)
);
},
{
closed = 1;
nodes = (
(383,272,o),
(441,365,o),
(476,503,cs),
(496,582,o),
(422,654,o),
(331,654,cs),
(216,654,o),
(159,590,o),
(135,495,cs),
(129,473,o),
(136,460,o),
(147,457,cs),
(160,454,o),
(179,463,o),
(184,485,cs),
(198,542,o),
(232,604,o),
(317,604,cs),
(383,604,o),
(441,568,o),
(426,507,cs),
(415,461,o),
(394,322,o),
(232,322,c),
(227,272,l)
);
}
);
width = 449;
},
{
layerId = m002;
shapes = (
{
closed = 1;
nodes = (
(199,-24,o),
(227,2,o),
(227,32,cs),
(227,61,o),
(201,86,o),
(171,86,cs),
(140,86,o),
(117,60,o),
(117,32,cs),
(117,4,o),
(140,-24,o),
(170,-24,cs)
);
},
{
closed = 1;
nodes = (
(298,335,o),
(275,354,o),
(246,356,cs),
(225,358,o),
(201,345,o),
(196,325,cs),
(174,238,ls),
(167,212,o),
(179,181,o),
(208,176,cs),
(234,171,o),
(260,192,o),
(268,223,cs),
(291,310,ls)
);
},
{
closed = 1;
nodes = (
(400,256,o),
(467,353,o),
(501,492,cs),
(522,577,o),
(442,654,o),
(345,654,cs),
(228,654,o),
(167,586,o),
(144,493,cs),
(135,458,o),
(152,439,o),
(173,434,cs),
(198,427,o),
(230,443,o),
(238,476,cs),
(250,524,o),
(271,565,o),
(333,565,cs),
(384,565,o),
(416,545,o),
(406,504,cs),
(395,460,o),
(378,345,o),
(246,356,c),
(225,267,l)
);
}
);
width = 487;
}
);
metricLeft = O;
metricRight = O;
unicode = 63;
},
{
glyphname = questiondown;
lastChange = "2022-03-14 03:09:05 +0000";
layers = (
{
layerId = m01;
shapes = (
{
closed = 1;
nodes = (
(355,678,o),
(339,663,o),
(339,647,cs),
(339,628,o),
(354,613,o),
(373,613,cs),
(390,613,o),
(404,629,o),
(404,647,cs),
(404,662,o),
(390,678,o),
(373,678,cs)
);
},
{
closed = 1;
nodes = (
(271,346,o),
(277,333,o),
(297,332,cs),
(308,331,o),
(320,338,o),
(323,349,cs),
(348,448,ls),
(352,462,o),
(342,475,o),
(330,478,cs),
(317,481,o),
(303,474,o),
(297,452,cs),
(272,352,ls)
);
},
{
closed = 1;
nodes = (
(142,382,o),
(84,289,o),
(49,151,cs),
(29,72,o),
(103,0,o),
(194,0,cs),
(309,0,o),
(366,64,o),
(390,159,cs),
(396,181,o),
(389,194,o),
(378,197,cs),
(365,200,o),
(346,191,o),
(341,169,cs),
(327,112,o),
(293,50,o),
(208,50,cs),
(142,50,o),
(84,86,o),
(99,147,cs),
(110,193,o),
(131,332,o),
(293,332,c),
(298,382,l)
);
}
);
width = 449;
},
{
layerId = m002;
shapes = (
{
closed = 1;
nodes = (
(364,678,o),
(336,652,o),
(336,622,cs),
(336,593,o),
(362,568,o),
(392,568,cs),
(423,568,o),
(446,594,o),
(446,622,cs),
(446,650,o),
(423,678,o),
(393,678,cs)
);
},
{
closed = 1;
nodes = (
(265,319,o),
(288,300,o),
(317,298,cs),
(338,296,o),
(362,309,o),
(367,329,cs),
(389,416,ls),
(396,442,o),
(384,473,o),
(355,478,cs),
(329,483,o),
(303,462,o),
(295,431,cs),
(272,344,ls)
);
},
{
closed = 1;
nodes = (
(163,398,o),
(96,301,o),
(62,162,cs),
(41,77,o),
(121,0,o),
(218,0,cs),
(335,0,o),
(396,68,o),
(419,161,cs),
(428,196,o),
(411,215,o),
(390,220,cs),
(365,227,o),
(333,211,o),
(325,178,cs),
(313,130,o),
(292,89,o),
(230,89,cs),
(179,89,o),
(147,109,o),
(157,150,cs),
(168,194,o),
(185,309,o),
(317,298,c),
(338,387,l)
);
}
);
width = 487;
}
);
metricLeft = O;
metricRight = O;
unicode = 191;
},
{
glyphname = periodcentered;
lastChange = "2022-03-14 03:10:52 +0000";
layers = (
{
layerId = m01;
shapes = (
{
closed = 1;
nodes = (
(102,138,o),
(120,157,o),
(120,177,cs),
(120,198,o),
(102,214,o),
(82,214,cs),
(61,214,o),
(45,197,o),
(45,177,cs),
(45,158,o),
(61,138,o),
(82,138,cs)
);
}
);
width = 164;
},
{
layerId = m002;
shapes = (
{
closed = 1;
nodes = (
(150,121,o),
(177,149,o),
(177,178,cs),
(177,209,o),
(150,231,o),
(121,231,cs),
(90,231,o),
(67,207,o),
(67,178,cs),
(67,151,o),
(90,121,o),
(121,121,cs)
);
}
);
width = 243;
}
);
unicode = 183;
},
{
glyphname = bullet;
lastChange = "2022-03-14 03:10:52 +0000";
layers = (
{
layerId = m01;
shapes = (
{
closed = 1;
nodes = (
(190,278,o),
(227,314,o),
(227,355,cs),
(227,396,o),
(191,430,o),
(151,430,cs),
(109,430,o),
(77,395,o),
(77,355,cs),
(77,316,o),
(108,278,o),
(150,278,cs)
);
}
);
width = 240;
},
{
layerId = m002;
shapes = (
{
closed = 1;
nodes = (
(250,254,o),
(299,301,o),
(299,355,cs),
(299,409,o),
(251,454,o),
(197,454,cs),
(142,454,o),
(99,408,o),
(99,355,cs),
(99,304,o),
(140,254,o),
(196,254,cs)
);
}
);
width = 335;
}
);
unicode = 8226;
},
{
glyphname = asterisk;
lastChange = "2022-03-14 03:13:08 +0000";
layers = (
{
layerId = m002;
shapes = (
{
closed = 1;
nodes = (
(389,555,o),
(401,578,o),
(387,602,cs),
(377,619,o),
(350,627,o),
(324,614,cs),
(186,542,l),
(163,527,o),
(149,505,o),
(161,483,cs),
(169,464,o),
(200,456,o),
(228,470,cs),
(362,541,ls)
);
},
{
closed = 1;
nodes = (
(317,449,o),
(346,451,o),
(361,467,cs),
(375,484,o),
(375,507,o),
(354,525,cs),
(255,615,ls),
(234,634,o),
(205,632,o),
(191,616,cs),
(175,599,o),
(175,576,o),
(198,556,cs),
(293,468,l)
);
},
{
closed = 1;
nodes = (
(343,636,o),
(324,657,o),
(300,659,cs),
(279,661,o),
(255,645,o),
(248,619,cs),
(213,479,ls),
(206,450,o),
(221,432,o),
(242,426,cs),
(263,419,o),
(292,434,o),
(301,465,cs),
(335,605,ls)
);
}
);
width = 368;
},
{
layerId = m01;
shapes = (
{
closed = 1;
nodes = (
(340,572,o),
(344,586,o),
(339,595,cs),
(334,602,o),
(322,606,o),
(307,598,cs),
(165,524,ls),
(148,514,o),
(143,500,o),
(148,492,cs),
(153,484,o),
(164,481,o),
(181,489,cs),
(322,563,ls)
);
},
{
closed = 1;
nodes = (
(293,473,o),
(306,474,o),
(314,481,cs),
(319,488,o),
(320,500,o),
(308,511,cs),
(206,603,ls),
(195,614,o),
(183,613,o),
(176,605,cs),
(169,599,o),
(168,586,o),
(180,575,cs),
(281,484,ls)
);
},
{
closed = 1;
nodes = (
(285,633,o),
(278,642,o),
(269,643,cs),
(259,644,o),
(246,635,o),
(242,618,cs),
(206,472,ls),
(202,455,o),
(208,447,o),
(217,444,cs),
(227,442,o),
(240,450,o),
(245,469,cs),
(281,615,ls)
);
}
);
width = 304;
}
);
metricLeft = N;
metricRight = N;
unicode = 42;
},
{
glyphname = numbersign;
lastChange = "2022-03-14 03:22:54 +0000";
layers = (
{
layerId = m01;
shapes = (
{
closed = 1;
nodes = (
(293,557,o),
(283,567,o),
(270,568,cs),
(257,569,o),
(242,562,o),
(238,545,cs),
(109,29,ls),
(105,11,o),
(114,0,o),
(126,0,cs),
(139,-2,o),
(155,6,o),
(160,25,cs),
(289,542,ls)
);
},
{
closed = 1;
nodes = (
(587,147,o),
(596,159,o),
(596,170,cs),
(596,181,o),
(588,192,o),
(570,192,cs),
(25,192,ls),
(7,192,o),
(-1,181,o),
(-1,170,cs),
(-1,159,o),
(8,147,o),
(25,147,cs),
(570,147,ls)
);
},
{
closed = 1;
nodes = (
(549,558,o),
(539,566,o),
(527,568,cs),
(514,569,o),
(498,562,o),
(494,545,cs),
(366,29,ls),
(361,10,o),
(372,0,o),
(385,0,cs),
(398,0,o),
(412,7,o),
(416,25,cs),
(545,542,ls)
);
},
{
closed = 1;
nodes = (
(647,384,o),
(656,395,o),
(656,406,cs),
(656,417,o),
(647,429,o),
(629,429,cs),
(85,429,ls),
(67,429,o),
(58,417,o),
(58,406,cs),
(58,395,o),
(67,384,o),
(85,384,cs),
(629,384,ls)
);
}
);
width = 599;
},
{
layerId = m002;
shapes = (
{
closed = 1;
nodes = (
(578,552,o),
(555,567,o),
(532,568,cs),
(508,570,o),
(479,562,o),
(472,536,cs),
(351,51,ls),
(342,17,o),
(368,2,o),
(395,0,cs),
(418,-1,o),
(442,8,o),
(449,36,cs),
(570,521,ls)
);
},
{
closed = 1;
nodes = (
(593,133,o),
(613,153,o),
(613,177,cs),
(613,200,o),
(594,218,o),
(564,218,cs),
(52,218,ls),
(22,218,o),
(2,200,o),
(2,177,cs),
(2,153,o),
(23,133,o),
(52,133,cs),
(564,133,ls)
);
},
{
closed = 1;
nodes = (
(321,548,o),
(296,566,o),
(270,568,cs),
(245,569,o),
(222,560,o),
(215,533,cs),
(94,49,ls),
(86,19,o),
(105,2,o),
(131,0,cs),
(155,-2,o),
(186,6,o),
(193,35,cs),
(314,520,ls)
);
},
{
closed = 1;
nodes = (
(648,357,o),
(669,375,o),
(669,399,cs),
(669,422,o),
(648,442,o),
(618,442,cs),
(107,442,ls),
(77,442,o),
(57,422,o),
(57,399,cs),
(57,375,o),
(77,357,o),
(107,357,cs),
(618,357,ls)
);
}
);
width = 614;
}
);
unicode = 35;
},
{
glyphname = slash;
lastChange = "2022-03-14 03:27:44 +0000";
layers = (
{
layerId = m01;
shapes = (
{
closed = 1;
nodes = (
(398,635,o),
(384,649,o),
(369,650,cs),
(358,650,o),
(346,645,o),
(338,629,cs),
(30,32,ls),
(21,14,o),
(34,1,o),
(50,0,cs),
(61,-1,o),
(72,4,o),
(79,18,cs),
(387,614,ls)
);
}
);
width = 344;
},
{
layerId = m002;
shapes = (
{
closed = 1;
nodes = (
(451,620,o),
(423,648,o),
(393,650,cs),
(373,651,o),
(350,642,o),
(337,618,cs),
(49,63,ls),
(31,29,o),
(59,2,o),
(91,0,cs),
(110,-1,o),
(133,7,o),
(144,28,cs),
(433,585,ls)
);
}
);
width = 407;
}
);
metricLeft = N;
metricRight = N;
unicode = 47;
},
{
glyphname = backslash;
lastChange = "2022-03-14 03:29:04 +0000";
layers = (
{
layerId = m01;
shapes = (
{
closed = 1;
nodes = (
(491,18,ls),
(498,4,o),
(509,-1,o),
(520,0,cs),
(536,1,o),
(549,14,o),
(540,32,cs),
(232,629,ls),
(224,645,o),
(212,650,o),
(201,650,cs),
(186,649,o),
(172,635,o),
(183,614,cs)
);
}
);
width = 647;
},
{
layerId = m002;
shapes = (
{
closed = 1;
nodes = (
(479,28,ls),
(490,7,o),
(513,-1,o),
(532,0,cs),
(564,2,o),
(592,29,o),
(574,63,cs),
(286,618,ls),
(273,642,o),
(250,651,o),
(230,650,cs),
(200,648,o),
(172,620,o),
(190,585,cs)
);
}
);
width = 689;
}
);
metricLeft = N;
metricRight = N;
unicode = 92;
},
{
glyphname = hyphen;
lastChange = "2022-03-15 04:20:40 +0000";
layers = (
{
layerId = m01;
shapes = (
{
closed = 1;
nodes = (
(243,175,o),
(252,186,o),
(252,198,cs),
(252,209,o),
(243,220,o),
(225,220,cs),
(77,220,ls),
(58,220,o),
(49,208,o),
(50,196,cs),
(51,185,o),
(60,175,o),
(77,175,cs),
(225,175,ls)
);
}
);
width = 301;
},
{
layerId = m002;
shapes = (
{
closed = 1;
nodes = (
(292,153,o),
(313,173,o),
(313,198,cs),
(313,222,o),
(292,242,o),
(261,242,cs),
(113,242,ls),
(80,242,o),
(59,220,o),
(61,194,cs),
(63,171,o),
(84,153,o),
(113,153,cs),
(261,153,ls)
);
}
);
width = 363;
}
);
metricLeft = n;
metricRight = n;
unicode = 45;
},
{
glyphname = endash;
lastChange = "2022-03-15 04:20:40 +0000";
layers = (
{
layerId = m01;
shapes = (
{
closed = 1;
nodes = (
(323,175,o),
(332,187,o),
(332,199,cs),
(332,210,o),
(323,220,o),
(305,220,cs),
(78,220,ls),
(60,220,o),
(51,210,o),
(51,199,cs),
(51,187,o),
(60,175,o),
(78,175,cs),
(305,175,ls)
);
}
);
width = 381;
},
{
layerId = m002;
shapes = (
{
closed = 1;
nodes = (
(371,153,o),
(392,174,o),
(392,199,cs),
(392,223,o),
(371,242,o),
(340,242,cs),
(113,242,ls),
(82,242,o),
(61,223,o),
(61,199,cs),
(61,174,o),
(82,153,o),
(113,153,cs),
(340,153,ls)
);
}
);
width = 441;
}
);
metricLeft = n;
metricRight = n;
unicode = 8211;
},
{
glyphname = emdash;
lastChange = "2022-03-15 04:20:40 +0000";
layers = (
{
layerId = m01;
shapes = (
{
closed = 1;
nodes = (
(423,175,o),
(434,187,o),
(434,199,cs),
(434,209,o),
(424,220,o),
(403,220,cs),
(80,220,ls),
(60,220,o),
(50,209,o),
(50,199,cs),
(50,187,o),
(61,175,o),
(80,175,cs),
(403,175,ls)
);
}
);
width = 483;
},
{
layerId = m002;
shapes = (
{
closed = 1;
nodes = (
(472,153,o),
(495,174,o),
(495,199,cs),
(495,222,o),
(473,242,o),
(439,242,cs),
(116,242,ls),
(83,242,o),
(61,222,o),
(61,199,cs),
(61,174,o),
(84,153,o),
(116,153,cs),
(439,153,ls)
);
}
);
width = 544;
}
);
metricLeft = n;
metricRight = n;
unicode = 8212;
},
{
glyphname = underscore;
lastChange = "2022-03-15 04:20:40 +0000";
layers = (
{
layerId = m01;
shapes = (
{
closed = 1;
nodes = (
(321,-77,o),
(330,-66,o),
(330,-54,cs),
(330,-43,o),
(321,-32,o),
(303,-32,cs),
(14,-32,ls),
(-5,-32,o),
(-13,-43,o),
(-13,-55,cs),
(-13,-66,o),
(-3,-77,o),
(14,-77,cs),
(303,-77,ls)
);
}
);
width = 442;
},
{
layerId = m002;
shapes = (
{
closed = 1;
nodes = (
(370,-99,o),
(391,-79,o),
(391,-54,cs),
(391,-30,o),
(370,-10,o),
(339,-10,cs),
(50,-10,ls),
(18,-10,o),
(-2,-30,o),
(-2,-55,cs),
(-2,-79,o),
(20,-99,o),
(50,-99,cs),
(339,-99,ls)
);
}
);
width = 503;
}
);
metricLeft = n;
metricRight = n;
unicode = 95;
},
{
glyphname = parenleft;
lastChange = "2022-03-14 03:37:32 +0000";
layers = (
{
layerId = m01;
shapes = (
{
closed = 1;
nodes = (
(179,-293,o),
(181,-279,o),
(175,-262,cs),
(101,-76,o),
(99,82,o),
(134,222,cs),
(166,348,o),
(254,489,o),
(389,607,cs),
(408,623,o),
(411,637,o),
(404,645,cs),
(397,653,o),
(379,651,o),
(358,635,cs),
(217,517,o),
(105,335,o),
(78,226,cs),
(48,103,o),
(60,-93,o),
(137,-281,cs),
(144,-298,o),
(160,-303,o),
(171,-298,cs)
);
}
);
width = 358;
},
{
layerId = m002;
shapes = (
{
closed = 1;
nodes = (
(238,-283,o),
(246,-264,o),
(234,-235,cs),
(165,-61,o),
(159,86,o),
(193,217,cs),
(222,335,o),
(307,460,o),
(433,569,cs),
(466,598,o),
(463,621,o),
(450,637,cs),
(436,653,o),
(403,657,o),
(370,631,cs),
(230,514,o),
(116,339,o),
(89,232,cs),
(60,109,o),
(75,-83,o),
(152,-269,cs),
(165,-298,o),
(200,-308,o),
(222,-294,cs)
);
}
);
width = 426;
}
);
metricLeft = N;
metricRight = N;
unicode = 40;
},
{
glyphname = parenright;
lastChange = "2022-03-14 03:39:10 +0000";
layers = (
{
layerId = m01;
shapes = (
{
closed = 1;
nodes = (
(179,643,o),
(177,629,o),
(183,612,cs),
(257,426,o),
(259,268,o),
(224,128,cs),
(192,2,o),
(104,-139,o),
(-31,-257,cs),
(-50,-273,o),
(-53,-287,o),
(-46,-295,cs),
(-39,-303,o),
(-21,-301,o),
(0,-285,cs),
(141,-167,o),
(253,15,o),
(280,124,cs),
(310,247,o),
(298,443,o),
(221,631,cs),
(214,648,o),
(198,653,o),
(187,648,cs)
);
}
);
width = 358;
},
{
layerId = m002;
shapes = (
{
closed = 1;
nodes = (
(188,633,o),
(180,614,o),
(192,585,cs),
(261,411,o),
(267,264,o),
(233,133,cs),
(204,15,o),
(119,-110,o),
(-7,-219,cs),
(-40,-248,o),
(-37,-271,o),
(-24,-287,cs),
(-10,-303,o),
(23,-307,o),
(56,-281,cs),
(196,-164,o),
(310,11,o),
(337,118,cs),
(366,241,o),
(351,433,o),
(274,619,cs),
(261,648,o),
(226,658,o),
(204,644,cs)
);
}
);
width = 426;
}
);
metricLeft = N;
metricRight = N;
unicode = 41;
},
{
glyphname = braceleft;
lastChange = "2022-03-14 03:52:14 +0000";
layers = (
{
layerId = m01;
shapes = (
{
closed = 1;
nodes = (
(161,236,o),
(176,268,o),
(187,312,cs),
(200,364,o),
(193,480,o),
(217,537,cs),
(239,586,o),
(295,609,o),
(327,617,cs),
(341,621,o),
(345,630,o),
(342,641,cs),
(338,655,o),
(321,650,o),
(307,646,cs),
(278,634,o),
(209,606,o),
(186,555,cs),
(160,495,o),
(165,377,o),
(151,320,cs),
(142,293,o),
(128,267,o),
(102,245,cs),
(88,233,o),
(77,227,o),
(74,211,c),
(118,200,l)
);
},
{
closed = 1;
nodes = (
(73,196,o),
(79,187,o),
(86,170,cs),
(100,136,o),
(103,107,o),
(98,78,cs),
(87,22,o),
(35,-83,o),
(33,-149,cs),
(32,-206,o),
(56,-258,o),
(79,-287,cs),
(90,-299,o),
(101,-304,o),
(110,-295,cs),
(119,-286,o),
(111,-277,o),
(102,-266,cs),
(77,-237,o),
(67,-203,o),
(69,-149,cs),
(71,-86,o),
(125,14,o),
(134,68,cs),
(142,111,o),
(141,149,o),
(118,203,c),
(74,214,l)
);
}
);
width = 294;
},
{
layerId = m002;
shapes = (
{
closed = 1;
nodes = (
(210,219,o),
(227,254,o),
(240,300,cs),
(253,354,o),
(246,461,o),
(267,511,cs),
(286,551,o),
(328,568,o),
(358,575,cs),
(381,582,o),
(395,601,o),
(386,625,cs),
(378,654,o),
(345,652,o),
(321,644,cs),
(291,633,o),
(217,603,o),
(191,546,cs),
(165,483,o),
(169,372,o),
(156,320,cs),
(148,295,o),
(137,278,o),
(117,260,cs),
(94,243,o),
(83,234,o),
(86,195,c),
(155,177,l)
);
},
{
closed = 1;
nodes = (
(76,191,o),
(87,180,o),
(96,161,cs),
(107,133,o),
(109,110,o),
(104,86,cs),
(94,33,o),
(42,-64,o),
(40,-132,cs),
(39,-192,o),
(68,-248,o),
(93,-279,cs),
(114,-306,o),
(145,-305,o),
(161,-287,cs),
(179,-268,o),
(168,-251,o),
(154,-233,cs),
(132,-207,o),
(123,-182,o),
(124,-134,cs),
(127,-78,o),
(180,13,o),
(188,67,cs),
(198,114,o),
(195,156,o),
(168,219,c),
(91,232,l)
);
}
);
width = 356;
}
);
metricLeft = N;
metricRight = N;
unicode = 123;
},
{
glyphname = braceright;
lastChange = "2022-03-14 03:51:52 +0000";
layers = (
{
layerId = m01;
shapes = (
{
closed = 1;
nodes = (
(133,114,o),
(118,82,o),
(107,38,cs),
(94,-14,o),
(101,-130,o),
(77,-187,cs),
(55,-236,o),
(-1,-259,o),
(-33,-267,cs),
(-47,-271,o),
(-51,-280,o),
(-48,-291,cs),
(-44,-305,o),
(-27,-300,o),
(-13,-296,cs),
(16,-284,o),
(85,-256,o),
(108,-205,cs),
(134,-145,o),
(129,-27,o),
(143,30,cs),
(152,57,o),
(166,83,o),
(192,105,cs),
(206,117,o),
(217,123,o),
(220,139,c),
(176,150,l)
);
},
{
closed = 1;
nodes = (
(221,154,o),
(215,163,o),
(208,180,cs),
(194,214,o),
(191,243,o),
(196,272,cs),
(207,328,o),
(259,433,o),
(261,499,cs),
(262,556,o),
(238,608,o),
(215,637,cs),
(204,649,o),
(193,654,o),
(184,645,cs),
(175,636,o),
(183,627,o),
(192,616,cs),
(217,587,o),
(227,553,o),
(225,499,cs),
(223,436,o),
(169,336,o),
(160,282,cs),
(152,239,o),
(153,201,o),
(176,147,c),
(220,136,l)
);
}
);
width = 294;
},
{
layerId = m002;
shapes = (
{
closed = 1;
nodes = (
(146,131,o),
(129,96,o),
(116,50,cs),
(103,-4,o),
(110,-111,o),
(89,-161,cs),
(70,-201,o),
(28,-218,o),
(-2,-225,cs),
(-25,-232,o),
(-39,-251,o),
(-30,-275,cs),
(-22,-304,o),
(11,-302,o),
(35,-294,cs),
(65,-283,o),
(139,-253,o),
(165,-196,cs),
(191,-133,o),
(187,-22,o),
(200,30,cs),
(208,55,o),
(219,72,o),
(239,90,cs),
(262,107,o),
(273,116,o),
(270,155,c),
(201,173,l)
);
},
{
closed = 1;
nodes = (
(280,159,o),
(269,170,o),
(260,189,cs),
(249,217,o),
(247,240,o),
(252,264,cs),
(262,317,o),
(314,414,o),
(316,482,cs),
(317,542,o),
(288,598,o),
(263,629,cs),
(242,656,o),
(211,655,o),
(195,637,cs),
(177,618,o),
(188,601,o),
(202,583,cs),
(224,557,o),
(233,532,o),
(232,484,cs),
(229,428,o),
(176,337,o),
(168,283,cs),
(158,236,o),
(161,194,o),
(188,131,c),
(265,118,l)
);
}
);
width = 356;
}
);
metricLeft = N;
metricRight = N;
unicode = 125;
},
{
glyphname = bracketleft;
lastChange = "2022-03-14 03:59:46 +0000";
layers = (
{
layerId = m01;
shapes = (
{
closed = 1;
nodes = (
(232,634,o),
(233,648,o),
(212,650,cs),
(191,651,o),
(182,641,o),
(178,625,cs),
(-46,-272,ls),
(-50,-286,o),
(-43,-300,o),
(-23,-300,cs),
(-1,-300,o),
(2,-285,o),
(5,-275,cs),
(228,617,ls)
);
},
{
closed = 1;
nodes = (
(125,-300,ls),
(142,-300,o),
(151,-288,o),
(151,-277,cs),
(151,-266,o),
(143,-255,o),
(125,-255,cs),
(3,-255,l),
(-24,-300,l)
);
},
{
closed = 1;
nodes = (
(349,605,ls),
(366,605,o),
(375,616,o),
(376,627,cs),
(377,638,o),
(368,650,o),
(349,650,cs),
(211,650,l),
(218,605,l)
);
}
);
width = 329;
},
{
layerId = m002;
shapes = (
{
closed = 1;
nodes = (
(293,636,o),
(269,648,o),
(242,650,cs),
(212,652,o),
(191,640,o),
(184,613,cs),
(-30,-248,ls),
(-37,-275,o),
(-19,-300,o),
(15,-300,cs),
(48,-300,o),
(65,-281,o),
(70,-259,cs),
(283,597,ls)
);
},
{
closed = 1;
nodes = (
(159,-300,ls),
(189,-300,o),
(206,-284,o),
(211,-258,cs),
(216,-230,o),
(190,-215,o),
(159,-215,cs),
(71,-215,l),
(14,-300,l)
);
},
{
closed = 1;
nodes = (
(374,565,ls),
(402,565,o),
(421,582,o),
(425,605,cs),
(430,633,o),
(403,650,o),
(374,650,cs),
(241,650,l),
(231,565,l)
);
}
);
width = 394;
}
);
metricLeft = N;
metricRight = N;
unicode = 91;
},
{
glyphname = bracketright;
lastChange = "2022-03-14 04:00:04 +0000";
layers = (
{
layerId = m01;
shapes = (
{
closed = 1;
nodes = (
(97,-284,o),
(96,-298,o),
(117,-300,cs),
(138,-301,o),
(147,-291,o),
(151,-275,cs),
(375,622,ls),
(379,636,o),
(372,650,o),
(352,650,cs),
(330,650,o),
(327,635,o),
(324,625,cs),
(101,-267,ls)
);
},
{
closed = 1;
nodes = (
(204,650,ls),
(187,650,o),
(178,638,o),
(178,627,cs),
(178,616,o),
(186,605,o),
(204,605,cs),
(326,605,l),
(353,650,l)
);
},
{
closed = 1;
nodes = (
(-20,-255,ls),
(-37,-255,o),
(-46,-266,o),
(-47,-277,cs),
(-48,-288,o),
(-39,-300,o),
(-20,-300,cs),
(118,-300,l),
(111,-255,l)
);
}
);
width = 329;
},
{
layerId = m002;
shapes = (
{
closed = 1;
nodes = (
(101,-286,o),
(125,-298,o),
(152,-300,cs),
(182,-302,o),
(203,-290,o),
(210,-263,cs),
(424,598,ls),
(431,625,o),
(413,650,o),
(379,650,cs),
(346,650,o),
(329,631,o),
(324,609,cs),
(111,-247,ls)
);
},
{
closed = 1;
nodes = (
(235,650,ls),
(205,650,o),
(188,634,o),
(183,608,cs),
(178,580,o),
(204,565,o),
(235,565,cs),
(323,565,l),
(380,650,l)
);
},
{
closed = 1;
nodes = (
(20,-215,ls),
(-8,-215,o),
(-27,-232,o),
(-31,-255,cs),
(-36,-283,o),
(-9,-300,o),
(20,-300,cs),
(153,-300,l),
(163,-215,l)
);
}
);
width = 394;
}
);
metricLeft = N;
metricRight = N;
unicode = 93;
},
{
glyphname = quotedbl;
lastChange = "2022-03-14 04:07:56 +0000";
layers = (
{
layerId = m002;
shapes = (
{
closed = 1;
nodes = (
(452,625,o),
(427,648,o),
(400,650,cs),
(377,652,o),
(351,638,o),
(345,614,cs),
(320,515,ls),
(311,478,o),
(340,460,o),
(364,458,cs),
(386,457,o),
(414,469,o),
(420,494,cs),
(444,592,ls)
);
},
{
closed = 1;
nodes = (
(291,624,o),
(269,648,o),
(241,650,cs),
(218,652,o),
(191,637,o),
(184,610,cs),
(160,515,ls),
(152,483,o),
(176,460,o),
(203,458,cs),
(226,457,o),
(252,470,o),
(259,496,cs),
(283,591,ls)
);
}
);
width = 415;
},
{
layerId = m01;
shapes = (
{
closed = 1;
nodes = (
(234,638,o),
(222,649,o),
(209,650,cs),
(197,651,o),
(182,643,o),
(178,626,cs),
(154,532,ls),
(149,514,o),
(161,503,o),
(174,502,cs),
(186,501,o),
(201,508,o),
(205,524,cs),
(229,619,ls)
);
},
{
closed = 1;
nodes = (
(342,638,o),
(331,649,o),
(317,650,cs),
(305,651,o),
(291,643,o),
(288,630,cs),
(263,531,ls),
(258,512,o),
(270,503,o),
(284,502,cs),
(296,501,o),
(311,507,o),
(314,521,cs),
(337,618,ls)
);
}
);
width = 293;
}
);
metricLeft = N;
metricRight = N;
unicode = 34;
},
{
glyphname = quotesingle;
lastChange = "2022-03-14 04:05:34 +0000";
layers = (
{
layerId = m002;
shapes = (
{
closed = 1;
nodes = (
(294,629,o),
(269,650,o),
(241,650,cs),
(218,650,o),
(195,635,o),
(189,610,cs),
(171,510,ls),
(165,472,o),
(195,456,o),
(219,456,cs),
(241,456,o),
(268,470,o),
(272,496,cs),
(289,595,ls)
);
}
);
width = 319;
},
{
layerId = m01;
shapes = (
{
closed = 1;
nodes = (
(199,640,o),
(187,650,o),
(173,650,cs),
(161,650,o),
(149,642,o),
(146,628,cs),
(128,528,ls),
(125,509,o),
(137,500,o),
(151,500,cs),
(163,500,o),
(177,507,o),
(179,521,cs),
(196,620,ls)
);
}
);
width = 182;
}
);
unicode = 39;
},
{
glyphname = at;
lastChange = "2022-03-15 11:02:48 +0000";
layers = (
{
layerId = m01;
shapes = (
{
closed = 1;
nodes = (
(498,127,l),
(487,109,ls),
(473,87,o),
(440,46,o),
(423,46,cs),
(404,46,o),
(415,117,o),
(419,133,cs),
(467,322,ls),
(471,338,o),
(467,349,o),
(450,350,cs),
(431,351,o),
(421,343,o),
(416,325,cs),
(373,155,ls),
(356,87,o),
(351,0,o),
(421,0,cs),
(463,0,o),
(499,44,o),
(521,76,cs),
(538,101,l)
);
},
{
closed = 1;
nodes = (
(260,350,o),
(204,271,o),
(175,156,cs),
(156,80,o),
(188,-4,o),
(261,-4,cs),
(347,-4,o),
(396,89,o),
(416,166,cs),
(436,244,o),
(433,350,o),
(350,350,cs)
);
},
{
closed = 1;
nodes = (
(393,304,o),
(377,217,o),
(367,178,cs),
(354,125,o),
(312,41,o),
(273,41,cs),
(217,41,o),
(214,109,o),
(229,169,cs),
(243,226,o),
(292,304,o),
(339,304,cs)
);
},
{
closed = 1;
nodes = (
(380,-110,o),
(391,-92,o),
(385,-79,cs),
(379,-66,o),
(362,-63,o),
(350,-67,cs),
(297,-83,o),
(221,-93,o),
(175,-67,cs),
(117,-34,o),
(55,48,o),
(86,174,cs),
(129,347,o),
(204,429,o),
(375,429,cs),
(497,429,o),
(580,382,o),
(553,272,cs),
(540,217,o),
(520,165,o),
(496,124,c),
(535,97,l),
(569,149,o),
(588,207,o),
(603,267,cs),
(637,406,o),
(534,479,o),
(377,479,cs),
(181,479,o),
(84,372,o),
(35,175,cs),
(0,34,o),
(74,-67,o),
(150,-109,cs),
(213,-144,o),
(305,-133,o),
(369,-113,cs)
);
}
);
width = 620;
},
{
layerId = m002;
shapes = (
{
closed = 1;
nodes = (
(562,120,l),
(554,109,ls),
(548,101,o),
(537,91,o),
(531,91,cs),
(521,91,o),
(522,106,o),
(535,158,cs),
(570,297,ls),
(579,333,o),
(555,348,o),
(531,350,cs),
(504,352,o),
(479,340,o),
(472,311,cs),
(437,167,ls),
(418,90,o),
(425,0,o),
(504,0,cs),
(550,0,o),
(600,16,o),
(625,52,cs),
(639,72,l)
);
},
{
closed = 1;
nodes = (
(290,350,o),
(222,261,o),
(204,160,cs),
(191,84,o),
(232,-4,o),
(306,-4,cs),
(415,-4,o),
(476,87,o),
(497,166,cs),
(517,244,o),
(502,350,o),
(405,350,cs)
);
},
{
closed = 1;
nodes = (
(423,260,o),
(431,213,o),
(421,179,cs),
(408,134,o),
(379,85,o),
(331,85,cs),
(303,85,o),
(298,125,o),
(306,174,cs),
(314,212,o),
(340,260,o),
(383,260,cs)
);
},
{
closed = 1;
nodes = (
(481,-133,o),
(497,-105,o),
(486,-80,cs),
(475,-55,o),
(446,-51,o),
(431,-56,cs),
(362,-79,o),
(278,-87,o),
(214,-25,cs),
(170,17,o),
(126,88,o),
(154,200,cs),
(191,348,o),
(301,424,o),
(461,424,cs),
(585,424,o),
(645,361,o),
(623,274,cs),
(606,207,o),
(593,158,o),
(559,116,c),
(636,67,l),
(684,139,o),
(700,192,o),
(716,256,cs),
(750,390,o),
(658,514,o),
(468,514,cs),
(275,514,o),
(114,429,o),
(61,218,cs),
(23,67,o),
(90,-38,o),
(160,-98,cs),
(253,-177,o),
(375,-173,o),
(465,-139,cs)
);
}
);
width = 746;
}
);
metricLeft = o;
metricRight = o;
unicode = 64;
},
{
glyphname = ampersand;
lastChange = "2022-03-15 04:20:40 +0000";
layers = (
{
layerId = m01;
shapes = (
{
closed = 1;
nodes = (
(412,4,o),
(430,-7,o),
(445,4,cs),
(458,14,o),
(455,29,o),
(447,41,cs),
(257,317,l),
(188,324,l),
(127,279,o),
(86,227,o),
(77,178,cs),
(63,103,o),
(117,-4,o),
(237,-4,cs),
(327,-4,o),
(366,56,o),
(434,169,c),
(442,181,o),
(438,195,o),
(426,201,cs),
(414,208,o),
(398,203,o),
(389,190,c),
(328,96,o),
(306,46,o),
(237,46,cs),
(163,46,o),
(114,103,o),
(125,164,cs),
(133,205,o),
(168,249,o),
(219,285,c),
(405,14,ls)
);
},
{
closed = 1;
nodes = (
(222,363,o),
(177,424,o),
(177,455,cs),
(177,487,o),
(223,518,o),
(280,518,cs),
(324,518,o),
(341,500,o),
(345,486,cs),
(354,449,o),
(282,383,o),
(181,319,c),
(257,309,l),
(344,371,o),
(411,432,o),
(391,500,cs),
(378,547,o),
(333,568,o),
(280,568,cs),
(192,568,o),
(127,510,o),
(127,453,cs),
(127,403,o),
(176,342,o),
(198,309,c),
(241,335,l)
);
}
);
width = 547;
},
{
layerId = m002;
shapes = (
{
closed = 1;
nodes = (
(407,3,o),
(443,-9,o),
(467,8,cs),
(492,27,o),
(487,52,o),
(473,73,cs),
(294,335,l),
(207,344,l),
(143,297,o),
(98,243,o),
(88,190,cs),
(73,108,o),
(133,-4,o),
(260,-4,cs),
(359,-4,o),
(401,63,o),
(463,168,cs),
(477,190,o),
(469,213,o),
(448,225,cs),
(426,238,o),
(394,231,o),
(379,209,cs),
(321,120,o),
(307,86,o),
(260,86,cs),
(204,86,o),
(173,123,o),
(182,169,cs),
(187,197,o),
(207,225,o),
(238,251,c),
(394,23,ls)
);
},
{
closed = 1;
nodes = (
(267,369,o),
(230,419,o),
(230,441,cs),
(230,460,o),
(255,478,o),
(300,478,cs),
(327,478,o),
(334,473,o),
(336,465,cs),
(342,438,o),
(277,386,o),
(183,333,c),
(286,284,l),
(372,344,o),
(449,409,o),
(426,489,cs),
(411,543,o),
(357,568,o),
(300,568,cs),
(205,568,o),
(134,504,o),
(134,439,cs),
(134,386,o),
(183,325,o),
(216,276,c),
(298,325,l)
);
}
);
width = 573;
}
);
metricLeft = O;
metricRight = n;
unicode = 38;
},
{
glyphname = degree;
lastChange = "2022-03-14 05:34:59 +0000";
layers = (
{
layerId = m01;
shapes = (
{
closed = 1;
nodes = (
(219,693,o),
(180,632,o),
(158,546,cs),
(139,471,o),
(148,386,o),
(221,386,cs),
(307,386,o),
(363,480,o),
(382,556,cs),
(394,605,o),
(392,693,o),
(309,693,cs)
);
},
{
closed = 1;
nodes = (
(352,647,o),
(335,578,o),
(333,568,cs),
(320,516,o),
(272,432,o),
(233,432,cs),
(177,432,o),
(200,500,o),
(215,559,cs),
(222,587,o),
(251,647,o),
(298,647,cs)
);
}
);
width = 352;
},
{
layerId = m002;
shapes = (
{
closed = 1;
nodes = (
(236,693,o),
(187,622,o),
(165,536,cs),
(146,461,o),
(165,356,o),
(248,356,cs),
(344,356,o),
(410,470,o),
(429,546,cs),
(441,595,o),
(429,693,o),
(336,693,cs)
);
},
{
closed = 1;
nodes = (
(364,617,o),
(352,568,o),
(350,558,cs),
(337,506,o),
(294,432,o),
(260,432,cs),
(224,432,o),
(237,490,o),
(252,549,cs),
(259,577,o),
(283,617,o),
(325,617,cs)
);
}
);
width = 411;
}
);
metricLeft = N;
metricRight = N;
unicode = 176;
},
{
glyphname = bar;
lastChange = "2022-03-14 21:43:20 +0000";
layers = (
{
layerId = m01;
shapes = (
{
closed = 1;
nodes = (
(245,689,o),
(235,699,o),
(222,700,cs),
(210,701,o),
(195,692,o),
(191,674,cs),
(-46,-272,ls),
(-50,-286,o),
(-42,-300,o),
(-24,-300,cs),
(-3,-300,o),
(2,-287,o),
(5,-277,cs),
(240,667,ls)
);
}
);
width = 183;
},
{
layerId = m002;
shapes = (
{
closed = 1;
nodes = (
(301,676,o),
(278,700,o),
(251,700,cs),
(229,700,o),
(203,687,o),
(195,655,cs),
(-29,-242,ls),
(-36,-270,o),
(-17,-300,o),
(15,-300,cs),
(49,-300,o),
(64,-280,o),
(69,-259,cs),
(291,635,ls)
);
}
);
width = 252;
}
);
metricLeft = N;
metricRight = N;
unicode = 124;
},
{
glyphname = brokenbar;
lastChange = "2022-03-14 21:43:20 +0000";
layers = (
{
layerId = m01;
shapes = (
{
closed = 1;
nodes = (
(111,150,o),
(101,162,o),
(89,163,cs),
(76,164,o),
(60,154,o),
(56,137,cs),
(-46,-272,ls),
(-50,-286,o),
(-43,-300,o),
(-24,-300,cs),
(-3,-300,o),
(2,-287,o),
(5,-277,cs),
(107,134,ls)
);
},
{
closed = 1;
nodes = (
(246,689,o),
(235,699,o),
(222,700,cs),
(210,701,o),
(196,692,o),
(191,674,cs),
(88,266,ls),
(84,250,o),
(94,238,o),
(107,238,cs),
(120,237,o),
(135,246,o),
(139,263,cs),
(240,667,ls)
);
}
);
width = 183;
},
{
layerId = m002;
shapes = (
{
closed = 1;
nodes = (
(167,138,o),
(147,163,o),
(120,163,cs),
(97,163,o),
(69,150,o),
(62,123,cs),
(-29,-245,ls),
(-36,-272,o),
(-17,-300,o),
(15,-300,cs),
(49,-300,o),
(64,-282,o),
(69,-261,cs),
(160,108,ls)
);
},
{
closed = 1;
nodes = (
(302,676,o),
(281,700,o),
(255,700,cs),
(231,700,o),
(203,687,o),
(196,659,cs),
(104,292,ls),
(96,261,o),
(117,237,o),
(145,237,cs),
(168,237,o),
(195,251,o),
(202,277,cs),
(293,640,ls)
);
}
);
width = 253;
}
);
metricLeft = N;
metricRight = N;
unicode = 166;
},
{
glyphname = dollar;
lastChange = "2022-03-15 04:20:43 +0000";
layers = (
{
layerId = m01;
shapes = (
{
closed = 1;
nodes = (
(394,629,o),
(385,641,o),
(373,642,cs),
(362,643,o),
(349,635,o),
(344,616,cs),
(178,-48,ls),
(173,-67,o),
(183,-77,o),
(194,-77,cs),
(205,-78,o),
(219,-70,o),
(223,-53,cs),
(389,609,ls)
);
},
{
closed = 1;
nodes = (
(131,49,o),
(99,71,o),
(86,108,cs),
(81,121,o),
(66,126,o),
(53,123,cs),
(38,120,o),
(36,106,o),
(38,96,cs),
(52,38,o),
(106,0,o),
(194,0,cs),
(293,0,o),
(398,6,o),
(428,127,cs),
(449,211,o),
(369,259,o),
(300,312,cs),
(228,367,o),
(163,396,o),
(174,440,cs),
(188,497,o),
(291,518,o),
(366,518,cs),
(437,518,o),
(450,494,o),
(462,457,cs),
(466,444,o),
(483,440,o),
(495,442,cs),
(511,445,o),
(512,459,o),
(510,469,cs),
(494,534,o),
(458,568,o),
(371,568,cs),
(243,568,o),
(142,526,o),
(125,451,cs),
(106,369,o),
(188,335,o),
(257,281,cs),
(333,221,o),
(393,193,o),
(379,135,cs),
(358,50,o),
(271,49,o),
(197,49,cs)
);
}
);
width = 495;
},
{
layerId = m002;
shapes = (
{
closed = 1;
nodes = (
(444,618,o),
(422,640,o),
(396,642,cs),
(374,644,o),
(348,630,o),
(341,602,cs),
(186,-23,ls),
(178,-55,o),
(199,-76,o),
(224,-78,cs),
(246,-79,o),
(272,-66,o),
(279,-39,cs),
(435,583,ls)
);
},
{
closed = 1;
nodes = (
(193,94,o),
(162,103,o),
(154,126,cs),
(144,156,o),
(111,166,o),
(90,162,cs),
(63,157,o),
(50,135,o),
(55,111,cs),
(69,44,o),
(134,0,o),
(224,0,cs),
(315,0,o),
(439,6,o),
(471,132,cs),
(493,225,o),
(415,276,o),
(348,316,cs),
(281,356,o),
(221,387,o),
(227,410,cs),
(237,451,o),
(316,474,o),
(379,474,cs),
(422,474,o),
(440,467,o),
(450,440,cs),
(461,410,o),
(491,400,o),
(513,405,cs),
(541,411,o),
(552,432,o),
(547,456,cs),
(531,528,o),
(482,568,o),
(392,568,cs),
(261,568,o),
(148,511,o),
(129,432,cs),
(107,340,o),
(213,288,o),
(274,250,cs),
(350,203,o),
(382,191,o),
(372,151,cs),
(355,82,o),
(281,94,o),
(247,94,cs)
);
}
);
width = 547;
}
);
metricLeft = S;
metricRight = S;
unicode = 36;
},
{
glyphname = plus;
lastChange = "2022-03-15 04:20:40 +0000";
layers = (
{
layerId = m002;
shapes = (
{
closed = 1;
nodes = (
(299,323,o),
(277,346,o),
(250,348,cs),
(230,349,o),
(207,338,o),
(200,311,cs),
(149,99,ls),
(141,67,o),
(163,44,o),
(190,42,cs),
(210,41,o),
(232,52,o),
(239,79,cs),
(291,291,ls)
);
},
{
closed = 1;
nodes = (
(360,154,o),
(380,174,o),
(380,198,cs),
(380,221,o),
(360,241,o),
(329,241,cs),
(112,241,ls),
(81,241,o),
(61,221,o),
(61,198,cs),
(61,174,o),
(81,154,o),
(112,154,cs),
(329,154,ls)
);
}
);
width = 430;
},
{
layerId = m01;
shapes = (
{
closed = 1;
nodes = (
(244,319,o),
(233,331,o),
(221,332,cs),
(211,333,o),
(201,326,o),
(196,311,cs),
(142,90,ls),
(138,71,o),
(149,59,o),
(161,58,cs),
(171,58,o),
(181,64,o),
(185,80,cs),
(240,301,ls)
);
},
{
closed = 1;
nodes = (
(322,175,o),
(331,187,o),
(331,198,cs),
(331,209,o),
(322,220,o),
(304,220,cs),
(77,220,ls),
(59,220,o),
(50,209,o),
(50,198,cs),
(50,187,o),
(59,175,o),
(77,175,cs),
(304,175,ls)
);
}
);
width = 380;
}
);
metricLeft = n;
metricRight = n;
unicode = 43;
},
{
glyphname = minus;
lastChange = "2022-03-15 04:20:40 +0000";
layers = (
{
layerId = m002;
shapes = (
{
closed = 1;
nodes = (
(360,154,o),
(380,174,o),
(380,198,cs),
(380,222,o),
(360,241,o),
(329,241,cs),
(112,241,ls),
(81,241,o),
(61,222,o),
(61,198,cs),
(61,173,o),
(81,154,o),
(112,154,cs),
(329,154,ls)
);
}
);
width = 430;
},
{
layerId = m01;
shapes = (
{
closed = 1;
nodes = (
(322,175,o),
(331,187,o),
(331,198,cs),
(331,209,o),
(322,220,o),
(304,220,cs),
(77,220,ls),
(59,220,o),
(50,209,o),
(50,198,cs),
(50,186,o),
(59,175,o),
(77,175,cs),
(304,175,ls)
);
}
);
width = 380;
}
);
metricLeft = n;
metricRight = n;
unicode = 8722;
},
{
glyphname = multiply;
lastChange = "2022-03-15 11:02:48 +0000";
layers = (
{
layerId = m002;
shapes = (
{
closed = 1;
nodes = (
(392,292,o),
(390,320,o),
(370,337,cs),
(353,352,o),
(321,357,o),
(299,338,cs),
(53,122,ls),
(30,102,o),
(31,78,o),
(47,59,cs),
(65,40,o),
(98,34,o),
(123,56,cs),
(368,271,ls)
);
},
{
closed = 1;
nodes = (
(151,358,o),
(113,353,o),
(96,335,cs),
(81,317,o),
(79,294,o),
(95,273,cs),
(256,59,ls),
(273,36,o),
(309,40,o),
(326,55,cs),
(345,72,o),
(348,97,o),
(330,120,cs),
(171,331,ls)
);
}
);
width = 415;
},
{
layerId = m01;
shapes = (
{
closed = 1;
nodes = (
(346,308,o),
(344,323,o),
(335,331,cs),
(326,340,o),
(310,343,o),
(296,331,cs),
(28,96,ls),
(16,86,o),
(18,71,o),
(26,62,cs),
(35,53,o),
(50,48,o),
(66,62,cs),
(332,296,ls)
);
},
{
closed = 1;
nodes = (
(106,341,o),
(90,341,o),
(81,334,cs),
(71,326,o),
(66,311,o),
(75,298,cs),
(248,64,ls),
(259,50,o),
(274,51,o),
(283,58,cs),
(294,66,o),
(299,80,o),
(289,94,cs),
(117,326,ls)
);
}
);
width = 359;
}
);
metricLeft = o;
metricRight = o;
unicode = 215;
},
{
glyphname = divide;
lastChange = "2022-03-15 04:20:40 +0000";
layers = (
{
layerId = m002;
shapes = (
{
closed = 1;
nodes = (
(217,16,o),
(244,40,o),
(244,69,cs),
(244,100,o),
(216,122,o),
(187,122,cs),
(156,122,o),
(132,98,o),
(132,69,cs),
(132,40,o),
(157,16,o),
(187,16,cs)
);
},
{
closed = 1;
nodes = (
(281,273,o),
(308,297,o),
(308,327,cs),
(308,356,o),
(281,379,o),
(251,379,cs),
(221,379,o),
(196,355,o),
(196,327,cs),
(196,298,o),
(221,273,o),
(251,273,cs)
);
},
{
closed = 1;
nodes = (
(395,154,o),
(398,241,o),
(329,241,cs),
(112,241,ls),
(43,241,o),
(46,154,o),
(112,154,cs),
(329,154,ls)
);
}
);
width = 429;
},
{
layerId = m01;
shapes = (
{
closed = 1;
nodes = (
(180,57,o),
(196,73,o),
(196,90,cs),
(196,108,o),
(179,122,o),
(162,122,cs),
(143,122,o),
(131,106,o),
(131,90,cs),
(131,73,o),
(144,57,o),
(162,57,cs)
);
},
{
closed = 1;
nodes = (
(234,273,o),
(250,289,o),
(250,306,cs),
(250,323,o),
(234,338,o),
(217,338,cs),
(199,338,o),
(185,322,o),
(185,306,cs),
(185,290,o),
(199,273,o),
(217,273,cs)
);
},
{
closed = 1;
nodes = (
(339,175,o),
(341,220,o),
(304,220,cs),
(77,220,ls),
(40,220,o),
(42,175,o),
(77,175,cs),
(304,175,ls)
);
}
);
width = 380;
}
);
metricLeft = n;
metricRight = n;
unicode = 247;
},
{
glyphname = equal;
lastChange = "2022-03-15 04:20:40 +0000";
layers = (
{
layerId = m002;
shapes = (
{
closed = 1;
nodes = (
(383,248,o),
(404,266,o),
(404,290,cs),
(404,314,o),
(383,333,o),
(353,333,cs),
(135,333,ls),
(105,333,o),
(84,314,o),
(84,290,cs),
(84,266,o),
(105,248,o),
(135,248,cs),
(353,248,ls)
);
},
{
closed = 1;
nodes = (
(346,97,o),
(367,116,o),
(367,141,cs),
(367,165,o),
(346,182,o),
(316,182,cs),
(98,182,ls),
(68,182,o),
(47,165,o),
(47,141,cs),
(47,117,o),
(68,97,o),
(98,97,cs),
(316,97,ls)
);
}
);
width = 431;
},
{
layerId = m01;
shapes = (
{
closed = 1;
nodes = (
(341,248,o),
(350,260,o),
(350,271,cs),
(350,282,o),
(341,293,o),
(323,293,cs),
(96,293,ls),
(78,293,o),
(69,282,o),
(69,271,cs),
(69,260,o),
(78,248,o),
(96,248,cs),
(323,248,ls)
);
},
{
closed = 1;
nodes = (
(304,97,o),
(313,108,o),
(313,120,cs),
(313,131,o),
(304,142,o),
(286,142,cs),
(59,142,ls),
(41,142,o),
(32,131,o),
(32,120,cs),
(32,109,o),
(41,97,o),
(59,97,cs),
(286,97,ls)
);
}
);
width = 381;
}
);
metricLeft = n;
metricRight = n;
unicode = 61;
},
{
glyphname = notequal;
lastChange = "2022-03-15 04:20:43 +0000";
layers = (
{
layerId = m002;
shapes = (
{
closed = 1;
nodes = (
(365,368,o),
(339,395,o),
(310,397,cs),
(293,398,o),
(270,389,o),
(260,371,cs),
(93,70,ls),
(77,41,o),
(91,18,o),
(115,7,cs),
(135,0,o),
(163,4,o),
(175,26,cs),
(342,326,ls)
);
},
{
closed = 1;
nodes = (
(347,97,o),
(368,116,o),
(368,141,cs),
(368,165,o),
(347,182,o),
(317,182,cs),
(99,182,ls),
(69,182,o),
(48,165,o),
(48,141,cs),
(48,117,o),
(69,97,o),
(99,97,cs),
(317,97,ls)
);
},
{
closed = 1;
nodes = (
(383,248,o),
(404,266,o),
(404,290,cs),
(404,314,o),
(383,333,o),
(353,333,cs),
(135,333,ls),
(105,333,o),
(84,314,o),
(84,290,cs),
(84,266,o),
(105,248,o),
(135,248,cs),
(353,248,ls)
);
}
);
width = 432;
},
{
layerId = m01;
shapes = (
{
closed = 1;
nodes = (
(285,330,o),
(274,344,o),
(260,345,cs),
(250,345,o),
(240,341,o),
(233,330,cs),
(94,78,ls),
(85,60,o),
(92,48,o),
(103,43,cs),
(112,39,o),
(126,41,o),
(132,54,cs),
(271,306,ls)
);
},
{
closed = 1;
nodes = (
(303,97,o),
(312,108,o),
(312,120,cs),
(312,131,o),
(303,142,o),
(285,142,cs),
(58,142,ls),
(40,142,o),
(31,131,o),
(31,120,cs),
(31,109,o),
(40,97,o),
(58,97,cs),
(285,97,ls)
);
},
{
closed = 1;
nodes = (
(341,248,o),
(350,260,o),
(350,271,cs),
(350,282,o),
(341,293,o),
(323,293,cs),
(96,293,ls),
(78,293,o),
(69,282,o),
(69,271,cs),
(69,260,o),
(78,248,o),
(96,248,cs),
(323,248,ls)
);
}
);
width = 381;
}
);
metricLeft = n;
metricRight = n;
unicode = 8800;
},
{
glyphname = greater;
lastChange = "2022-03-15 04:20:40 +0000";
layers = (
{
layerId = m002;
shapes = (
{
closed = 1;
nodes = (
(242,204,l),
(69,128,ls),
(38,114,o),
(29,96,o),
(33,73,cs),
(38,49,o),
(67,30,o),
(99,44,cs),
(324,144,l)
);
},
{
closed = 1;
nodes = (
(296,133,o),
(326,137,o),
(342,158,cs),
(356,179,o),
(356,200,o),
(331,218,cs),
(168,339,ls),
(145,356,o),
(115,353,o),
(100,336,cs),
(82,316,o),
(84,290,o),
(109,271,cs),
(272,151,ls)
);
}
);
width = 404;
},
{
guides = (
{
pos = (184,333);
}
);
layerId = m01;
shapes = (
{
closed = 1;
nodes = (
(247,193,l),
(42,103,ls),
(22,94,o),
(18,83,o),
(21,71,cs),
(24,61,o),
(35,51,o),
(54,59,cs),
(286,161,l)
);
},
{
closed = 1;
nodes = (
(276,155,o),
(287,159,o),
(295,168,cs),
(303,179,o),
(304,189,o),
(290,200,cs),
(121,325,ls),
(106,336,o),
(93,336,o),
(84,327,cs),
(75,316,o),
(77,302,o),
(92,291,cs),
(261,166,ls)
);
}
);
width = 353;
}
);
metricLeft = n;
metricRight = n;
unicode = 62;
},
{
glyphname = less;
lastChange = "2022-03-15 04:20:40 +0000";
layers = (
{
layerId = m002;
shapes = (
{
closed = 1;
nodes = (
(345,261,ls),
(376,275,o),
(385,293,o),
(381,316,cs),
(376,340,o),
(346,360,o),
(315,346,cs),
(86,244,l),
(167,183,l)
);
},
{
closed = 1;
nodes = (
(270,34,o),
(299,36,o),
(314,53,cs),
(332,74,o),
(331,100,o),
(305,119,cs),
(142,238,ls),
(118,256,o),
(88,252,o),
(72,231,cs),
(58,210,o),
(58,189,o),
(83,171,cs),
(246,51,ls)
);
}
);
width = 405;
},
{
layerId = m01;
shapes = (
{
closed = 1;
nodes = (
(311,286,ls),
(331,295,o),
(335,306,o),
(332,317,cs),
(329,328,o),
(318,338,o),
(299,330,cs),
(65,227,l),
(88,188,l)
);
},
{
closed = 1;
nodes = (
(247,53,o),
(260,53,o),
(269,62,cs),
(278,72,o),
(276,87,o),
(261,98,cs),
(92,223,ls),
(78,234,o),
(66,230,o),
(59,220,cs),
(50,210,o),
(49,200,o),
(63,189,cs),
(232,64,ls)
);
}
);
width = 354;
}
);
metricLeft = n;
metricRight = n;
unicode = 60;
},
{
glyphname = greaterequal;
lastChange = "2022-03-15 04:20:43 +0000";
layers = (
{
layerId = m002;
shapes = (
{
closed = 1;
nodes = (
(329,196,o),
(356,199,o),
(369,218,cs),
(384,240,o),
(383,261,o),
(357,278,cs),
(179,392,ls),
(151,410,o),
(123,402,o),
(111,385,cs),
(95,363,o),
(100,341,o),
(127,324,cs),
(306,211,ls)
);
},
{
closed = 1;
nodes = (
(321,57,o),
(341,75,o),
(341,99,cs),
(341,123,o),
(321,142,o),
(290,142,cs),
(88,142,ls),
(58,142,o),
(37,122,o),
(37,98,cs),
(37,75,o),
(58,57,o),
(88,57,cs),
(290,57,ls)
);
},
{
closed = 1;
nodes = (
(198,287,l),
(128,287,ls),
(94,287,o),
(75,271,o),
(72,247,cs),
(70,223,o),
(87,202,o),
(122,202,cs),
(329,202,l)
);
}
);
width = 416;
},
{
layerId = m01;
shapes = (
{
closed = 1;
nodes = (
(301,198,o),
(312,202,o),
(319,212,cs),
(327,223,o),
(324,235,o),
(312,243,cs),
(129,360,ls),
(113,370,o),
(100,369,o),
(92,359,cs),
(84,348,o),
(87,334,o),
(102,324,cs),
(286,207,ls)
);
},
{
closed = 1;
nodes = (
(289,97,o),
(298,108,o),
(298,120,cs),
(298,131,o),
(289,142,o),
(271,142,cs),
(58,142,ls),
(40,142,o),
(31,131,o),
(31,120,cs),
(31,109,o),
(40,97,o),
(58,97,cs),
(271,97,ls)
);
},
{
closed = 1;
nodes = (
(232,248,l),
(89,248,ls),
(67,248,o),
(59,239,o),
(57,227,cs),
(56,216,o),
(61,202,o),
(83,202,cs),
(299,202,l)
);
}
);
width = 366;
}
);
metricLeft = n;
metricRight = n;
unicode = 8805;
},
{
glyphname = lessequal;
lastChange = "2022-03-15 04:20:43 +0000";
layers = (
{
layerId = m002;
shapes = (
{
closed = 1;
nodes = (
(391,337,o),
(399,362,o),
(382,386,cs),
(370,403,o),
(344,408,o),
(315,393,cs),
(98,281,ls),
(70,266,o),
(66,242,o),
(82,221,cs),
(95,201,o),
(120,197,o),
(145,210,cs),
(363,322,ls)
);
},
{
closed = 1;
nodes = (
(305,57,o),
(326,75,o),
(326,98,cs),
(326,122,o),
(305,142,o),
(275,142,cs),
(87,142,ls),
(57,142,o),
(36,122,o),
(36,98,cs),
(36,74,o),
(57,57,o),
(87,57,cs),
(275,57,ls)
);
},
{
closed = 1;
nodes = (
(312,202,ls),
(340,202,o),
(362,222,o),
(362,245,cs),
(364,272,o),
(338,287,o),
(306,287,cs),
(273,287,l),
(111,202,l)
);
}
);
width = 400;
},
{
layerId = m01;
shapes = (
{
closed = 1;
nodes = (
(339,332,o),
(341,348,o),
(333,359,cs),
(325,369,o),
(313,369,o),
(296,360,cs),
(70,243,ls),
(55,235,o),
(55,223,o),
(63,212,cs),
(70,202,o),
(81,199,o),
(96,207,cs),
(323,324,ls)
);
},
{
closed = 1;
nodes = (
(289,97,o),
(298,109,o),
(298,120,cs),
(298,131,o),
(289,142,o),
(271,142,cs),
(67,142,ls),
(49,142,o),
(40,131,o),
(40,120,cs),
(40,108,o),
(49,97,o),
(67,97,cs),
(271,97,ls)
);
},
{
closed = 1;
nodes = (
(290,202,ls),
(306,202,o),
(316,213,o),
(316,225,cs),
(317,236,o),
(307,248,o),
(284,248,cs),
(78,248,l),
(77,202,l)
);
}
);
width = 366;
}
);
metricLeft = n;
metricRight = n;
unicode = 8804;
},
{
glyphname = plusminus;
lastChange = "2022-03-15 04:20:43 +0000";
layers = (
{
layerId = m01;
shapes = (
{
closed = 1;
nodes = (
(245,359,o),
(234,371,o),
(222,372,cs),
(212,372,o),
(201,366,o),
(197,350,cs),
(158,197,ls),
(154,178,o),
(165,166,o),
(177,165,cs),
(187,165,o),
(198,171,o),
(202,187,cs),
(241,340,ls)
);
},
{
closed = 1;
nodes = (
(274,97,o),
(283,108,o),
(283,120,cs),
(283,131,o),
(274,142,o),
(256,142,cs),
(59,142,ls),
(41,142,o),
(32,131,o),
(32,120,cs),
(32,109,o),
(41,97,o),
(59,97,cs),
(256,97,ls)
);
},
{
closed = 1;
nodes = (
(311,248,o),
(320,260,o),
(320,271,cs),
(320,282,o),
(311,293,o),
(293,293,cs),
(96,293,ls),
(78,293,o),
(69,282,o),
(69,271,cs),
(69,260,o),
(78,248,o),
(96,248,cs),
(293,248,ls)
);
}
);
width = 351;
},
{
layerId = m002;
shapes = (
{
closed = 1;
nodes = (
(306,383,o),
(282,406,o),
(256,408,cs),
(235,409,o),
(213,398,o),
(207,371,cs),
(169,225,ls),
(161,191,o),
(184,168,o),
(210,167,cs),
(231,165,o),
(254,177,o),
(260,203,cs),
(297,351,ls)
);
},
{
closed = 1;
nodes = (
(307,57,o),
(328,74,o),
(328,99,cs),
(328,122,o),
(307,142,o),
(277,142,cs),
(87,142,ls),
(57,142,o),
(37,122,o),
(37,99,cs),
(37,75,o),
(57,57,o),
(87,57,cs),
(277,57,ls)
);
},
{
closed = 1;
nodes = (
(354,248,o),
(374,266,o),
(374,290,cs),
(374,313,o),
(354,333,o),
(324,333,cs),
(134,333,ls),
(104,333,o),
(84,313,o),
(84,290,cs),
(84,266,o),
(104,248,o),
(134,248,cs),
(324,248,ls)
);
}
);
width = 402;
}
);
metricLeft = n;
metricRight = n;
unicode = 177;
},
{
glyphname = approxequal;
lastChange = "2022-03-15 04:20:43 +0000";
layers = (
{
layerId = m01;
shapes = (
{
closed = 1;
nodes = (
(282,227,o),
(302,237,o),
(323,246,cs),
(341,254,o),
(349,260,o),
(349,271,cs),
(349,282,o),
(337,302,o),
(320,294,cs),
(301,285,o),
(288,272,o),
(258,272,cs),
(230,272,o),
(187,310,o),
(156,310,cs),
(130,310,o),
(113,301,o),
(95,294,cs),
(77,287,o),
(68,282,o),
(68,271,cs),
(68,259,o),
(78,238,o),
(96,246,cs),
(111,253,o),
(125,265,o),
(148,265,cs),
(179,265,o),
(222,227,o),
(250,227,cs)
);
},
{
closed = 1;
nodes = (
(245,76,o),
(265,86,o),
(286,95,cs),
(304,103,o),
(312,109,o),
(312,120,cs),
(312,131,o),
(300,151,o),
(283,143,cs),
(264,134,o),
(251,121,o),
(221,121,cs),
(193,121,o),
(150,159,o),
(119,159,cs),
(93,159,o),
(76,150,o),
(58,143,cs),
(40,136,o),
(31,131,o),
(31,120,cs),
(31,108,o),
(41,87,o),
(59,95,cs),
(74,102,o),
(88,114,o),
(111,114,cs),
(142,114,o),
(185,76,o),
(213,76,cs)
);
}
);
width = 380;
},
{
layerId = m002;
shapes = (
{
closed = 1;
nodes = (
(322,229,o),
(347,241,o),
(365,249,cs),
(393,262,o),
(405,273,o),
(405,293,cs),
(405,321,o),
(373,351,o),
(341,335,cs),
(317,323,o),
(312,316,o),
(293,316,cs),
(276,316,o),
(234,352,o),
(195,352,cs),
(164,352,o),
(142,342,o),
(126,335,cs),
(99,324,o),
(85,313,o),
(85,293,cs),
(85,261,o),
(117,234,o),
(148,249,cs),
(166,258,o),
(174,265,o),
(187,265,cs),
(207,265,o),
(248,229,o),
(285,229,cs)
);
},
{
closed = 1;
nodes = (
(274,35,o),
(299,47,o),
(317,55,cs),
(345,68,o),
(357,79,o),
(357,99,cs),
(357,127,o),
(325,157,o),
(293,141,cs),
(269,129,o),
(264,122,o),
(245,122,cs),
(228,122,o),
(186,158,o),
(147,158,cs),
(116,158,o),
(94,148,o),
(78,141,cs),
(51,130,o),
(37,119,o),
(37,99,cs),
(37,67,o),
(69,40,o),
(100,55,cs),
(118,64,o),
(126,71,o),
(139,71,cs),
(159,71,o),
(200,35,o),
(237,35,cs)
);
}
);
width = 431;
}
);
metricLeft = n;
metricRight = n;
unicode = 8776;
},
{
glyphname = asciicircum;
lastChange = "2022-03-15 04:20:43 +0000";
layers = (
{
layerId = m01;
shapes = (
{
closed = 1;
nodes = (
(342,619,o),
(340,634,o),
(331,642,cs),
(322,651,o),
(306,654,o),
(292,642,cs),
(159,531,ls),
(147,521,o),
(149,506,o),
(157,497,cs),
(166,488,o),
(181,484,o),
(197,497,cs),
(328,607,ls)
);
},
{
closed = 1;
nodes = (
(293,609,l),
(386,499,ls),
(397,486,o),
(412,488,o),
(421,496,cs),
(431,504,o),
(434,520,o),
(424,532,cs),
(332,641,l)
);
}
);
width = 411;
},
{
layerId = m002;
shapes = (
{
closed = 1;
nodes = (
(400,590,o),
(398,617,o),
(380,635,cs),
(363,653,o),
(329,657,o),
(306,638,cs),
(173,527,ls),
(149,507,o),
(153,481,o),
(166,464,cs),
(184,442,o),
(219,439,o),
(243,459,cs),
(374,569,ls)
);
},
{
closed = 1;
nodes = (
(305,573,l),
(397,464,ls),
(416,441,o),
(451,443,o),
(469,460,cs),
(488,477,o),
(492,502,o),
(473,525,cs),
(380,635,l)
);
}
);
width = 482;
}
);
metricLeft = N;
metricRight = N;
unicode = 94;
},
{
glyphname = infinity;
lastChange = "2022-03-15 11:02:48 +0000";
layers = (
{
layerId = m01;
shapes = (
{
closed = 1;
nodes = (
(318,196,ls),
(351,146,o),
(390,90,o),
(448,80,cs),
(512,69,o),
(601,109,o),
(626,211,cs),
(650,307,o),
(571,349,o),
(514,359,cs),
(462,368,o),
(395,356,o),
(314,279,c),
(307,213,l)
);
},
{
closed = 1;
nodes = (
(258,214,o),
(159,121,o),
(123,127,cs),
(91,132,o),
(90,191,o),
(99,227,cs),
(109,267,o),
(130,322,o),
(186,312,cs),
(227,305,o),
(265,267,o),
(283,241,c),
(316,279,l),
(294,309,o),
(255,352,o),
(200,361,cs),
(114,377,o),
(66,298,o),
(48,226,cs),
(34,168,o),
(48,93,o),
(115,81,cs),
(183,69,o),
(246,140,o),
(315,210,c),
(317,280,l)
);
},
{
closed = 1;
nodes = (
(415,307,o),
(460,319,o),
(499,312,cs),
(547,303,o),
(589,263,o),
(577,214,cs),
(563,158,o),
(500,123,o),
(457,130,cs),
(416,137,o),
(387,187,o),
(358,227,cs),
(348,241,l)
);
}
);
width = 657;
},
{
layerId = m002;
shapes = (
{
closed = 1;
nodes = (
(336,179,ls),
(368,126,o),
(410,71,o),
(471,61,cs),
(540,49,o),
(646,92,o),
(674,205,cs),
(701,314,o),
(602,362,o),
(542,373,cs),
(487,383,o),
(417,369,o),
(332,284,c),
(321,204,l)
);
},
{
closed = 1;
nodes = (
(273,221,o),
(203,150,o),
(178,154,cs),
(153,158,o),
(139,195,o),
(147,227,cs),
(156,261,o),
(192,284,o),
(229,278,cs),
(271,271,o),
(303,220,o),
(320,198,c),
(383,272,l),
(367,296,o),
(323,361,o),
(251,374,cs),
(154,391,o),
(87,325,o),
(64,230,cs),
(44,146,o),
(85,73,o),
(161,60,cs),
(237,47,o),
(305,126,o),
(375,197,c),
(319,272,l)
);
},
{
closed = 1;
nodes = (
(464,277,o),
(495,284,o),
(523,279,cs),
(563,272,o),
(598,253,o),
(589,215,cs),
(579,173,o),
(535,150,o),
(502,156,cs),
(459,163,o),
(429,212,o),
(419,227,cs),
(415,233,l)
);
}
);
width = 717;
}
);
metricLeft = o;
metricRight = o;
unicode = 8734;
},
{
glyphname = percent;
lastChange = "2022-03-15 04:20:43 +0000";
layers = (
{
layerId = m01;
shapes = (
{
closed = 1;
nodes = (
(547,637,o),
(532,650,o),
(517,650,cs),
(506,650,o),
(495,644,o),
(488,627,cs),
(231,31,ls),
(223,12,o),
(237,0,o),
(253,0,cs),
(264,0,o),
(275,6,o),
(281,20,cs),
(538,616,ls)
);
},
{
closed = 1;
nodes = (
(208,650,o),
(169,589,o),
(147,503,cs),
(128,428,o),
(137,343,o),
(210,343,cs),
(296,343,o),
(352,437,o),
(371,513,cs),
(383,562,o),
(381,650,o),
(298,650,cs)
);
},
{
closed = 1;
nodes = (
(341,604,o),
(324,535,o),
(322,525,cs),
(309,473,o),
(261,389,o),
(222,389,cs),
(166,389,o),
(189,457,o),
(204,516,cs),
(211,544,o),
(240,604,o),
(287,604,cs)
);
},
{
closed = 1;
nodes = (
(475,307,o),
(436,246,o),
(414,160,cs),
(395,85,o),
(404,0,o),
(477,0,cs),
(563,0,o),
(619,94,o),
(638,170,cs),
(650,219,o),
(648,307,o),
(565,307,cs)
);
},
{
closed = 1;
nodes = (
(608,261,o),
(591,192,o),
(589,182,cs),
(576,130,o),
(528,46,o),
(489,46,cs),
(433,46,o),
(456,114,o),
(471,173,cs),
(478,201,o),
(507,261,o),
(554,261,cs)
);
}
);
width = 704;
},
{
layerId = m002;
shapes = (
{
closed = 1;
nodes = (
(646,624,o),
(615,650,o),
(585,650,cs),
(565,650,o),
(543,639,o),
(532,614,cs),
(292,60,ls),
(277,25,o),
(306,0,o),
(338,0,cs),
(357,0,o),
(379,10,o),
(389,32,cs),
(630,588,ls)
);
},
{
closed = 1;
nodes = (
(225,649,o),
(176,578,o),
(154,492,cs),
(135,417,o),
(154,312,o),
(237,312,cs),
(333,312,o),
(399,426,o),
(418,502,cs),
(430,551,o),
(418,649,o),
(325,649,cs)
);
},
{
closed = 1;
nodes = (
(353,573,o),
(341,524,o),
(339,514,cs),
(326,462,o),
(283,388,o),
(249,388,cs),
(213,388,o),
(226,446,o),
(241,505,cs),
(248,533,o),
(272,573,o),
(314,573,cs)
);
},
{
closed = 1;
nodes = (
(585,337,o),
(536,266,o),
(514,180,cs),
(495,105,o),
(514,0,o),
(597,0,cs),
(693,0,o),
(759,114,o),
(778,190,cs),
(790,239,o),
(778,337,o),
(685,337,cs)
);
},
{
closed = 1;
nodes = (
(713,261,o),
(701,212,o),
(699,202,cs),
(686,150,o),
(643,76,o),
(609,76,cs),
(573,76,o),
(586,134,o),
(601,193,cs),
(608,221,o),
(632,261,o),
(674,261,cs)
);
}
);
width = 849;
}
);
metricLeft = N;
metricRight = N;
unicode = 37;
},
{
glyphname = grave;
lastChange = "2022-03-14 22:32:49 +0000";
layers = (
{
layerId = m01;
shapes = (
{
closed = 1;
nodes = (
(238,696,o),
(225,701,o),
(214,701,cs),
(198,700,o),
(183,686,o),
(196,664,cs),
(250,572,ls),
(259,557,o),
(272,554,o),
(281,559,cs),
(289,563,o),
(292,573,o),
(286,587,cs),
(244,683,ls)
);
}
);
width = 255;
},
{
layerId = m002;
shapes = (
{
closed = 1;
nodes = (
(288,690,o),
(264,700,o),
(244,700,cs),
(211,698,o),
(181,669,o),
(206,630,cs),
(263,542,ls),
(281,515,o),
(306,508,o),
(325,519,cs),
(344,530,o),
(347,547,o),
(336,573,cs),
(297,669,ls)
);
}
);
width = 326;
}
);
metricLeft = N;
metricRight = N;
unicode = 96;
},
{
glyphname = tilde;
lastChange = "2022-03-15 04:20:40 +0000";
layers = (
{
layerId = m01;
shapes = (
{
closed = 1;
nodes = (
(265,158,o),
(285,168,o),
(306,177,cs),
(324,185,o),
(332,191,o),
(332,202,cs),
(332,213,o),
(320,233,o),
(303,225,cs),
(284,216,o),
(271,203,o),
(241,203,cs),
(213,203,o),
(170,241,o),
(139,241,cs),
(113,241,o),
(96,232,o),
(78,225,cs),
(60,218,o),
(51,213,o),
(51,202,cs),
(51,190,o),
(61,169,o),
(79,177,cs),
(94,184,o),
(108,196,o),
(131,196,cs),
(162,196,o),
(205,158,o),
(233,158,cs)
);
}
